<?xml version="1.0" encoding="UTF-8" standalone="no"?>
<!-- Created with Inkscape (http://www.inkscape.org/) -->

<svg
   xmlns:dc="http://purl.org/dc/elements/1.1/"
   xmlns:cc="http://creativecommons.org/ns#"
   xmlns:rdf="http://www.w3.org/1999/02/22-rdf-syntax-ns#"
   xmlns:svg="http://www.w3.org/2000/svg"
   xmlns="http://www.w3.org/2000/svg"
   xmlns:sodipodi="http://sodipodi.sourceforge.net/DTD/sodipodi-0.dtd"
   xmlns:inkscape="http://www.inkscape.org/namespaces/inkscape"
   id="svg2"
   version="1.1"
   inkscape:version="0.91 r13725"
   width="1366"
   height="768"
   sodipodi:docname="schema-window-open-4.svg"
   inkscape:export-filename="/home/hsablonniere/dev/dzslides/src/media/schema-conscient-inconscient.png"
   inkscape:export-xdpi="90"
   inkscape:export-ydpi="90">
  <sodipodi:namedview
     pagecolor="#ffffff"
     bordercolor="#666666"
     borderopacity="1"
     objecttolerance="10"
     gridtolerance="10"
     guidetolerance="10"
     inkscape:pageopacity="0"
     inkscape:pageshadow="2"
     inkscape:window-width="2688"
     inkscape:window-height="1478"
     id="namedview4"
     showgrid="false"
     inkscape:zoom="1.1142832"
     inkscape:cx="577.97966"
     inkscape:cy="439.79037"
     inkscape:window-x="0"
     inkscape:window-y="0"
     inkscape:window-maximized="1"
     inkscape:current-layer="g4336"
     showguides="true"
     inkscape:guide-bbox="true" />
  <metadata
     id="metadata8">
    <rdf:RDF>
      <cc:Work
         rdf:about="">
        <dc:format>image/svg+xml</dc:format>
        <dc:type
           rdf:resource="http://purl.org/dc/dcmitype/StillImage" />
        <dc:title />
      </cc:Work>
    </rdf:RDF>
  </metadata>
  <defs
     id="defs6">
    <clipPath
       clipPathUnits="userSpaceOnUse"
       id="clipPath4522">
      <rect
         style="fill:#226699;fill-opacity:1;stroke:none"
         id="rect4524"
         width="1116.6582"
         height="588.78345"
         x="3620.6797"
         y="1153.7546" />
    </clipPath>
    <radialGradient
       gradientUnits="userSpaceOnUse"
       r="78.326784"
       fy="19.524991"
       fx="106.73546"
       gradientTransform="scale(1.2320179,0.81167652)"
       cy="19.524991"
       cx="106.73546"
       id="r">
      <stop
         stop-color="#f06b59"
         id="stop3165" />
      <stop
         offset="1"
         stop-color="#df2227"
         id="stop3167" />
    </radialGradient>
    <radialGradient
       gradientUnits="userSpaceOnUse"
       fy="108.80645"
       fx="122.26707"
       gradientTransform="scale(0.92838267,1.077142)"
       r="122.76932"
       cy="108.80645"
       cx="122.26707"
       id="g">
      <stop
         offset="0.65"
         stop-color="#4cb749"
         id="stop3170" />
      <stop
         offset="1"
         stop-color="#388b41"
         id="stop3172" />
    </radialGradient>
    <radialGradient
       gradientUnits="userSpaceOnUse"
       fy="102.2451"
       fx="187.90098"
       gradientTransform="scale(0.86406979,1.1573139)"
       r="111.5125"
       cy="102.2451"
       cx="187.90098"
       id="y">
      <stop
         offset="0.6"
         stop-color="#FCD209"
         id="stop3175" />
      <stop
         offset="0.7"
         stop-color="#f7c616"
         id="stop3177" />
      <stop
         offset="1"
         stop-color="#bc821e"
         id="stop3179" />
    </radialGradient>
    <radialGradient
       gradientUnits="userSpaceOnUse"
       fy="78.099998"
       fx="127.5"
       r="99"
       cy="78.099998"
       cx="127.5"
       spreadMethod="pad"
       id="cf">
      <stop
         offset="0.1"
         stop-color="#7FB3DF"
         id="stop3182" />
      <stop
         offset="0.9"
         stop-color="#0F5B94"
         id="stop3184" />
    </radialGradient>
    <radialGradient
       gradientUnits="userSpaceOnUse"
       fy="78.099998"
       fx="127.5"
       id="cb"
       r="99"
       cy="78.099998"
       cx="127.5">
      <stop
         offset="0"
         stop-color="#F6F0EE"
         id="stop3187" />
      <stop
         offset="1"
         stop-color="#ddd"
         id="stop3189" />
    </radialGradient>
    <clipPath
       id="clipPath3858"
       clipPathUnits="userSpaceOnUse">
      <path
         inkscape:connector-curvature="0"
         id="path3860"
         d="m 396.03854,-957.67135 0.32555,-1.84982 c 0.17787,-1.01669 0.93607,-3.7676 1.68701,-6.11165 0.7509,-2.34405 1.58344,-6.17974 1.86458,-8.5238 0.48888,-4.07658 1.1063,-7.91359 1.59822,-9.94441 1.24167,-5.12642 2.16342,-17.96397 2.53046,-35.27907 0.16847,-7.9437 0.34219,-15.7216 0.3848,-17.2843 0.29541,-10.7974 0.2766,-15.7022 -0.1627,-31.4907 -0.27182,-9.7669 -0.59568,-30.7567 -0.71033,-46.6441 -0.21749,-30.1434 -0.34278,-33.9341 -1.50943,-45.2235 -1.52579,-14.7652 -2.10523,-22.4822 -2.5453,-33.9915 -0.25173,-6.5837 -0.58297,-12.1766 -0.7399,-12.4306 -0.31495,-0.5097 -0.34545,-16.0836 -0.0591,-28.6346 0.1178,-5.168 0.52478,-10.0196 1.13944,-13.5404 0.81164,-4.6489 0.89225,-6.1637 0.50319,-9.9444 -0.64924,-6.3078 0.15372,-20.0747 1.19863,-20.466 0.29629,-0.111 1.71953,-0.033 3.15201,0.1776 6.90237,1.0128 12.88171,1.366 27.93909,1.6278 8.98551,0.1562 18.25513,0.432 20.59918,0.6215 2.34408,0.1897 7.13871,0.1759 10.65475,-0.029 3.51606,-0.2055 9.16307,-0.2416 12.54892,-0.089 11.20168,0.5058 35.36389,0.4125 45.22346,-0.1776 5.33925,-0.3195 13.64996,-0.7907 18.46821,-1.0506 4.81831,-0.26 11.74395,-0.9145 15.39019,-1.4503 3.64629,-0.5357 8.12132,-1.1803 9.94443,-1.4354 6.28729,-0.8798 68.53983,-1.356 93.28817,-0.7103 17.23555,0.4497 21.53664,0.4736 47.59117,0.3107 10.32801,-0.065 18.5457,0.1124 21.3095,0.444 2.59099,0.3109 14.94065,0.6163 29.12296,0.7251 13.5434,0.1039 31.23022,0.3571 39.30416,0.5623 18.56812,0.4722 23.7916,0.471 40.72478,-0.015 9.37287,-0.2688 15.31792,-0.2237 18.74941,0.1333 5.89255,0.6129 35.94236,0.7254 42.81135,0.1627 2.60448,-0.2133 10.01083,-0.3895 16.45567,-0.3848 6.44483,0.01 11.77216,-0.1418 11.83859,-0.3255 0.0665,-0.1838 0.88501,-0.1563 1.83498,0.059 0.95012,0.2157 3.72029,0.2223 6.15608,0.015 2.43586,-0.2076 6.25078,-0.5021 8.4646,-0.6512 16.01826,-1.0788 34.62009,-2.5161 45.69701,-3.5367 2.6045,-0.2401 11.66097,-0.4513 20.12557,-0.4736 8.4646,-0.022 17.5211,-0.133 20.1256,-0.2367 2.6046,-0.1039 5.8433,0.021 7.2068,0.2663 1.5326,0.2759 3.4078,0.2709 4.8982,0 1.4546,-0.2645 3.094,-0.2594 4.1436,0 0.9567,0.2364 3.2859,0.4233 5.1793,0.4143 4.079,-0.019 3.6878,-0.5729 5.727,8.0355 1.8446,7.7871 2.4984,13.9158 2.353,22.2713 -0.066,3.7676 -0.1001,17.2933 -0.074,30.0553 0.042,20.939 0.1368,23.8276 1.0211,29.5965 0.5389,3.5161 1.2044,9.2697 1.4798,12.7857 0.2755,3.5161 0.934,8.95 1.4651,12.0754 0.5309,3.1254 1.4936,8.7724 2.1309,12.5489 0.6372,3.7765 1.7912,10.2759 2.5748,14.4431 1.36,7.2318 2.8503,16.9999 4.4543,29.3598 0.7864,6.0583 1.24,10.0029 2.4714,21.3094 0.4254,3.9068 1.0792,8.7014 1.4502,10.6548 0.371,1.9533 0.9803,8.3462 1.3615,14.2063 0.3811,5.8601 0.9204,14.1708 1.1986,18.4682 0.2781,4.2974 0.5743,15.4032 0.6511,24.6835 0.076,9.2803 0.2476,17.0582 0.3847,17.2843 0.2291,0.3776 0.5161,4.2521 1.0952,14.85749 0.1208,2.21382 0.3511,7.70102 0.5179,12.19375 l 0.3108,8.16865 -4.2176,0 c -2.3216,0 -4.9798,0.23459 -5.8897,0.51796 -0.9099,0.28323 -5.052,0.57966 -9.2193,0.6659 -9.8387,0.20367 -19.0647,0.57876 -33.3849,1.37622 -6.3809,0.35534 -11.9747,0.66513 -12.4305,0.68075 -4.2692,0.1461 -9.0519,0.092 -13.5256,-0.16288 -3.12157,-0.17774 -5.59057,-0.12541 -5.91927,0.13323 -0.8238,0.64822 -2.1501,0.52322 -2.4417,-0.23678 -0.3346,-0.87194 -5.4606,-0.66348 -5.4606,0.222 0,0.32708 0.2131,0.59194 0.4736,0.59194 0.2604,0 0.4735,0.24979 0.4735,0.56232 0,0.44196 -0.1351,0.44196 -0.5771,0 -0.3126,-0.31253 -1.1117,-0.59122 -1.7758,-0.62152 -0.8026,-0.0364 -0.9207,-0.12237 -0.37,-0.26636 0.4558,-0.11915 0.8287,-0.4057 0.8287,-0.6363 1e-4,-0.23176 -5.4558,-0.44125 -12.19371,-0.45878 -6.70658,-0.0175 -15.17715,-0.0336 -18.82345,-0.0446 -3.64621,-0.0102 -10.35873,-0.008 -14.91659,0.0153 -4.55786,0.0238 -12.01618,-0.29791 -16.57404,-0.71031 -14.26197,-1.2906 -15.62695,-1.33743 -15.62695,-0.68073 0,0.45276 -0.16136,0.46317 -0.6659,0.0446 -0.72615,-0.60262 -4.61403,-0.82484 -5.44577,-0.31078 -0.28815,0.17783 -0.76999,0.1622 -1.08024,-0.0293 -0.62779,-0.38797 -0.33267,-0.37503 -18.14272,-1.15426 -7.03214,-0.30767 -14.38393,-0.63393 -16.33728,-0.72514 -11.77197,-0.54954 -29.11776,-0.5966 -29.72966,-0.0888 -0.42611,0.35361 -0.77089,0.37705 -0.9767,0.0739 -0.17548,-0.25843 -1.16316,-0.44514 -2.20495,-0.41437 -1.04176,0.0308 -4.93075,0.0992 -8.6422,0.14797 -6.36636,0.0839 -6.74799,0.14151 -6.74799,1.02111 5e-5,0.64127 -0.22836,0.84172 -0.72509,0.65111 -0.56253,-0.21588 -0.60727,-0.4293 -0.17758,-0.94708 0.468,-0.56376 -0.13915,-0.64488 -4.01034,-0.57715 -2.59403,0.0454 -4.55787,0.27044 -4.55787,0.53273 0,0.28518 -0.22636,0.28731 -0.59193,-0.0152 -0.32551,-0.26903 -1.37905,-0.64951 -2.33808,-0.82871 -1.60617,-0.30011 -1.71924,-0.23472 -1.47983,0.68068 0.14288,0.54657 0.0398,0.9915 -0.222,0.9915 -0.26186,0 -0.45033,-0.37291 -0.41435,-0.8287 0.0608,-0.76708 -0.86633,-0.84419 -12.46012,-0.96186 -11.04661,-0.11221 -12.57652,-0.0431 -12.94846,0.6215 -0.38541,0.68866 -0.49216,0.69301 -1.25786,0 -0.66519,-0.60199 -1.10767,-0.64621 -2.14579,-0.25156 -0.77433,0.2944 -1.5185,0.32356 -1.83497,0.0739 -0.29388,-0.23185 -3.28099,-0.44419 -6.62962,-0.47354 -5.40408,-0.0475 -6.02167,0.0255 -5.49013,0.66593 0.42122,0.50755 0.45603,0.86095 0.10356,1.21347 -0.35252,0.35245 -0.59179,0.21128 -0.81389,-0.48833 -0.19116,-0.60244 -0.72077,-0.99733 -1.34662,-1.00628 -11.20699,-0.16406 -40.04265,0.39116 -40.68041,0.78427 -0.18379,0.1134 -0.19369,0.54919 -0.0293,0.9767 0.22433,0.58459 0.0929,0.70221 -0.50314,0.47354 -0.51928,-0.19925 -0.78432,-0.056 -0.78432,0.39953 0,0.38254 -0.21305,0.69554 -0.47354,0.69554 -0.6623,0 -0.59098,-1.11695 0.11829,-1.84975 0.48256,-0.49832 -0.0208,-0.55517 -2.72288,-0.32562 -4.76598,0.40499 -22.8807,1.61711 -24.97944,1.67223 -2.74665,0.0722 -3.17559,0.0715 -7.22154,-0.14795 -4.03925,-0.21906 -8.38722,0.0946 -8.07979,0.59192 0.10219,0.16541 -0.5999,0.21972 -1.55385,0.1183 -1.84526,-0.19603 -10.73794,-0.0835 -15.46419,0.19235 -1.5627,0.0912 -5.93114,0.29189 -9.70766,0.45877 -3.77652,0.16694 -7.03161,0.46965 -7.23632,0.6659 -0.20471,0.19605 -1.37291,0.21429 -2.58971,0.0299 -2.22855,-0.33821 -10.11833,-0.19979 -16.69244,0.29597 -1.95337,0.14745 -5.33283,0.23451 -7.5027,0.19236 -3.14095,-0.0608 -4.12271,0.0917 -4.839,0.7399 -0.74024,0.66987 -1.029,0.70416 -1.62785,0.20718 -0.54122,-0.44921 -1.85469,-0.52393 -5.10537,-0.28119 -4.35652,0.32543 -5.06787,0.34 -7.08839,0.20723 -0.93866,-0.0617 -3.85739,0.0741 -17.63952,0.81386 -1.82313,0.0978 -9.92069,0.284 -17.99467,0.39953 -17.66358,0.25279 -27.67194,0.63664 -30.5436,1.1987 -2.31785,0.45366 -21.43516,0.3027 -22.21214,-0.17758 -0.43652,-0.26974 -7.88063,-0.0589 -14.25074,0.41434 -1.43243,0.10644 -6.33367,0.32462 -10.89152,0.47354 -4.55788,0.14898 -11.07114,0.37823 -14.47264,0.51792 -3.40158,0.13982 -12.45812,0.34376 -20.12564,0.444 -8.90201,0.11626 -16.25067,0.46536 -20.33285,0.96187 -3.51603,0.42766 -10.01546,0.94755 -14.4431,1.16907 -4.76029,0.23815 -9.11458,0.72282 -10.65474,1.16905 -1.43243,0.41507 -3.33455,0.88378 -4.21749,1.05066 l -1.59819,0.31078 z"
         style="fill:#992222;fill-opacity:1" />
    </clipPath>
    <clipPath
       id="clipPath4522-1"
       clipPathUnits="userSpaceOnUse">
      <rect
         y="1153.7546"
         x="3620.6797"
         height="588.78345"
         width="1116.6582"
         id="rect4524-7"
         style="fill:#226699;fill-opacity:1;stroke:none" />
    </clipPath>
    <clipPath
       id="clipPath4522-2"
       clipPathUnits="userSpaceOnUse">
      <rect
         y="1153.7546"
         x="3620.6797"
         height="588.78345"
         width="1116.6582"
         id="rect4524-0"
         style="fill:#226699;fill-opacity:1;stroke:none" />
    </clipPath>
    <clipPath
       clipPathUnits="userSpaceOnUse"
       id="clipPath4522-8">
      <rect
         style="fill:#226699;fill-opacity:1;stroke:none"
         id="rect4524-8"
         width="1116.6582"
         height="588.78345"
         x="3620.6797"
         y="1153.7546" />
    </clipPath>
    <clipPath
       clipPathUnits="userSpaceOnUse"
       id="clipPath3858-6">
      <path
         style="fill:#992222;fill-opacity:1"
         d="m 396.03854,-957.67135 0.32555,-1.84982 c 0.17787,-1.01669 0.93607,-3.7676 1.68701,-6.11165 0.7509,-2.34405 1.58344,-6.17974 1.86458,-8.5238 0.48888,-4.07658 1.1063,-7.91359 1.59822,-9.94441 1.24167,-5.12642 2.16342,-17.96397 2.53046,-35.27907 0.16847,-7.9437 0.34219,-15.7216 0.3848,-17.2843 0.29541,-10.7974 0.2766,-15.7022 -0.1627,-31.4907 -0.27182,-9.7669 -0.59568,-30.7567 -0.71033,-46.6441 -0.21749,-30.1434 -0.34278,-33.9341 -1.50943,-45.2235 -1.52579,-14.7652 -2.10523,-22.4822 -2.5453,-33.9915 -0.25173,-6.5837 -0.58297,-12.1766 -0.7399,-12.4306 -0.31495,-0.5097 -0.34545,-16.0836 -0.0591,-28.6346 0.1178,-5.168 0.52478,-10.0196 1.13944,-13.5404 0.81164,-4.6489 0.89225,-6.1637 0.50319,-9.9444 -0.64924,-6.3078 0.15372,-20.0747 1.19863,-20.466 0.29629,-0.111 1.71953,-0.033 3.15201,0.1776 6.90237,1.0128 12.88171,1.366 27.93909,1.6278 8.98551,0.1562 18.25513,0.432 20.59918,0.6215 2.34408,0.1897 7.13871,0.1759 10.65475,-0.029 3.51606,-0.2055 9.16307,-0.2416 12.54892,-0.089 11.20168,0.5058 35.36389,0.4125 45.22346,-0.1776 5.33925,-0.3195 13.64996,-0.7907 18.46821,-1.0506 4.81831,-0.26 11.74395,-0.9145 15.39019,-1.4503 3.64629,-0.5357 8.12132,-1.1803 9.94443,-1.4354 6.28729,-0.8798 68.53983,-1.356 93.28817,-0.7103 17.23555,0.4497 21.53664,0.4736 47.59117,0.3107 10.32801,-0.065 18.5457,0.1124 21.3095,0.444 2.59099,0.3109 14.94065,0.6163 29.12296,0.7251 13.5434,0.1039 31.23022,0.3571 39.30416,0.5623 18.56812,0.4722 23.7916,0.471 40.72478,-0.015 9.37287,-0.2688 15.31792,-0.2237 18.74941,0.1333 5.89255,0.6129 35.94236,0.7254 42.81135,0.1627 2.60448,-0.2133 10.01083,-0.3895 16.45567,-0.3848 6.44483,0.01 11.77216,-0.1418 11.83859,-0.3255 0.0665,-0.1838 0.88501,-0.1563 1.83498,0.059 0.95012,0.2157 3.72029,0.2223 6.15608,0.015 2.43586,-0.2076 6.25078,-0.5021 8.4646,-0.6512 16.01826,-1.0788 34.62009,-2.5161 45.69701,-3.5367 2.6045,-0.2401 11.66097,-0.4513 20.12557,-0.4736 8.4646,-0.022 17.5211,-0.133 20.1256,-0.2367 2.6046,-0.1039 5.8433,0.021 7.2068,0.2663 1.5326,0.2759 3.4078,0.2709 4.8982,0 1.4546,-0.2645 3.094,-0.2594 4.1436,0 0.9567,0.2364 3.2859,0.4233 5.1793,0.4143 4.079,-0.019 3.6878,-0.5729 5.727,8.0355 1.8446,7.7871 2.4984,13.9158 2.353,22.2713 -0.066,3.7676 -0.1001,17.2933 -0.074,30.0553 0.042,20.939 0.1368,23.8276 1.0211,29.5965 0.5389,3.5161 1.2044,9.2697 1.4798,12.7857 0.2755,3.5161 0.934,8.95 1.4651,12.0754 0.5309,3.1254 1.4936,8.7724 2.1309,12.5489 0.6372,3.7765 1.7912,10.2759 2.5748,14.4431 1.36,7.2318 2.8503,16.9999 4.4543,29.3598 0.7864,6.0583 1.24,10.0029 2.4714,21.3094 0.4254,3.9068 1.0792,8.7014 1.4502,10.6548 0.371,1.9533 0.9803,8.3462 1.3615,14.2063 0.3811,5.8601 0.9204,14.1708 1.1986,18.4682 0.2781,4.2974 0.5743,15.4032 0.6511,24.6835 0.076,9.2803 0.2476,17.0582 0.3847,17.2843 0.2291,0.3776 0.5161,4.2521 1.0952,14.85749 0.1208,2.21382 0.3511,7.70102 0.5179,12.19375 l 0.3108,8.16865 -4.2176,0 c -2.3216,0 -4.9798,0.23459 -5.8897,0.51796 -0.9099,0.28323 -5.052,0.57966 -9.2193,0.6659 -9.8387,0.20367 -19.0647,0.57876 -33.3849,1.37622 -6.3809,0.35534 -11.9747,0.66513 -12.4305,0.68075 -4.2692,0.1461 -9.0519,0.092 -13.5256,-0.16288 -3.12157,-0.17774 -5.59057,-0.12541 -5.91927,0.13323 -0.8238,0.64822 -2.1501,0.52322 -2.4417,-0.23678 -0.3346,-0.87194 -5.4606,-0.66348 -5.4606,0.222 0,0.32708 0.2131,0.59194 0.4736,0.59194 0.2604,0 0.4735,0.24979 0.4735,0.56232 0,0.44196 -0.1351,0.44196 -0.5771,0 -0.3126,-0.31253 -1.1117,-0.59122 -1.7758,-0.62152 -0.8026,-0.0364 -0.9207,-0.12237 -0.37,-0.26636 0.4558,-0.11915 0.8287,-0.4057 0.8287,-0.6363 1e-4,-0.23176 -5.4558,-0.44125 -12.19371,-0.45878 -6.70658,-0.0175 -15.17715,-0.0336 -18.82345,-0.0446 -3.64621,-0.0102 -10.35873,-0.008 -14.91659,0.0153 -4.55786,0.0238 -12.01618,-0.29791 -16.57404,-0.71031 -14.26197,-1.2906 -15.62695,-1.33743 -15.62695,-0.68073 0,0.45276 -0.16136,0.46317 -0.6659,0.0446 -0.72615,-0.60262 -4.61403,-0.82484 -5.44577,-0.31078 -0.28815,0.17783 -0.76999,0.1622 -1.08024,-0.0293 -0.62779,-0.38797 -0.33267,-0.37503 -18.14272,-1.15426 -7.03214,-0.30767 -14.38393,-0.63393 -16.33728,-0.72514 -11.77197,-0.54954 -29.11776,-0.5966 -29.72966,-0.0888 -0.42611,0.35361 -0.77089,0.37705 -0.9767,0.0739 -0.17548,-0.25843 -1.16316,-0.44514 -2.20495,-0.41437 -1.04176,0.0308 -4.93075,0.0992 -8.6422,0.14797 -6.36636,0.0839 -6.74799,0.14151 -6.74799,1.02111 5e-5,0.64127 -0.22836,0.84172 -0.72509,0.65111 -0.56253,-0.21588 -0.60727,-0.4293 -0.17758,-0.94708 0.468,-0.56376 -0.13915,-0.64488 -4.01034,-0.57715 -2.59403,0.0454 -4.55787,0.27044 -4.55787,0.53273 0,0.28518 -0.22636,0.28731 -0.59193,-0.0152 -0.32551,-0.26903 -1.37905,-0.64951 -2.33808,-0.82871 -1.60617,-0.30011 -1.71924,-0.23472 -1.47983,0.68068 0.14288,0.54657 0.0398,0.9915 -0.222,0.9915 -0.26186,0 -0.45033,-0.37291 -0.41435,-0.8287 0.0608,-0.76708 -0.86633,-0.84419 -12.46012,-0.96186 -11.04661,-0.11221 -12.57652,-0.0431 -12.94846,0.6215 -0.38541,0.68866 -0.49216,0.69301 -1.25786,0 -0.66519,-0.60199 -1.10767,-0.64621 -2.14579,-0.25156 -0.77433,0.2944 -1.5185,0.32356 -1.83497,0.0739 -0.29388,-0.23185 -3.28099,-0.44419 -6.62962,-0.47354 -5.40408,-0.0475 -6.02167,0.0255 -5.49013,0.66593 0.42122,0.50755 0.45603,0.86095 0.10356,1.21347 -0.35252,0.35245 -0.59179,0.21128 -0.81389,-0.48833 -0.19116,-0.60244 -0.72077,-0.99733 -1.34662,-1.00628 -11.20699,-0.16406 -40.04265,0.39116 -40.68041,0.78427 -0.18379,0.1134 -0.19369,0.54919 -0.0293,0.9767 0.22433,0.58459 0.0929,0.70221 -0.50314,0.47354 -0.51928,-0.19925 -0.78432,-0.056 -0.78432,0.39953 0,0.38254 -0.21305,0.69554 -0.47354,0.69554 -0.6623,0 -0.59098,-1.11695 0.11829,-1.84975 0.48256,-0.49832 -0.0208,-0.55517 -2.72288,-0.32562 -4.76598,0.40499 -22.8807,1.61711 -24.97944,1.67223 -2.74665,0.0722 -3.17559,0.0715 -7.22154,-0.14795 -4.03925,-0.21906 -8.38722,0.0946 -8.07979,0.59192 0.10219,0.16541 -0.5999,0.21972 -1.55385,0.1183 -1.84526,-0.19603 -10.73794,-0.0835 -15.46419,0.19235 -1.5627,0.0912 -5.93114,0.29189 -9.70766,0.45877 -3.77652,0.16694 -7.03161,0.46965 -7.23632,0.6659 -0.20471,0.19605 -1.37291,0.21429 -2.58971,0.0299 -2.22855,-0.33821 -10.11833,-0.19979 -16.69244,0.29597 -1.95337,0.14745 -5.33283,0.23451 -7.5027,0.19236 -3.14095,-0.0608 -4.12271,0.0917 -4.839,0.7399 -0.74024,0.66987 -1.029,0.70416 -1.62785,0.20718 -0.54122,-0.44921 -1.85469,-0.52393 -5.10537,-0.28119 -4.35652,0.32543 -5.06787,0.34 -7.08839,0.20723 -0.93866,-0.0617 -3.85739,0.0741 -17.63952,0.81386 -1.82313,0.0978 -9.92069,0.284 -17.99467,0.39953 -17.66358,0.25279 -27.67194,0.63664 -30.5436,1.1987 -2.31785,0.45366 -21.43516,0.3027 -22.21214,-0.17758 -0.43652,-0.26974 -7.88063,-0.0589 -14.25074,0.41434 -1.43243,0.10644 -6.33367,0.32462 -10.89152,0.47354 -4.55788,0.14898 -11.07114,0.37823 -14.47264,0.51792 -3.40158,0.13982 -12.45812,0.34376 -20.12564,0.444 -8.90201,0.11626 -16.25067,0.46536 -20.33285,0.96187 -3.51603,0.42766 -10.01546,0.94755 -14.4431,1.16907 -4.76029,0.23815 -9.11458,0.72282 -10.65474,1.16905 -1.43243,0.41507 -3.33455,0.88378 -4.21749,1.05066 l -1.59819,0.31078 z"
         id="path3860-6"
         inkscape:connector-curvature="0" />
    </clipPath>
    <clipPath
       clipPathUnits="userSpaceOnUse"
       id="clipPath4522-6">
      <rect
         style="fill:#226699;fill-opacity:1;stroke:none"
         id="rect4524-4"
         width="1116.6582"
         height="588.78345"
         x="3620.6797"
         y="1153.7546" />
    </clipPath>
    <clipPath
       clipPathUnits="userSpaceOnUse"
       id="clipPath4522-2-8">
      <rect
         style="fill:#226699;fill-opacity:1;stroke:none"
         id="rect4524-0-8"
         width="1116.6582"
         height="588.78345"
         x="3620.6797"
         y="1153.7546" />
    </clipPath>
    <clipPath
       clipPathUnits="userSpaceOnUse"
       id="clipPath4522-1-5">
      <rect
         style="fill:#226699;fill-opacity:1;stroke:none"
         id="rect4524-7-8"
         width="1116.6582"
         height="588.78345"
         x="3620.6797"
         y="1153.7546" />
    </clipPath>
    <clipPath
       clipPathUnits="userSpaceOnUse"
       id="clipPath3858-1">
      <path
         style="fill:#992222;fill-opacity:1"
         d="m 396.03854,-957.67135 0.32555,-1.84982 c 0.17787,-1.01669 0.93607,-3.7676 1.68701,-6.11165 0.7509,-2.34405 1.58344,-6.17974 1.86458,-8.5238 0.48888,-4.07658 1.1063,-7.91359 1.59822,-9.94441 1.24167,-5.12642 2.16342,-17.96397 2.53046,-35.27907 0.16847,-7.9437 0.34219,-15.7216 0.3848,-17.2843 0.29541,-10.7974 0.2766,-15.7022 -0.1627,-31.4907 -0.27182,-9.7669 -0.59568,-30.7567 -0.71033,-46.6441 -0.21749,-30.1434 -0.34278,-33.9341 -1.50943,-45.2235 -1.52579,-14.7652 -2.10523,-22.4822 -2.5453,-33.9915 -0.25173,-6.5837 -0.58297,-12.1766 -0.7399,-12.4306 -0.31495,-0.5097 -0.34545,-16.0836 -0.0591,-28.6346 0.1178,-5.168 0.52478,-10.0196 1.13944,-13.5404 0.81164,-4.6489 0.89225,-6.1637 0.50319,-9.9444 -0.64924,-6.3078 0.15372,-20.0747 1.19863,-20.466 0.29629,-0.111 1.71953,-0.033 3.15201,0.1776 6.90237,1.0128 12.88171,1.366 27.93909,1.6278 8.98551,0.1562 18.25513,0.432 20.59918,0.6215 2.34408,0.1897 7.13871,0.1759 10.65475,-0.029 3.51606,-0.2055 9.16307,-0.2416 12.54892,-0.089 11.20168,0.5058 35.36389,0.4125 45.22346,-0.1776 5.33925,-0.3195 13.64996,-0.7907 18.46821,-1.0506 4.81831,-0.26 11.74395,-0.9145 15.39019,-1.4503 3.64629,-0.5357 8.12132,-1.1803 9.94443,-1.4354 6.28729,-0.8798 68.53983,-1.356 93.28817,-0.7103 17.23555,0.4497 21.53664,0.4736 47.59117,0.3107 10.32801,-0.065 18.5457,0.1124 21.3095,0.444 2.59099,0.3109 14.94065,0.6163 29.12296,0.7251 13.5434,0.1039 31.23022,0.3571 39.30416,0.5623 18.56812,0.4722 23.7916,0.471 40.72478,-0.015 9.37287,-0.2688 15.31792,-0.2237 18.74941,0.1333 5.89255,0.6129 35.94236,0.7254 42.81135,0.1627 2.60448,-0.2133 10.01083,-0.3895 16.45567,-0.3848 6.44483,0.01 11.77216,-0.1418 11.83859,-0.3255 0.0665,-0.1838 0.88501,-0.1563 1.83498,0.059 0.95012,0.2157 3.72029,0.2223 6.15608,0.015 2.43586,-0.2076 6.25078,-0.5021 8.4646,-0.6512 16.01826,-1.0788 34.62009,-2.5161 45.69701,-3.5367 2.6045,-0.2401 11.66097,-0.4513 20.12557,-0.4736 8.4646,-0.022 17.5211,-0.133 20.1256,-0.2367 2.6046,-0.1039 5.8433,0.021 7.2068,0.2663 1.5326,0.2759 3.4078,0.2709 4.8982,0 1.4546,-0.2645 3.094,-0.2594 4.1436,0 0.9567,0.2364 3.2859,0.4233 5.1793,0.4143 4.079,-0.019 3.6878,-0.5729 5.727,8.0355 1.8446,7.7871 2.4984,13.9158 2.353,22.2713 -0.066,3.7676 -0.1001,17.2933 -0.074,30.0553 0.042,20.939 0.1368,23.8276 1.0211,29.5965 0.5389,3.5161 1.2044,9.2697 1.4798,12.7857 0.2755,3.5161 0.934,8.95 1.4651,12.0754 0.5309,3.1254 1.4936,8.7724 2.1309,12.5489 0.6372,3.7765 1.7912,10.2759 2.5748,14.4431 1.36,7.2318 2.8503,16.9999 4.4543,29.3598 0.7864,6.0583 1.24,10.0029 2.4714,21.3094 0.4254,3.9068 1.0792,8.7014 1.4502,10.6548 0.371,1.9533 0.9803,8.3462 1.3615,14.2063 0.3811,5.8601 0.9204,14.1708 1.1986,18.4682 0.2781,4.2974 0.5743,15.4032 0.6511,24.6835 0.076,9.2803 0.2476,17.0582 0.3847,17.2843 0.2291,0.3776 0.5161,4.2521 1.0952,14.85749 0.1208,2.21382 0.3511,7.70102 0.5179,12.19375 l 0.3108,8.16865 -4.2176,0 c -2.3216,0 -4.9798,0.23459 -5.8897,0.51796 -0.9099,0.28323 -5.052,0.57966 -9.2193,0.6659 -9.8387,0.20367 -19.0647,0.57876 -33.3849,1.37622 -6.3809,0.35534 -11.9747,0.66513 -12.4305,0.68075 -4.2692,0.1461 -9.0519,0.092 -13.5256,-0.16288 -3.12157,-0.17774 -5.59057,-0.12541 -5.91927,0.13323 -0.8238,0.64822 -2.1501,0.52322 -2.4417,-0.23678 -0.3346,-0.87194 -5.4606,-0.66348 -5.4606,0.222 0,0.32708 0.2131,0.59194 0.4736,0.59194 0.2604,0 0.4735,0.24979 0.4735,0.56232 0,0.44196 -0.1351,0.44196 -0.5771,0 -0.3126,-0.31253 -1.1117,-0.59122 -1.7758,-0.62152 -0.8026,-0.0364 -0.9207,-0.12237 -0.37,-0.26636 0.4558,-0.11915 0.8287,-0.4057 0.8287,-0.6363 1e-4,-0.23176 -5.4558,-0.44125 -12.19371,-0.45878 -6.70658,-0.0175 -15.17715,-0.0336 -18.82345,-0.0446 -3.64621,-0.0102 -10.35873,-0.008 -14.91659,0.0153 -4.55786,0.0238 -12.01618,-0.29791 -16.57404,-0.71031 -14.26197,-1.2906 -15.62695,-1.33743 -15.62695,-0.68073 0,0.45276 -0.16136,0.46317 -0.6659,0.0446 -0.72615,-0.60262 -4.61403,-0.82484 -5.44577,-0.31078 -0.28815,0.17783 -0.76999,0.1622 -1.08024,-0.0293 -0.62779,-0.38797 -0.33267,-0.37503 -18.14272,-1.15426 -7.03214,-0.30767 -14.38393,-0.63393 -16.33728,-0.72514 -11.77197,-0.54954 -29.11776,-0.5966 -29.72966,-0.0888 -0.42611,0.35361 -0.77089,0.37705 -0.9767,0.0739 -0.17548,-0.25843 -1.16316,-0.44514 -2.20495,-0.41437 -1.04176,0.0308 -4.93075,0.0992 -8.6422,0.14797 -6.36636,0.0839 -6.74799,0.14151 -6.74799,1.02111 5e-5,0.64127 -0.22836,0.84172 -0.72509,0.65111 -0.56253,-0.21588 -0.60727,-0.4293 -0.17758,-0.94708 0.468,-0.56376 -0.13915,-0.64488 -4.01034,-0.57715 -2.59403,0.0454 -4.55787,0.27044 -4.55787,0.53273 0,0.28518 -0.22636,0.28731 -0.59193,-0.0152 -0.32551,-0.26903 -1.37905,-0.64951 -2.33808,-0.82871 -1.60617,-0.30011 -1.71924,-0.23472 -1.47983,0.68068 0.14288,0.54657 0.0398,0.9915 -0.222,0.9915 -0.26186,0 -0.45033,-0.37291 -0.41435,-0.8287 0.0608,-0.76708 -0.86633,-0.84419 -12.46012,-0.96186 -11.04661,-0.11221 -12.57652,-0.0431 -12.94846,0.6215 -0.38541,0.68866 -0.49216,0.69301 -1.25786,0 -0.66519,-0.60199 -1.10767,-0.64621 -2.14579,-0.25156 -0.77433,0.2944 -1.5185,0.32356 -1.83497,0.0739 -0.29388,-0.23185 -3.28099,-0.44419 -6.62962,-0.47354 -5.40408,-0.0475 -6.02167,0.0255 -5.49013,0.66593 0.42122,0.50755 0.45603,0.86095 0.10356,1.21347 -0.35252,0.35245 -0.59179,0.21128 -0.81389,-0.48833 -0.19116,-0.60244 -0.72077,-0.99733 -1.34662,-1.00628 -11.20699,-0.16406 -40.04265,0.39116 -40.68041,0.78427 -0.18379,0.1134 -0.19369,0.54919 -0.0293,0.9767 0.22433,0.58459 0.0929,0.70221 -0.50314,0.47354 -0.51928,-0.19925 -0.78432,-0.056 -0.78432,0.39953 0,0.38254 -0.21305,0.69554 -0.47354,0.69554 -0.6623,0 -0.59098,-1.11695 0.11829,-1.84975 0.48256,-0.49832 -0.0208,-0.55517 -2.72288,-0.32562 -4.76598,0.40499 -22.8807,1.61711 -24.97944,1.67223 -2.74665,0.0722 -3.17559,0.0715 -7.22154,-0.14795 -4.03925,-0.21906 -8.38722,0.0946 -8.07979,0.59192 0.10219,0.16541 -0.5999,0.21972 -1.55385,0.1183 -1.84526,-0.19603 -10.73794,-0.0835 -15.46419,0.19235 -1.5627,0.0912 -5.93114,0.29189 -9.70766,0.45877 -3.77652,0.16694 -7.03161,0.46965 -7.23632,0.6659 -0.20471,0.19605 -1.37291,0.21429 -2.58971,0.0299 -2.22855,-0.33821 -10.11833,-0.19979 -16.69244,0.29597 -1.95337,0.14745 -5.33283,0.23451 -7.5027,0.19236 -3.14095,-0.0608 -4.12271,0.0917 -4.839,0.7399 -0.74024,0.66987 -1.029,0.70416 -1.62785,0.20718 -0.54122,-0.44921 -1.85469,-0.52393 -5.10537,-0.28119 -4.35652,0.32543 -5.06787,0.34 -7.08839,0.20723 -0.93866,-0.0617 -3.85739,0.0741 -17.63952,0.81386 -1.82313,0.0978 -9.92069,0.284 -17.99467,0.39953 -17.66358,0.25279 -27.67194,0.63664 -30.5436,1.1987 -2.31785,0.45366 -21.43516,0.3027 -22.21214,-0.17758 -0.43652,-0.26974 -7.88063,-0.0589 -14.25074,0.41434 -1.43243,0.10644 -6.33367,0.32462 -10.89152,0.47354 -4.55788,0.14898 -11.07114,0.37823 -14.47264,0.51792 -3.40158,0.13982 -12.45812,0.34376 -20.12564,0.444 -8.90201,0.11626 -16.25067,0.46536 -20.33285,0.96187 -3.51603,0.42766 -10.01546,0.94755 -14.4431,1.16907 -4.76029,0.23815 -9.11458,0.72282 -10.65474,1.16905 -1.43243,0.41507 -3.33455,0.88378 -4.21749,1.05066 l -1.59819,0.31078 z"
         id="path3860-7"
         inkscape:connector-curvature="0" />
    </clipPath>
    <radialGradient
       cx="127.5"
       cy="78.099998"
       r="99"
       id="cb-4"
       fx="127.5"
       fy="78.099998"
       gradientUnits="userSpaceOnUse">
      <stop
         id="stop3187-5"
         stop-color="#F6F0EE"
         offset="0" />
      <stop
         id="stop3189-0"
         stop-color="#ddd"
         offset="1" />
    </radialGradient>
    <radialGradient
       id="cf-9"
       spreadMethod="pad"
       cx="127.5"
       cy="78.099998"
       r="99"
       fx="127.5"
       fy="78.099998"
       gradientUnits="userSpaceOnUse">
      <stop
         id="stop3182-1"
         stop-color="#7FB3DF"
         offset="0.1" />
      <stop
         id="stop3184-0"
         stop-color="#0F5B94"
         offset="0.9" />
    </radialGradient>
    <radialGradient
       id="y-0"
       cx="187.90098"
       cy="102.2451"
       r="111.5125"
       gradientTransform="scale(0.86406979,1.1573139)"
       fx="187.90098"
       fy="102.2451"
       gradientUnits="userSpaceOnUse">
      <stop
         id="stop3175-6"
         stop-color="#FCD209"
         offset="0.6" />
      <stop
         id="stop3177-2"
         stop-color="#f7c616"
         offset="0.7" />
      <stop
         id="stop3179-6"
         stop-color="#bc821e"
         offset="1" />
    </radialGradient>
    <radialGradient
       id="g-7"
       cx="122.26707"
       cy="108.80645"
       r="122.76932"
       gradientTransform="scale(0.92838267,1.077142)"
       fx="122.26707"
       fy="108.80645"
       gradientUnits="userSpaceOnUse">
      <stop
         id="stop3170-8"
         stop-color="#4cb749"
         offset="0.65" />
      <stop
         id="stop3172-2"
         stop-color="#388b41"
         offset="1" />
    </radialGradient>
    <radialGradient
       id="r-4"
       cx="106.73546"
       cy="19.524991"
       gradientTransform="scale(1.2320179,0.81167652)"
       fx="106.73546"
       fy="19.524991"
       r="78.326784"
       gradientUnits="userSpaceOnUse">
      <stop
         id="stop3165-3"
         stop-color="#f06b59" />
      <stop
         id="stop3167-4"
         stop-color="#df2227"
         offset="1" />
    </radialGradient>
    <clipPath
       id="clipPath4522-28"
       clipPathUnits="userSpaceOnUse">
      <rect
         y="1153.7546"
         x="3620.6797"
         height="588.78345"
         width="1116.6582"
         id="rect4524-3"
         style="fill:#226699;fill-opacity:1;stroke:none" />
    </clipPath>
    <clipPath
       id="clipPath3858-2"
       clipPathUnits="userSpaceOnUse">
      <path
         inkscape:connector-curvature="0"
         id="path3860-5"
         d="m 396.03854,-957.67135 0.32555,-1.84982 c 0.17787,-1.01669 0.93607,-3.7676 1.68701,-6.11165 0.7509,-2.34405 1.58344,-6.17974 1.86458,-8.5238 0.48888,-4.07658 1.1063,-7.91359 1.59822,-9.94441 1.24167,-5.12642 2.16342,-17.96397 2.53046,-35.27907 0.16847,-7.9437 0.34219,-15.7216 0.3848,-17.2843 0.29541,-10.7974 0.2766,-15.7022 -0.1627,-31.4907 -0.27182,-9.7669 -0.59568,-30.7567 -0.71033,-46.6441 -0.21749,-30.1434 -0.34278,-33.9341 -1.50943,-45.2235 -1.52579,-14.7652 -2.10523,-22.4822 -2.5453,-33.9915 -0.25173,-6.5837 -0.58297,-12.1766 -0.7399,-12.4306 -0.31495,-0.5097 -0.34545,-16.0836 -0.0591,-28.6346 0.1178,-5.168 0.52478,-10.0196 1.13944,-13.5404 0.81164,-4.6489 0.89225,-6.1637 0.50319,-9.9444 -0.64924,-6.3078 0.15372,-20.0747 1.19863,-20.466 0.29629,-0.111 1.71953,-0.033 3.15201,0.1776 6.90237,1.0128 12.88171,1.366 27.93909,1.6278 8.98551,0.1562 18.25513,0.432 20.59918,0.6215 2.34408,0.1897 7.13871,0.1759 10.65475,-0.029 3.51606,-0.2055 9.16307,-0.2416 12.54892,-0.089 11.20168,0.5058 35.36389,0.4125 45.22346,-0.1776 5.33925,-0.3195 13.64996,-0.7907 18.46821,-1.0506 4.81831,-0.26 11.74395,-0.9145 15.39019,-1.4503 3.64629,-0.5357 8.12132,-1.1803 9.94443,-1.4354 6.28729,-0.8798 68.53983,-1.356 93.28817,-0.7103 17.23555,0.4497 21.53664,0.4736 47.59117,0.3107 10.32801,-0.065 18.5457,0.1124 21.3095,0.444 2.59099,0.3109 14.94065,0.6163 29.12296,0.7251 13.5434,0.1039 31.23022,0.3571 39.30416,0.5623 18.56812,0.4722 23.7916,0.471 40.72478,-0.015 9.37287,-0.2688 15.31792,-0.2237 18.74941,0.1333 5.89255,0.6129 35.94236,0.7254 42.81135,0.1627 2.60448,-0.2133 10.01083,-0.3895 16.45567,-0.3848 6.44483,0.01 11.77216,-0.1418 11.83859,-0.3255 0.0665,-0.1838 0.88501,-0.1563 1.83498,0.059 0.95012,0.2157 3.72029,0.2223 6.15608,0.015 2.43586,-0.2076 6.25078,-0.5021 8.4646,-0.6512 16.01826,-1.0788 34.62009,-2.5161 45.69701,-3.5367 2.6045,-0.2401 11.66097,-0.4513 20.12557,-0.4736 8.4646,-0.022 17.5211,-0.133 20.1256,-0.2367 2.6046,-0.1039 5.8433,0.021 7.2068,0.2663 1.5326,0.2759 3.4078,0.2709 4.8982,0 1.4546,-0.2645 3.094,-0.2594 4.1436,0 0.9567,0.2364 3.2859,0.4233 5.1793,0.4143 4.079,-0.019 3.6878,-0.5729 5.727,8.0355 1.8446,7.7871 2.4984,13.9158 2.353,22.2713 -0.066,3.7676 -0.1001,17.2933 -0.074,30.0553 0.042,20.939 0.1368,23.8276 1.0211,29.5965 0.5389,3.5161 1.2044,9.2697 1.4798,12.7857 0.2755,3.5161 0.934,8.95 1.4651,12.0754 0.5309,3.1254 1.4936,8.7724 2.1309,12.5489 0.6372,3.7765 1.7912,10.2759 2.5748,14.4431 1.36,7.2318 2.8503,16.9999 4.4543,29.3598 0.7864,6.0583 1.24,10.0029 2.4714,21.3094 0.4254,3.9068 1.0792,8.7014 1.4502,10.6548 0.371,1.9533 0.9803,8.3462 1.3615,14.2063 0.3811,5.8601 0.9204,14.1708 1.1986,18.4682 0.2781,4.2974 0.5743,15.4032 0.6511,24.6835 0.076,9.2803 0.2476,17.0582 0.3847,17.2843 0.2291,0.3776 0.5161,4.2521 1.0952,14.85749 0.1208,2.21382 0.3511,7.70102 0.5179,12.19375 l 0.3108,8.16865 -4.2176,0 c -2.3216,0 -4.9798,0.23459 -5.8897,0.51796 -0.9099,0.28323 -5.052,0.57966 -9.2193,0.6659 -9.8387,0.20367 -19.0647,0.57876 -33.3849,1.37622 -6.3809,0.35534 -11.9747,0.66513 -12.4305,0.68075 -4.2692,0.1461 -9.0519,0.092 -13.5256,-0.16288 -3.12157,-0.17774 -5.59057,-0.12541 -5.91927,0.13323 -0.8238,0.64822 -2.1501,0.52322 -2.4417,-0.23678 -0.3346,-0.87194 -5.4606,-0.66348 -5.4606,0.222 0,0.32708 0.2131,0.59194 0.4736,0.59194 0.2604,0 0.4735,0.24979 0.4735,0.56232 0,0.44196 -0.1351,0.44196 -0.5771,0 -0.3126,-0.31253 -1.1117,-0.59122 -1.7758,-0.62152 -0.8026,-0.0364 -0.9207,-0.12237 -0.37,-0.26636 0.4558,-0.11915 0.8287,-0.4057 0.8287,-0.6363 1e-4,-0.23176 -5.4558,-0.44125 -12.19371,-0.45878 -6.70658,-0.0175 -15.17715,-0.0336 -18.82345,-0.0446 -3.64621,-0.0102 -10.35873,-0.008 -14.91659,0.0153 -4.55786,0.0238 -12.01618,-0.29791 -16.57404,-0.71031 -14.26197,-1.2906 -15.62695,-1.33743 -15.62695,-0.68073 0,0.45276 -0.16136,0.46317 -0.6659,0.0446 -0.72615,-0.60262 -4.61403,-0.82484 -5.44577,-0.31078 -0.28815,0.17783 -0.76999,0.1622 -1.08024,-0.0293 -0.62779,-0.38797 -0.33267,-0.37503 -18.14272,-1.15426 -7.03214,-0.30767 -14.38393,-0.63393 -16.33728,-0.72514 -11.77197,-0.54954 -29.11776,-0.5966 -29.72966,-0.0888 -0.42611,0.35361 -0.77089,0.37705 -0.9767,0.0739 -0.17548,-0.25843 -1.16316,-0.44514 -2.20495,-0.41437 -1.04176,0.0308 -4.93075,0.0992 -8.6422,0.14797 -6.36636,0.0839 -6.74799,0.14151 -6.74799,1.02111 5e-5,0.64127 -0.22836,0.84172 -0.72509,0.65111 -0.56253,-0.21588 -0.60727,-0.4293 -0.17758,-0.94708 0.468,-0.56376 -0.13915,-0.64488 -4.01034,-0.57715 -2.59403,0.0454 -4.55787,0.27044 -4.55787,0.53273 0,0.28518 -0.22636,0.28731 -0.59193,-0.0152 -0.32551,-0.26903 -1.37905,-0.64951 -2.33808,-0.82871 -1.60617,-0.30011 -1.71924,-0.23472 -1.47983,0.68068 0.14288,0.54657 0.0398,0.9915 -0.222,0.9915 -0.26186,0 -0.45033,-0.37291 -0.41435,-0.8287 0.0608,-0.76708 -0.86633,-0.84419 -12.46012,-0.96186 -11.04661,-0.11221 -12.57652,-0.0431 -12.94846,0.6215 -0.38541,0.68866 -0.49216,0.69301 -1.25786,0 -0.66519,-0.60199 -1.10767,-0.64621 -2.14579,-0.25156 -0.77433,0.2944 -1.5185,0.32356 -1.83497,0.0739 -0.29388,-0.23185 -3.28099,-0.44419 -6.62962,-0.47354 -5.40408,-0.0475 -6.02167,0.0255 -5.49013,0.66593 0.42122,0.50755 0.45603,0.86095 0.10356,1.21347 -0.35252,0.35245 -0.59179,0.21128 -0.81389,-0.48833 -0.19116,-0.60244 -0.72077,-0.99733 -1.34662,-1.00628 -11.20699,-0.16406 -40.04265,0.39116 -40.68041,0.78427 -0.18379,0.1134 -0.19369,0.54919 -0.0293,0.9767 0.22433,0.58459 0.0929,0.70221 -0.50314,0.47354 -0.51928,-0.19925 -0.78432,-0.056 -0.78432,0.39953 0,0.38254 -0.21305,0.69554 -0.47354,0.69554 -0.6623,0 -0.59098,-1.11695 0.11829,-1.84975 0.48256,-0.49832 -0.0208,-0.55517 -2.72288,-0.32562 -4.76598,0.40499 -22.8807,1.61711 -24.97944,1.67223 -2.74665,0.0722 -3.17559,0.0715 -7.22154,-0.14795 -4.03925,-0.21906 -8.38722,0.0946 -8.07979,0.59192 0.10219,0.16541 -0.5999,0.21972 -1.55385,0.1183 -1.84526,-0.19603 -10.73794,-0.0835 -15.46419,0.19235 -1.5627,0.0912 -5.93114,0.29189 -9.70766,0.45877 -3.77652,0.16694 -7.03161,0.46965 -7.23632,0.6659 -0.20471,0.19605 -1.37291,0.21429 -2.58971,0.0299 -2.22855,-0.33821 -10.11833,-0.19979 -16.69244,0.29597 -1.95337,0.14745 -5.33283,0.23451 -7.5027,0.19236 -3.14095,-0.0608 -4.12271,0.0917 -4.839,0.7399 -0.74024,0.66987 -1.029,0.70416 -1.62785,0.20718 -0.54122,-0.44921 -1.85469,-0.52393 -5.10537,-0.28119 -4.35652,0.32543 -5.06787,0.34 -7.08839,0.20723 -0.93866,-0.0617 -3.85739,0.0741 -17.63952,0.81386 -1.82313,0.0978 -9.92069,0.284 -17.99467,0.39953 -17.66358,0.25279 -27.67194,0.63664 -30.5436,1.1987 -2.31785,0.45366 -21.43516,0.3027 -22.21214,-0.17758 -0.43652,-0.26974 -7.88063,-0.0589 -14.25074,0.41434 -1.43243,0.10644 -6.33367,0.32462 -10.89152,0.47354 -4.55788,0.14898 -11.07114,0.37823 -14.47264,0.51792 -3.40158,0.13982 -12.45812,0.34376 -20.12564,0.444 -8.90201,0.11626 -16.25067,0.46536 -20.33285,0.96187 -3.51603,0.42766 -10.01546,0.94755 -14.4431,1.16907 -4.76029,0.23815 -9.11458,0.72282 -10.65474,1.16905 -1.43243,0.41507 -3.33455,0.88378 -4.21749,1.05066 l -1.59819,0.31078 z"
         style="fill:#992222;fill-opacity:1" />
    </clipPath>
    <clipPath
       id="clipPath4522-5"
       clipPathUnits="userSpaceOnUse">
      <rect
         y="1153.7546"
         x="3620.6797"
         height="588.78345"
         width="1116.6582"
         id="rect4524-5"
         style="fill:#226699;fill-opacity:1;stroke:none" />
    </clipPath>
    <clipPath
       clipPathUnits="userSpaceOnUse"
       id="clipPath4522-2-5">
      <rect
         style="fill:#226699;fill-opacity:1;stroke:none"
         id="rect4524-0-5"
         width="1116.6582"
         height="588.78345"
         x="3620.6797"
         y="1153.7546" />
    </clipPath>
    <clipPath
       clipPathUnits="userSpaceOnUse"
       id="clipPath4522-1-4">
      <rect
         style="fill:#226699;fill-opacity:1;stroke:none"
         id="rect4524-7-4"
         width="1116.6582"
         height="588.78345"
         x="3620.6797"
         y="1153.7546" />
    </clipPath>
    <clipPath
       clipPathUnits="userSpaceOnUse"
       id="clipPath3858-60">
      <path
         style="fill:#992222;fill-opacity:1"
         d="m 396.03854,-957.67135 0.32555,-1.84982 c 0.17787,-1.01669 0.93607,-3.7676 1.68701,-6.11165 0.7509,-2.34405 1.58344,-6.17974 1.86458,-8.5238 0.48888,-4.07658 1.1063,-7.91359 1.59822,-9.94441 1.24167,-5.12642 2.16342,-17.96397 2.53046,-35.27907 0.16847,-7.9437 0.34219,-15.7216 0.3848,-17.2843 0.29541,-10.7974 0.2766,-15.7022 -0.1627,-31.4907 -0.27182,-9.7669 -0.59568,-30.7567 -0.71033,-46.6441 -0.21749,-30.1434 -0.34278,-33.9341 -1.50943,-45.2235 -1.52579,-14.7652 -2.10523,-22.4822 -2.5453,-33.9915 -0.25173,-6.5837 -0.58297,-12.1766 -0.7399,-12.4306 -0.31495,-0.5097 -0.34545,-16.0836 -0.0591,-28.6346 0.1178,-5.168 0.52478,-10.0196 1.13944,-13.5404 0.81164,-4.6489 0.89225,-6.1637 0.50319,-9.9444 -0.64924,-6.3078 0.15372,-20.0747 1.19863,-20.466 0.29629,-0.111 1.71953,-0.033 3.15201,0.1776 6.90237,1.0128 12.88171,1.366 27.93909,1.6278 8.98551,0.1562 18.25513,0.432 20.59918,0.6215 2.34408,0.1897 7.13871,0.1759 10.65475,-0.029 3.51606,-0.2055 9.16307,-0.2416 12.54892,-0.089 11.20168,0.5058 35.36389,0.4125 45.22346,-0.1776 5.33925,-0.3195 13.64996,-0.7907 18.46821,-1.0506 4.81831,-0.26 11.74395,-0.9145 15.39019,-1.4503 3.64629,-0.5357 8.12132,-1.1803 9.94443,-1.4354 6.28729,-0.8798 68.53983,-1.356 93.28817,-0.7103 17.23555,0.4497 21.53664,0.4736 47.59117,0.3107 10.32801,-0.065 18.5457,0.1124 21.3095,0.444 2.59099,0.3109 14.94065,0.6163 29.12296,0.7251 13.5434,0.1039 31.23022,0.3571 39.30416,0.5623 18.56812,0.4722 23.7916,0.471 40.72478,-0.015 9.37287,-0.2688 15.31792,-0.2237 18.74941,0.1333 5.89255,0.6129 35.94236,0.7254 42.81135,0.1627 2.60448,-0.2133 10.01083,-0.3895 16.45567,-0.3848 6.44483,0.01 11.77216,-0.1418 11.83859,-0.3255 0.0665,-0.1838 0.88501,-0.1563 1.83498,0.059 0.95012,0.2157 3.72029,0.2223 6.15608,0.015 2.43586,-0.2076 6.25078,-0.5021 8.4646,-0.6512 16.01826,-1.0788 34.62009,-2.5161 45.69701,-3.5367 2.6045,-0.2401 11.66097,-0.4513 20.12557,-0.4736 8.4646,-0.022 17.5211,-0.133 20.1256,-0.2367 2.6046,-0.1039 5.8433,0.021 7.2068,0.2663 1.5326,0.2759 3.4078,0.2709 4.8982,0 1.4546,-0.2645 3.094,-0.2594 4.1436,0 0.9567,0.2364 3.2859,0.4233 5.1793,0.4143 4.079,-0.019 3.6878,-0.5729 5.727,8.0355 1.8446,7.7871 2.4984,13.9158 2.353,22.2713 -0.066,3.7676 -0.1001,17.2933 -0.074,30.0553 0.042,20.939 0.1368,23.8276 1.0211,29.5965 0.5389,3.5161 1.2044,9.2697 1.4798,12.7857 0.2755,3.5161 0.934,8.95 1.4651,12.0754 0.5309,3.1254 1.4936,8.7724 2.1309,12.5489 0.6372,3.7765 1.7912,10.2759 2.5748,14.4431 1.36,7.2318 2.8503,16.9999 4.4543,29.3598 0.7864,6.0583 1.24,10.0029 2.4714,21.3094 0.4254,3.9068 1.0792,8.7014 1.4502,10.6548 0.371,1.9533 0.9803,8.3462 1.3615,14.2063 0.3811,5.8601 0.9204,14.1708 1.1986,18.4682 0.2781,4.2974 0.5743,15.4032 0.6511,24.6835 0.076,9.2803 0.2476,17.0582 0.3847,17.2843 0.2291,0.3776 0.5161,4.2521 1.0952,14.85749 0.1208,2.21382 0.3511,7.70102 0.5179,12.19375 l 0.3108,8.16865 -4.2176,0 c -2.3216,0 -4.9798,0.23459 -5.8897,0.51796 -0.9099,0.28323 -5.052,0.57966 -9.2193,0.6659 -9.8387,0.20367 -19.0647,0.57876 -33.3849,1.37622 -6.3809,0.35534 -11.9747,0.66513 -12.4305,0.68075 -4.2692,0.1461 -9.0519,0.092 -13.5256,-0.16288 -3.12157,-0.17774 -5.59057,-0.12541 -5.91927,0.13323 -0.8238,0.64822 -2.1501,0.52322 -2.4417,-0.23678 -0.3346,-0.87194 -5.4606,-0.66348 -5.4606,0.222 0,0.32708 0.2131,0.59194 0.4736,0.59194 0.2604,0 0.4735,0.24979 0.4735,0.56232 0,0.44196 -0.1351,0.44196 -0.5771,0 -0.3126,-0.31253 -1.1117,-0.59122 -1.7758,-0.62152 -0.8026,-0.0364 -0.9207,-0.12237 -0.37,-0.26636 0.4558,-0.11915 0.8287,-0.4057 0.8287,-0.6363 1e-4,-0.23176 -5.4558,-0.44125 -12.19371,-0.45878 -6.70658,-0.0175 -15.17715,-0.0336 -18.82345,-0.0446 -3.64621,-0.0102 -10.35873,-0.008 -14.91659,0.0153 -4.55786,0.0238 -12.01618,-0.29791 -16.57404,-0.71031 -14.26197,-1.2906 -15.62695,-1.33743 -15.62695,-0.68073 0,0.45276 -0.16136,0.46317 -0.6659,0.0446 -0.72615,-0.60262 -4.61403,-0.82484 -5.44577,-0.31078 -0.28815,0.17783 -0.76999,0.1622 -1.08024,-0.0293 -0.62779,-0.38797 -0.33267,-0.37503 -18.14272,-1.15426 -7.03214,-0.30767 -14.38393,-0.63393 -16.33728,-0.72514 -11.77197,-0.54954 -29.11776,-0.5966 -29.72966,-0.0888 -0.42611,0.35361 -0.77089,0.37705 -0.9767,0.0739 -0.17548,-0.25843 -1.16316,-0.44514 -2.20495,-0.41437 -1.04176,0.0308 -4.93075,0.0992 -8.6422,0.14797 -6.36636,0.0839 -6.74799,0.14151 -6.74799,1.02111 5e-5,0.64127 -0.22836,0.84172 -0.72509,0.65111 -0.56253,-0.21588 -0.60727,-0.4293 -0.17758,-0.94708 0.468,-0.56376 -0.13915,-0.64488 -4.01034,-0.57715 -2.59403,0.0454 -4.55787,0.27044 -4.55787,0.53273 0,0.28518 -0.22636,0.28731 -0.59193,-0.0152 -0.32551,-0.26903 -1.37905,-0.64951 -2.33808,-0.82871 -1.60617,-0.30011 -1.71924,-0.23472 -1.47983,0.68068 0.14288,0.54657 0.0398,0.9915 -0.222,0.9915 -0.26186,0 -0.45033,-0.37291 -0.41435,-0.8287 0.0608,-0.76708 -0.86633,-0.84419 -12.46012,-0.96186 -11.04661,-0.11221 -12.57652,-0.0431 -12.94846,0.6215 -0.38541,0.68866 -0.49216,0.69301 -1.25786,0 -0.66519,-0.60199 -1.10767,-0.64621 -2.14579,-0.25156 -0.77433,0.2944 -1.5185,0.32356 -1.83497,0.0739 -0.29388,-0.23185 -3.28099,-0.44419 -6.62962,-0.47354 -5.40408,-0.0475 -6.02167,0.0255 -5.49013,0.66593 0.42122,0.50755 0.45603,0.86095 0.10356,1.21347 -0.35252,0.35245 -0.59179,0.21128 -0.81389,-0.48833 -0.19116,-0.60244 -0.72077,-0.99733 -1.34662,-1.00628 -11.20699,-0.16406 -40.04265,0.39116 -40.68041,0.78427 -0.18379,0.1134 -0.19369,0.54919 -0.0293,0.9767 0.22433,0.58459 0.0929,0.70221 -0.50314,0.47354 -0.51928,-0.19925 -0.78432,-0.056 -0.78432,0.39953 0,0.38254 -0.21305,0.69554 -0.47354,0.69554 -0.6623,0 -0.59098,-1.11695 0.11829,-1.84975 0.48256,-0.49832 -0.0208,-0.55517 -2.72288,-0.32562 -4.76598,0.40499 -22.8807,1.61711 -24.97944,1.67223 -2.74665,0.0722 -3.17559,0.0715 -7.22154,-0.14795 -4.03925,-0.21906 -8.38722,0.0946 -8.07979,0.59192 0.10219,0.16541 -0.5999,0.21972 -1.55385,0.1183 -1.84526,-0.19603 -10.73794,-0.0835 -15.46419,0.19235 -1.5627,0.0912 -5.93114,0.29189 -9.70766,0.45877 -3.77652,0.16694 -7.03161,0.46965 -7.23632,0.6659 -0.20471,0.19605 -1.37291,0.21429 -2.58971,0.0299 -2.22855,-0.33821 -10.11833,-0.19979 -16.69244,0.29597 -1.95337,0.14745 -5.33283,0.23451 -7.5027,0.19236 -3.14095,-0.0608 -4.12271,0.0917 -4.839,0.7399 -0.74024,0.66987 -1.029,0.70416 -1.62785,0.20718 -0.54122,-0.44921 -1.85469,-0.52393 -5.10537,-0.28119 -4.35652,0.32543 -5.06787,0.34 -7.08839,0.20723 -0.93866,-0.0617 -3.85739,0.0741 -17.63952,0.81386 -1.82313,0.0978 -9.92069,0.284 -17.99467,0.39953 -17.66358,0.25279 -27.67194,0.63664 -30.5436,1.1987 -2.31785,0.45366 -21.43516,0.3027 -22.21214,-0.17758 -0.43652,-0.26974 -7.88063,-0.0589 -14.25074,0.41434 -1.43243,0.10644 -6.33367,0.32462 -10.89152,0.47354 -4.55788,0.14898 -11.07114,0.37823 -14.47264,0.51792 -3.40158,0.13982 -12.45812,0.34376 -20.12564,0.444 -8.90201,0.11626 -16.25067,0.46536 -20.33285,0.96187 -3.51603,0.42766 -10.01546,0.94755 -14.4431,1.16907 -4.76029,0.23815 -9.11458,0.72282 -10.65474,1.16905 -1.43243,0.41507 -3.33455,0.88378 -4.21749,1.05066 l -1.59819,0.31078 z"
         id="path3860-9"
         inkscape:connector-curvature="0" />
    </clipPath>
    <radialGradient
       cx="127.5"
       cy="78.099998"
       r="99"
       id="cb-3"
       fx="127.5"
       fy="78.099998"
       gradientUnits="userSpaceOnUse">
      <stop
         id="stop3187-0"
         stop-color="#F6F0EE"
         offset="0" />
      <stop
         id="stop3189-2"
         stop-color="#ddd"
         offset="1" />
    </radialGradient>
    <radialGradient
       id="cf-5"
       spreadMethod="pad"
       cx="127.5"
       cy="78.099998"
       r="99"
       fx="127.5"
       fy="78.099998"
       gradientUnits="userSpaceOnUse">
      <stop
         id="stop3182-3"
         stop-color="#7FB3DF"
         offset="0.1" />
      <stop
         id="stop3184-1"
         stop-color="#0F5B94"
         offset="0.9" />
    </radialGradient>
    <radialGradient
       id="y-2"
       cx="187.90098"
       cy="102.2451"
       r="111.5125"
       gradientTransform="scale(0.86406979,1.1573139)"
       fx="187.90098"
       fy="102.2451"
       gradientUnits="userSpaceOnUse">
      <stop
         id="stop3175-7"
         stop-color="#FCD209"
         offset="0.6" />
      <stop
         id="stop3177-5"
         stop-color="#f7c616"
         offset="0.7" />
      <stop
         id="stop3179-1"
         stop-color="#bc821e"
         offset="1" />
    </radialGradient>
    <radialGradient
       id="g-5"
       cx="122.26707"
       cy="108.80645"
       r="122.76932"
       gradientTransform="scale(0.92838267,1.077142)"
       fx="122.26707"
       fy="108.80645"
       gradientUnits="userSpaceOnUse">
      <stop
         id="stop3170-7"
         stop-color="#4cb749"
         offset="0.65" />
      <stop
         id="stop3172-1"
         stop-color="#388b41"
         offset="1" />
    </radialGradient>
    <radialGradient
       id="r-2"
       cx="106.73546"
       cy="19.524991"
       gradientTransform="scale(1.2320179,0.81167652)"
       fx="106.73546"
       fy="19.524991"
       r="78.326784"
       gradientUnits="userSpaceOnUse">
      <stop
         id="stop3165-5"
         stop-color="#f06b59" />
      <stop
         id="stop3167-5"
         stop-color="#df2227"
         offset="1" />
    </radialGradient>
    <clipPath
       id="clipPath4522-87"
       clipPathUnits="userSpaceOnUse">
      <rect
         y="1153.7546"
         x="3620.6797"
         height="588.78345"
         width="1116.6582"
         id="rect4524-74"
         style="fill:#226699;fill-opacity:1;stroke:none" />
    </clipPath>
  </defs>
  <g
     id="g3056"
     transform="translate(2755.7853,-1421.9483)" />
  <path
     inkscape:connector-curvature="0"
     id="path6143"
     style="fill:#000000;fill-opacity:1"
     d="m 854.7299,163.61703 c 0.27542,1.80406 -1.50671,6.52057 -2.51819,6.675 -0.56724,0.0866 -2.36208,-0.46822 -3.99211,-1.226 -1.63003,-0.7578 -3.5026,-1.30086 -4.1603,-1.20044 -0.65771,0.10039 -3.47342,-0.30801 -6.25872,-0.91825 -6.21348,-1.36104 -9.59583,-1.78277 -19.95769,-2.47876 -2.04001,-0.13696 -3.87076,-0.40593 -4.06617,-0.58385 -0.19539,-0.17776 -2.1454,-0.39721 -4.33791,-0.4849 -2.1925,-0.0877 -5.00488,-0.47442 -6.253,-0.88081 -1.24811,-0.40637 -3.64849,-0.72858 -5.32916,-0.71597 -1.68066,0.0126 -3.35604,-0.14059 -3.72156,-0.3304 -0.68306,-0.35472 -3.27328,-0.44991 -15.99935,-0.59762 -13.68921,-0.15865 -31.33801,0.8229 -51.26548,2.85584 -6.13014,0.62524 -14.01245,1.2956 -17.51638,1.48889 -8.06631,0.44467 -32.93905,4.69078 -46.81077,7.98807 -17.67734,4.34388 -41.85352,9.38091 -62.53731,15.14885 -32.31591,10.25369 -58.40466,18.9308 -92.66245,34.32078 -1.88857,0.85501 -6.01266,2.69706 -9.16437,4.09527 -3.15172,1.3982 -6.60529,3.12367 -7.67534,3.82952 -1.07004,0.70584 -4.86898,2.87427 -8.44094,4.826 -3.572,1.95175 -7.82118,4.39229 -9.43758,5.43705 -1.61646,1.04465 -3.16432,1.93631 -3.4454,1.97922 -6.38605,4.00796 -11.70791,7.91222 -18.34087,12.4943 -1.6744,1.15574 -3.15441,2.28216 -3.28796,2.50952 -0.13352,0.22748 -0.85416,0.71722 -1.61219,1.08746 -0.75803,0.37023 -2.67136,1.79486 -4.23857,3.17107 -1.56719,1.37622 -3.01319,2.52499 -3.22337,2.55708 -0.21015,0.0321 -1.75342,1.36907 -3.42784,2.97074 -3.25109,3.10995 -3.86497,3.39644 -5.82021,2.70509 -1.49611,-0.52906 -1.87059,-2.42321 -1.10601,-5.49079 0.43271,-1.73571 1.24306,-2.7231 3.5702,-4.29266 14.55377,-8.64542 49.67807,-32.25595 57.12335,-35.92537 7.4453,-3.66944 46.9815,-26.81057 115.65553,-44.56057 68.674,-17.75011 103.85716,-21.29317 128.455,-23.77528 24.59783,-2.48212 43.96003,-3.14388 67.56928,-1.62549 1.74657,0.22559 3.70872,0.31322 4.35397,0.21469 0.64528,-0.0985 1.48051,0.0605 1.86923,0.34566 1.03671,0.76206 13.76565,2.17897 25.44105,2.82699 3.39398,0.18837 6.686,0.53082 7.30508,0.75845 0.61915,0.22765 1.52237,0.34118 2.01011,0.26661 0.48772,-0.0745 1.91943,0.25775 3.19087,0.73659 1.27141,0.47889 2.85632,0.78767 3.50848,0.68809 2.09694,-0.32015 6.33931,1.69672 6.5551,3.11005 z m -11.3569,-20.767 c 0.98082,0.21421 0.93105,0.38929 1.21875,0.59375 0.2877,0.20446 0.59372,0.46607 0.9375,0.75 0.68756,0.56786 1.51139,1.27718 2.34375,2.0625 1.56122,1.47291 3.65438,3.2836 4.28125,3.75 1.15914,0.86244 2.71938,2.41225 3.96875,3.875 1.13511,1.32905 2.39922,2.81476 2.65625,3.09375 0.36811,0.3995 1.21728,1.30243 1.90625,2.0625 1.96161,2.16427 5.69938,5.57509 7.71875,7.03125 0.79057,0.57007 1.34738,0.94786 1.875,1.5 0.52762,0.55214 0.95587,1.46648 1.03125,2.1875 0.0489,0.47001 0.0185,0.86101 0,1.28125 -0.081,1.8515 -1.09026,3.76949 -2.8125,4.78125 -1.72224,1.01176 -3.89379,1.47112 -7,1.90625 -4.54743,0.63713 -12.30752,0.89267 -17.59375,0.625 -0.64856,-0.0328 -2.79005,0.10774 -4.1875,0.3125 -0.85699,0.12553 -1.70107,0.2044 -2.46875,0.21875 -0.76768,0.0143 -1.19921,0.15143 -2.28125,-0.3125 -0.55222,-0.23679 -1.30569,-0.73258 -1.6875,-1.5 -0.38181,-0.76742 -0.34458,-1.42853 -0.3125,-2.03125 0.0327,-0.6134 0.0553,-1.24808 0.3125,-1.9375 0.25724,-0.68942 0.84148,-1.40065 1.5,-1.8125 1.31704,-0.8237 2.60593,-0.8987 4.71875,-1.15625 2.20492,-0.26885 4.77087,-0.39815 6.375,-0.25 2.24695,0.20754 6.56369,0.0756 10.125,-0.25 1.17133,-0.10709 2.01174,-0.27357 2.9375,-0.40625 -1.17607,-1.12108 -2.49381,-2.42495 -3.65625,-3.625 -0.681,-0.70303 -1.29347,-1.33866 -1.75,-1.84375 -0.22826,-0.25254 -0.43187,-0.45718 -0.59375,-0.65625 -0.0809,-0.0995 -0.13238,-0.21814 -0.21875,-0.34375 -0.0864,-0.12561 -0.26069,0.0157 -0.40625,-0.9375 0.084,0.5503 0.19403,0.5411 0.1875,0.53125 -0.007,-0.01 -0.0818,-0.0951 -0.1875,-0.21875 -0.21144,-0.24736 -0.55277,-0.62619 -1,-1.0625 -0.89446,-0.87262 -2.16402,-1.98573 -3.46875,-3.09375 -1.30473,-1.10802 -2.66432,-2.23376 -3.8125,-3.09375 -1.14818,-0.85999 -2.25121,-1.50049 -2.25,-1.5 -1.14348,-0.46046 -1.97275,-1.11828 -2.71875,-2.03125 -0.39881,-0.4881 -0.92487,-1.13494 -1.03125,-2.09375 -0.10638,-0.95881 0.1315,-1.59605 0.375,-2.375 0.35288,-1.12891 0.86862,-2.09264 1.625,-2.875 0.75638,-0.78236 1.99316,-1.45098 3.34375,-1.15625 z" />
  <text
     sodipodi:linespacing="125%"
     id="text3328"
     y="458.56604"
     x="484.94751"
     style="font-style:normal;font-variant:normal;font-weight:normal;font-stretch:normal;font-size:47.26060486px;line-height:125%;font-family:'Just Another Hand';-inkscape-font-specification:'Just Another Hand';letter-spacing:0px;word-spacing:0px;fill:#000000;fill-opacity:1;stroke:none"
     xml:space="preserve"><tspan
       y="458.56604"
       x="484.94751"
       id="tspan3330"
       sodipodi:role="line"
       style="font-style:normal;font-variant:normal;font-weight:normal;font-stretch:normal;font-size:47.19026947px;font-family:'Operator Mono';-inkscape-font-specification:'Operator Mono';fill:#000000">postMessage(...)</tspan></text>
  <path
     d="m 466.17516,352.19464 c -0.27542,-1.80406 1.50671,-6.52057 2.51819,-6.675 0.56724,-0.0866 2.36208,0.46822 3.99211,1.226 1.63003,0.7578 3.5026,1.30086 4.1603,1.20044 0.65771,-0.10039 3.47342,0.30801 6.25872,0.91825 6.21348,1.36104 9.59583,1.78277 19.95769,2.47876 2.04001,0.13696 3.87076,0.40593 4.06617,0.58385 0.19539,0.17776 2.1454,0.39721 4.33791,0.4849 2.1925,0.0877 5.00488,0.47442 6.253,0.88081 1.24811,0.40637 3.64849,0.72858 5.32916,0.71597 1.68066,-0.0126 3.35604,0.14059 3.72156,0.3304 0.68306,0.35472 3.27328,0.44991 15.99935,0.59762 13.68921,0.15865 31.33801,-0.8229 51.26548,-2.85584 6.13014,-0.62524 14.01245,-1.2956 17.51638,-1.48889 8.06631,-0.44467 32.93905,-4.69078 46.81077,-7.98807 17.67734,-4.34388 41.85352,-9.38091 62.53731,-15.14885 32.31591,-10.25369 58.40466,-18.9308 92.66245,-34.32078 1.88857,-0.85501 6.01266,-2.69706 9.16437,-4.09527 3.15172,-1.3982 6.60529,-3.12367 7.67534,-3.82952 1.07004,-0.70584 4.86898,-2.87427 8.44094,-4.826 3.572,-1.95175 7.82118,-4.39229 9.43758,-5.43705 1.61646,-1.04465 3.16432,-1.93631 3.4454,-1.97922 6.38605,-4.00796 11.70791,-7.91222 18.34087,-12.4943 1.6744,-1.15574 3.15441,-2.28216 3.28796,-2.50952 0.13352,-0.22748 0.85416,-0.71722 1.61219,-1.08746 0.75803,-0.37023 2.67136,-1.79486 4.23857,-3.17107 1.56719,-1.37622 3.01319,-2.52499 3.22337,-2.55708 0.21015,-0.0321 1.75342,-1.36907 3.42784,-2.97074 3.25109,-3.10995 3.86497,-3.39644 5.82021,-2.70509 1.49611,0.52906 1.87059,2.42321 1.10601,5.49079 -0.43271,1.73571 -1.24306,2.7231 -3.5702,4.29266 -14.55377,8.64542 -49.67807,32.25595 -57.12335,35.92537 -7.4453,3.66944 -46.9815,26.81057 -115.65553,44.56057 -68.674,17.75011 -103.85716,21.29317 -128.455,23.77528 -24.59783,2.48212 -43.96003,3.14388 -67.56928,1.62549 -1.74657,-0.22559 -3.70872,-0.31322 -4.35397,-0.21469 -0.64528,0.0985 -1.48051,-0.0605 -1.86923,-0.34566 -1.03671,-0.76206 -13.76565,-2.17897 -25.44105,-2.82699 -3.39398,-0.18837 -6.686,-0.53082 -7.30508,-0.75845 -0.61915,-0.22765 -1.52237,-0.34118 -2.01011,-0.26661 -0.48772,0.0745 -1.91943,-0.25775 -3.19087,-0.73659 -1.27141,-0.47889 -2.85632,-0.78767 -3.50848,-0.68809 -2.09694,0.32015 -6.33931,-1.69672 -6.5551,-3.11005 z m 11.3569,20.767 c -0.98082,-0.21421 -0.93105,-0.38929 -1.21875,-0.59375 -0.2877,-0.20446 -0.59372,-0.46607 -0.9375,-0.75 -0.68756,-0.56786 -1.51139,-1.27718 -2.34375,-2.0625 -1.56122,-1.47291 -3.65438,-3.2836 -4.28125,-3.75 -1.15914,-0.86244 -2.71938,-2.41225 -3.96875,-3.875 -1.13511,-1.32905 -2.39922,-2.81476 -2.65625,-3.09375 -0.36811,-0.3995 -1.21728,-1.30243 -1.90625,-2.0625 -1.96161,-2.16427 -5.69938,-5.57509 -7.71875,-7.03125 -0.79057,-0.57007 -1.34738,-0.94786 -1.875,-1.5 -0.52762,-0.55214 -0.95587,-1.46648 -1.03125,-2.1875 -0.0489,-0.47001 -0.0185,-0.86101 0,-1.28125 0.081,-1.8515 1.09026,-3.76949 2.8125,-4.78125 1.72224,-1.01176 3.89379,-1.47112 7,-1.90625 4.54743,-0.63713 12.30752,-0.89267 17.59375,-0.625 0.64856,0.0328 2.79005,-0.10774 4.1875,-0.3125 0.85699,-0.12553 1.70107,-0.2044 2.46875,-0.21875 0.76768,-0.0143 1.19921,-0.15143 2.28125,0.3125 0.55222,0.23679 1.30569,0.73258 1.6875,1.5 0.38181,0.76742 0.34458,1.42853 0.3125,2.03125 -0.0327,0.6134 -0.0553,1.24808 -0.3125,1.9375 -0.25724,0.68942 -0.84148,1.40065 -1.5,1.8125 -1.31704,0.8237 -2.60593,0.8987 -4.71875,1.15625 -2.20492,0.26885 -4.77087,0.39815 -6.375,0.25 -2.24695,-0.20754 -6.56369,-0.0756 -10.125,0.25 -1.17133,0.10709 -2.01174,0.27357 -2.9375,0.40625 1.17607,1.12108 2.49381,2.42495 3.65625,3.625 0.681,0.70303 1.29347,1.33866 1.75,1.84375 0.22826,0.25254 0.43187,0.45718 0.59375,0.65625 0.0809,0.0995 0.13238,0.21814 0.21875,0.34375 0.0864,0.12561 0.26069,-0.0157 0.40625,0.9375 -0.084,-0.5503 -0.19403,-0.5411 -0.1875,-0.53125 0.007,0.01 0.0818,0.0951 0.1875,0.21875 0.21144,0.24736 0.55277,0.62619 1,1.0625 0.89446,0.87262 2.16402,1.98573 3.46875,3.09375 1.30473,1.10802 2.66432,2.23376 3.8125,3.09375 1.14818,0.85999 2.25121,1.50049 2.25,1.5 1.14348,0.46046 1.97275,1.11828 2.71875,2.03125 0.39881,0.4881 0.92487,1.13494 1.03125,2.09375 0.10638,0.95881 -0.1315,1.59605 -0.375,2.375 -0.35288,1.12891 -0.86862,2.09264 -1.625,2.875 -0.75638,0.78236 -1.99316,1.45098 -3.34375,1.15625 z"
     style="fill:#000000;fill-opacity:1"
     id="path3340"
     inkscape:connector-curvature="0" />
  <g
     id="g4317"
     transform="translate(3.966242,9.654596)">
    <g
       id="g3029"
       transform="matrix(1.5695896,0,0,1.5695896,-897.08799,361.16975)">
      <path
         d="m 686.83571,86.357693 c 0.42543,0.904992 -23.0656,-9.518138 -23.35362,-10.475764 -3.11808,-2.262223 -5.44808,-5.363583 -5.87875,-7.319631 -0.56687,0.823807 0.88879,-2.278986 1.43621,-1.44213 0.98951,-3.003055 1.33325,-3.906589 3.32207,-4.624977 0.97667,-0.214736 25.17218,-13.929181 24.63777,-13.083955 0.60981,-1.403625 2.42396,0.116098 4.45117,0.161589 3.33039,-0.252459 3.23806,1.686535 3.49802,3.360482 0.48316,1.249937 0.47261,5.130696 -2.41076,6.222879 0.91031,0.413937 -20.81419,9.133866 -21.81035,9.04633 0.83253,-0.55398 21.74359,9.666675 21.91,10.652731 2.8421,0.525212 4.03023,2.942013 3.21217,4.420886 0.16717,1.727392 -3.59161,5.721156 -6.54739,4.676604 -1.30227,0.867303 -0.78389,0.794751 -0.97262,-0.412987 0.31301,-0.949751 -0.60785,-0.624019 0.38352,-0.492879 m 12.95118,11.663053 c -0.80179,0.59761 8.50662,-16.718589 15.35563,-30.7484 7.97718,-14.389552 13.0894,-30.566871 14.03275,-30.898673 0.26442,-0.845099 0.42071,-2.378898 2.3139,-1.387665 2.07687,0.962887 5.54034,-0.01272 4.78394,2.840626 0.90462,0.380623 -1.2009,3.978481 -0.81642,3.69534 -0.99999,-0.004 -8.14007,14.492483 -14.39664,29.880254 -7.83035,15.726328 -13.43212,30.117584 -14.39832,29.859764 0.19279,1.65999 0.30627,0.95797 -2.0748,1.7428 -1.77202,-0.81833 -5.31366,-1.42988 -4.31599,-3.56311 -0.9864,-0.971224 -1.85341,-3.438895 -0.84323,-3.336774 0.80758,-0.589756 1.86068,1.831969 1.39927,0.944782 m 50.28023,-48.691074 c -0.94291,0.333039 25.06421,14.571923 25.26849,13.59301 3.78209,1.392262 4.48179,1.882468 3.51718,4.477346 -0.52495,-0.851131 0.70623,3.13661 -0.0562,2.489591 -0.796,2.253259 -1.81624,4.109767 -4.37419,4.45498 -0.95103,0.309097 -22.82348,12.967192 -23.42698,12.169832 -1.57587,-0.276164 -0.68572,1.267881 -2.66336,1.581483 -3.29875,-0.234537 -6.49208,-3.955055 -6.14794,-5.655704 0.97659,-2.342844 0.2529,-2.629205 2.89913,-4.180308 0.67144,0.741058 24.91975,-8.762053 23.99378,-9.139657 0.36543,-0.930838 -23.96079,-10.771991 -23.10353,-11.286884 -2.05663,0.110319 -2.14953,-2.687436 -2.05035,-3.746373 -0.98514,-2.88513 -0.29735,-4.468682 3.12018,-5.107153 0.85,1.00127 3.59822,1.663292 4.0351,1.074567 -0.95385,0.300294 -1.11236,0.648478 -0.12839,0.826812"
         style="fill:#edaf1f;fill-opacity:1"
         id="path3035"
         inkscape:connector-curvature="0" />
      <path
         style="fill:#057ffa;fill-opacity:1"
         inkscape:connector-curvature="0"
         d="m 817.6549,-5.4446003 c -0.8316,-4.3752765 -2.34353,-7.5969207 -6.50041,-6.6554407 1,0.0014 -14.56929,-0.906808 -36.27965,-1.906313 -12.00516,0.06128 -23.92632,1.188603 -38.12229,1.294696 -11.14949,0.07927 -24.90551,0.555801 -36.05668,0.653657 -14.2021,-0.01458 -26.44403,-0.80592 -37.3619,-1.801897 -22.40613,-0.686298 -36.02963,0.682589 -35.73982,1.639674 -3.4803,0.940585 -7.83614,2.025081 -7.11796,5.1491127 -0.80348,-0.5953426 -0.11746,16.1897812 0.63981,35.0539723 -0.36456,11.315716 0.93578,22.125121 -0.0352,34.173241 -0.47671,10.929902 -1.12892,22.049239 -0.28772,32.974658 0.6845,20.2464 -0.69535,34.74834 -0.78692,33.75254 -0.36517,4.75083 4.01633,7.06574 8.02251,8.04823 -0.95271,0.30388 15.49859,-1.62981 36.67313,-0.76633 11.93235,-0.37922 24.57059,0.76989 36.89211,1.2447 11.29437,-0.52359 25.08558,-0.60618 36.67302,-1.4354 12.23559,-0.25622 25.06512,1.91905 36.99923,1.54307 20.68184,-0.0779 35.79924,-2.45195 35.54529,-1.48474 2.82136,-0.0555 9.35312,-2.65337 8.38626,-6.72856 0.98024,0.19781 -1.40658,-13.03162 -0.40698,-32.520704 0.99193,-10.511281 0.47946,-24.236555 -0.51106,-35.907999 -0.71764,-12.50538 -1.75416,-22.709119 -0.81064,-33.425128 -0.54128,-18.6765478 0.78286,-31.5921886 0.89136,-32.5862856 -0.71354,-0.7006205 -1.44956,-2.3569075 -0.74442,-1.64784 M 664.08024,-6.428451 c 2.60658,0.9886134 5.88216,3.1395911 5.07619,5.3070643 -0.73427,3.4382821 -1.99799,3.1657689 -3.86405,3.6154944 -3.28196,0.8526723 -5.96531,0.1445762 -5.05622,-3.03145178 0.99848,-2.70433842 1.96145,-4.99458332 5.64002,-5.38363642 -0.72016,-0.6938036 -0.8819,-0.7631551 0.0497,-1.1267389 m -14.75231,-0.4704995 c 3.64223,0.4652413 5.19622,3.3943828 4.35799,6.69912367 -0.0587,3.75770653 -1.00642,3.79628153 -4.66807,3.36477253 -3.00098,-0.970417 -3.63796,-2.29271999 -3.61516,-4.0524076 -0.82824,-2.1990489 2.73218,-5.3166751 4.61384,-5.8000992 -0.90992,-0.4147728 -0.14303,2.7085416 -0.24444,1.7136968 M 636.54854,-6.01706 c 2.28345,-0.8807365 6.37451,1.260347 5.4838,3.5651914 -0.85751,2.2449723 -0.47219,6.2975617 -4.10695,6.7807083 -2.87502,-0.9933109 -5.31287,-3.42694807 -4.5651,-5.5224188 -0.94983,-3.0722016 1.2991,-5.3383947 4.98862,-4.9763464 -0.99981,0.019584 -1.38798,0.5665064 -0.39111,0.4874251 M 808.70394,128.46279 c -0.99829,-0.0584 -13.4929,-1.16345 -34.80755,-0.17936 -10.06288,0.74327 -23.16356,-0.0163 -37.00481,0.22803 -11.82636,0.99987 -23.08762,-1.06615 -35.10816,-0.0821 -12.08133,0.61204 -27.65538,-1.29177 -37.38788,-1.27155 -20.18968,-0.32078 -34.29617,0.0277 -34.26214,1.02715 0.99918,0.0403 -0.83576,-18.93112 -1.66025,-39.526983 -0.27659,-11.402175 1.66292,-23.736718 1.19471,-36.983518 0.98349,-21.342787 0.0967,-39.262047 -0.35182,-38.368253 0.24685,0.969054 14.33569,-1.066452 35.60782,-0.07563 11.7265,0.103472 24.00723,-2.851102 36.62717,-1.883278 10.91374,0.370217 24.97265,1.208394 36.0732,1.878608 13.75963,0.460845 25.2978,-1.762999 35.0301,-1.760787 22.11978,0.183921 36.92189,2.312244 36.09251,1.75357 -0.98056,0.196261 1.42487,17.891502 0.59744,38.491673 0.35626,13.297552 -0.53401,26.868244 0.0403,38.412772 0.39254,20.242136 -0.56957,37.633036 0.0682,38.403286 -0.54676,-0.83729 0.0561,-1.68472 -0.94334,-1.71734"
         id="path3037" />
    </g>
    <text
       xml:space="preserve"
       style="font-style:normal;font-variant:normal;font-weight:normal;font-stretch:normal;font-size:109.94334412px;line-height:125%;font-family:'Just Another Hand';-inkscape-font-specification:'Just Another Hand';letter-spacing:0px;word-spacing:0px;fill:#033494;fill-opacity:1;stroke:none"
       x="231.15245"
       y="694.21179"
       id="text3081"
       sodipodi:linespacing="125%"><tspan
         sodipodi:role="line"
         id="tspan3083"
         x="231.15245"
         y="694.21179"
         style="text-align:center;text-anchor:middle">index.html</tspan></text>
  </g>
  <g
     id="g4324"
     transform="translate(874.10451,-279.10318)" />
  <g
     id="g4336"
     transform="translate(896.90473,-279.12416)">
    <g
       transform="matrix(1.5695896,0,0,1.5695896,-897.08799,361.16975)"
       id="g4338">
      <path
         id="path4340"
         style="fill:#edaf1f;fill-opacity:1"
         d="m 686.83571,86.357693 c 0.42543,0.904992 -23.0656,-9.518138 -23.35362,-10.475764 -3.11808,-2.262223 -5.44808,-5.363583 -5.87875,-7.319631 -0.56687,0.823807 0.88879,-2.278986 1.43621,-1.44213 0.98951,-3.003055 1.33325,-3.906589 3.32207,-4.624977 0.97667,-0.214736 25.17218,-13.929181 24.63777,-13.083955 0.60981,-1.403625 2.42396,0.116098 4.45117,0.161589 3.33039,-0.252459 3.23806,1.686535 3.49802,3.360482 0.48316,1.249937 0.47261,5.130696 -2.41076,6.222879 0.91031,0.413937 -20.81419,9.133866 -21.81035,9.04633 0.83253,-0.55398 21.74359,9.666675 21.91,10.652731 2.8421,0.525212 4.03023,2.942013 3.21217,4.420886 0.16717,1.727392 -3.59161,5.721156 -6.54739,4.676604 -1.30227,0.867303 -0.78389,0.794751 -0.97262,-0.412987 0.31301,-0.949751 -0.60785,-0.624019 0.38352,-0.492879 m 12.95118,11.663053 c -0.80179,0.59761 8.50662,-16.718589 15.35563,-30.7484 7.97718,-14.389552 13.0894,-30.566871 14.03275,-30.898673 0.26442,-0.845099 0.42071,-2.378898 2.3139,-1.387665 2.07687,0.962887 5.54034,-0.01272 4.78394,2.840626 0.90462,0.380623 -1.2009,3.978481 -0.81642,3.69534 -0.99999,-0.004 -8.14007,14.492483 -14.39664,29.880254 -7.83035,15.726328 -13.43212,30.117584 -14.39832,29.859764 0.19279,1.65999 0.30627,0.95797 -2.0748,1.7428 -1.77202,-0.81833 -5.31366,-1.42988 -4.31599,-3.56311 -0.9864,-0.971224 -1.85341,-3.438895 -0.84323,-3.336774 0.80758,-0.589756 1.86068,1.831969 1.39927,0.944782 m 50.28023,-48.691074 c -0.94291,0.333039 25.06421,14.571923 25.26849,13.59301 3.78209,1.392262 4.48179,1.882468 3.51718,4.477346 -0.52495,-0.851131 0.70623,3.13661 -0.0562,2.489591 -0.796,2.253259 -1.81624,4.109767 -4.37419,4.45498 -0.95103,0.309097 -22.82348,12.967192 -23.42698,12.169832 -1.57587,-0.276164 -0.68572,1.267881 -2.66336,1.581483 -3.29875,-0.234537 -6.49208,-3.955055 -6.14794,-5.655704 0.97659,-2.342844 0.2529,-2.629205 2.89913,-4.180308 0.67144,0.741058 24.91975,-8.762053 23.99378,-9.139657 0.36543,-0.930838 -23.96079,-10.771991 -23.10353,-11.286884 -2.05663,0.110319 -2.14953,-2.687436 -2.05035,-3.746373 -0.98514,-2.88513 -0.29735,-4.468682 3.12018,-5.107153 0.85,1.00127 3.59822,1.663292 4.0351,1.074567 -0.95385,0.300294 -1.11236,0.648478 -0.12839,0.826812"
         inkscape:connector-curvature="0" />
      <path
         id="path4342"
         d="m 817.6549,-5.4446003 c -0.8316,-4.3752765 -2.34353,-7.5969207 -6.50041,-6.6554407 1,0.0014 -14.56929,-0.906808 -36.27965,-1.906313 -12.00516,0.06128 -23.92632,1.188603 -38.12229,1.294696 -11.14949,0.07927 -24.90551,0.555801 -36.05668,0.653657 -14.2021,-0.01458 -26.44403,-0.80592 -37.3619,-1.801897 -22.40613,-0.686298 -36.02963,0.682589 -35.73982,1.639674 -3.4803,0.940585 -7.83614,2.025081 -7.11796,5.1491127 -0.80348,-0.5953426 -0.11746,16.1897812 0.63981,35.0539723 -0.36456,11.315716 0.93578,22.125121 -0.0352,34.173241 -0.47671,10.929902 -1.12892,22.049239 -0.28772,32.974658 0.6845,20.2464 -0.69535,34.74834 -0.78692,33.75254 -0.36517,4.75083 4.01633,7.06574 8.02251,8.04823 -0.95271,0.30388 15.49859,-1.62981 36.67313,-0.76633 11.93235,-0.37922 24.57059,0.76989 36.89211,1.2447 11.29437,-0.52359 25.08558,-0.60618 36.67302,-1.4354 12.23559,-0.25622 25.06512,1.91905 36.99923,1.54307 20.68184,-0.0779 35.79924,-2.45195 35.54529,-1.48474 2.82136,-0.0555 9.35312,-2.65337 8.38626,-6.72856 0.98024,0.19781 -1.40658,-13.03162 -0.40698,-32.520704 0.99193,-10.511281 0.47946,-24.236555 -0.51106,-35.907999 -0.71764,-12.50538 -1.75416,-22.709119 -0.81064,-33.425128 -0.54128,-18.6765478 0.78286,-31.5921886 0.89136,-32.5862856 -0.71354,-0.7006205 -1.44956,-2.3569075 -0.74442,-1.64784 M 664.08024,-6.428451 c 2.60658,0.9886134 5.88216,3.1395911 5.07619,5.3070643 -0.73427,3.4382821 -1.99799,3.1657689 -3.86405,3.6154944 -3.28196,0.8526723 -5.96531,0.1445762 -5.05622,-3.03145178 0.99848,-2.70433842 1.96145,-4.99458332 5.64002,-5.38363642 -0.72016,-0.6938036 -0.8819,-0.7631551 0.0497,-1.1267389 m -14.75231,-0.4704995 c 3.64223,0.4652413 5.19622,3.3943828 4.35799,6.69912367 -0.0587,3.75770653 -1.00642,3.79628153 -4.66807,3.36477253 -3.00098,-0.970417 -3.63796,-2.29271999 -3.61516,-4.0524076 -0.82824,-2.1990489 2.73218,-5.3166751 4.61384,-5.8000992 -0.90992,-0.4147728 -0.14303,2.7085416 -0.24444,1.7136968 M 636.54854,-6.01706 c 2.28345,-0.8807365 6.37451,1.260347 5.4838,3.5651914 -0.85751,2.2449723 -0.47219,6.2975617 -4.10695,6.7807083 -2.87502,-0.9933109 -5.31287,-3.42694807 -4.5651,-5.5224188 -0.94983,-3.0722016 1.2991,-5.3383947 4.98862,-4.9763464 -0.99981,0.019584 -1.38798,0.5665064 -0.39111,0.4874251 M 808.70394,128.46279 c -0.99829,-0.0584 -13.4929,-1.16345 -34.80755,-0.17936 -10.06288,0.74327 -23.16356,-0.0163 -37.00481,0.22803 -11.82636,0.99987 -23.08762,-1.06615 -35.10816,-0.0821 -12.08133,0.61204 -27.65538,-1.29177 -37.38788,-1.27155 -20.18968,-0.32078 -34.29617,0.0277 -34.26214,1.02715 0.99918,0.0403 -0.83576,-18.93112 -1.66025,-39.526983 -0.27659,-11.402175 1.66292,-23.736718 1.19471,-36.983518 0.98349,-21.342787 0.0967,-39.262047 -0.35182,-38.368253 0.24685,0.969054 14.33569,-1.066452 35.60782,-0.07563 11.7265,0.103472 24.00723,-2.851102 36.62717,-1.883278 10.91374,0.370217 24.97265,1.208394 36.0732,1.878608 13.75963,0.460845 25.2978,-1.762999 35.0301,-1.760787 22.11978,0.183921 36.92189,2.312244 36.09251,1.75357 -0.98056,0.196261 1.42487,17.891502 0.59744,38.491673 0.35626,13.297552 -0.53401,26.868244 0.0403,38.412772 0.39254,20.242136 -0.56957,37.633036 0.0682,38.403286 -0.54676,-0.83729 0.0561,-1.68472 -0.94334,-1.71734"
         inkscape:connector-curvature="0"
         style="fill:#057ffa;fill-opacity:1" />
    </g>
    <text
       sodipodi:linespacing="125%"
       id="text4344"
       y="694.21179"
       x="231.15245"
       style="font-style:normal;font-variant:normal;font-weight:normal;font-stretch:normal;font-size:109.94334412px;line-height:125%;font-family:'Just Another Hand';-inkscape-font-specification:'Just Another Hand';letter-spacing:0px;word-spacing:0px;fill:#033494;fill-opacity:1;stroke:none"
       xml:space="preserve"><tspan
         style="text-align:center;text-anchor:middle"
         y="694.21179"
         x="231.15245"
         id="tspan4346"
         sodipodi:role="line">slides.html</tspan></text>
  </g>
</svg>
