<?xml version="1.0" encoding="UTF-8" standalone="no"?>
<!-- Created with Inkscape (http://www.inkscape.org/) -->

<svg
   xmlns:dc="http://purl.org/dc/elements/1.1/"
   xmlns:cc="http://creativecommons.org/ns#"
   xmlns:rdf="http://www.w3.org/1999/02/22-rdf-syntax-ns#"
   xmlns:svg="http://www.w3.org/2000/svg"
   xmlns="http://www.w3.org/2000/svg"
   xmlns:sodipodi="http://sodipodi.sourceforge.net/DTD/sodipodi-0.dtd"
   xmlns:inkscape="http://www.inkscape.org/namespaces/inkscape"
   id="svg2"
   version="1.1"
   inkscape:version="0.91 r13725"
   width="1366"
   height="768"
   sodipodi:docname="schema-usage-categories-3.svg"
   inkscape:export-filename="/home/hsablonniere/dev/exploring-multiscreen-web-techniques-blend/src/media/schema-usage-categories-3.png"
   inkscape:export-xdpi="90"
   inkscape:export-ydpi="90">
  <metadata
     id="metadata8">
    <rdf:RDF>
      <cc:Work
         rdf:about="">
        <dc:format>image/svg+xml</dc:format>
        <dc:type
           rdf:resource="http://purl.org/dc/dcmitype/StillImage" />
        <dc:title />
      </cc:Work>
    </rdf:RDF>
  </metadata>
  <defs
     id="defs6">
    <clipPath
       clipPathUnits="userSpaceOnUse"
       id="clipPath4522">
      <rect
         style="fill:#226699;fill-opacity:1;stroke:none"
         id="rect4524"
         width="1116.6582"
         height="588.78345"
         x="3620.6797"
         y="1153.7546" />
    </clipPath>
    <radialGradient
       gradientUnits="userSpaceOnUse"
       r="78.326784"
       fy="19.524991"
       fx="106.73546"
       gradientTransform="scale(1.2320179,0.81167652)"
       cy="19.524991"
       cx="106.73546"
       id="r">
      <stop
         stop-color="#f06b59"
         id="stop3165" />
      <stop
         offset="1"
         stop-color="#df2227"
         id="stop3167" />
    </radialGradient>
    <radialGradient
       gradientUnits="userSpaceOnUse"
       fy="108.80645"
       fx="122.26707"
       gradientTransform="scale(0.92838267,1.077142)"
       r="122.76932"
       cy="108.80645"
       cx="122.26707"
       id="g">
      <stop
         offset="0.65"
         stop-color="#4cb749"
         id="stop3170" />
      <stop
         offset="1"
         stop-color="#388b41"
         id="stop3172" />
    </radialGradient>
    <radialGradient
       gradientUnits="userSpaceOnUse"
       fy="102.2451"
       fx="187.90098"
       gradientTransform="scale(0.86406979,1.1573139)"
       r="111.5125"
       cy="102.2451"
       cx="187.90098"
       id="y">
      <stop
         offset="0.6"
         stop-color="#FCD209"
         id="stop3175" />
      <stop
         offset="0.7"
         stop-color="#f7c616"
         id="stop3177" />
      <stop
         offset="1"
         stop-color="#bc821e"
         id="stop3179" />
    </radialGradient>
    <radialGradient
       gradientUnits="userSpaceOnUse"
       fy="78.099998"
       fx="127.5"
       r="99"
       cy="78.099998"
       cx="127.5"
       spreadMethod="pad"
       id="cf">
      <stop
         offset="0.1"
         stop-color="#7FB3DF"
         id="stop3182" />
      <stop
         offset="0.9"
         stop-color="#0F5B94"
         id="stop3184" />
    </radialGradient>
    <radialGradient
       gradientUnits="userSpaceOnUse"
       fy="78.099998"
       fx="127.5"
       id="cb"
       r="99"
       cy="78.099998"
       cx="127.5">
      <stop
         offset="0"
         stop-color="#F6F0EE"
         id="stop3187" />
      <stop
         offset="1"
         stop-color="#ddd"
         id="stop3189" />
    </radialGradient>
    <clipPath
       id="clipPath3858"
       clipPathUnits="userSpaceOnUse">
      <path
         inkscape:connector-curvature="0"
         id="path3860"
         d="m 396.03854,-957.67135 0.32555,-1.84982 c 0.17787,-1.01669 0.93607,-3.7676 1.68701,-6.11165 0.7509,-2.34405 1.58344,-6.17974 1.86458,-8.5238 0.48888,-4.07658 1.1063,-7.91359 1.59822,-9.94441 1.24167,-5.12642 2.16342,-17.96397 2.53046,-35.27907 0.16847,-7.9437 0.34219,-15.7216 0.3848,-17.2843 0.29541,-10.7974 0.2766,-15.7022 -0.1627,-31.4907 -0.27182,-9.7669 -0.59568,-30.7567 -0.71033,-46.6441 -0.21749,-30.1434 -0.34278,-33.9341 -1.50943,-45.2235 -1.52579,-14.7652 -2.10523,-22.4822 -2.5453,-33.9915 -0.25173,-6.5837 -0.58297,-12.1766 -0.7399,-12.4306 -0.31495,-0.5097 -0.34545,-16.0836 -0.0591,-28.6346 0.1178,-5.168 0.52478,-10.0196 1.13944,-13.5404 0.81164,-4.6489 0.89225,-6.1637 0.50319,-9.9444 -0.64924,-6.3078 0.15372,-20.0747 1.19863,-20.466 0.29629,-0.111 1.71953,-0.033 3.15201,0.1776 6.90237,1.0128 12.88171,1.366 27.93909,1.6278 8.98551,0.1562 18.25513,0.432 20.59918,0.6215 2.34408,0.1897 7.13871,0.1759 10.65475,-0.029 3.51606,-0.2055 9.16307,-0.2416 12.54892,-0.089 11.20168,0.5058 35.36389,0.4125 45.22346,-0.1776 5.33925,-0.3195 13.64996,-0.7907 18.46821,-1.0506 4.81831,-0.26 11.74395,-0.9145 15.39019,-1.4503 3.64629,-0.5357 8.12132,-1.1803 9.94443,-1.4354 6.28729,-0.8798 68.53983,-1.356 93.28817,-0.7103 17.23555,0.4497 21.53664,0.4736 47.59117,0.3107 10.32801,-0.065 18.5457,0.1124 21.3095,0.444 2.59099,0.3109 14.94065,0.6163 29.12296,0.7251 13.5434,0.1039 31.23022,0.3571 39.30416,0.5623 18.56812,0.4722 23.7916,0.471 40.72478,-0.015 9.37287,-0.2688 15.31792,-0.2237 18.74941,0.1333 5.89255,0.6129 35.94236,0.7254 42.81135,0.1627 2.60448,-0.2133 10.01083,-0.3895 16.45567,-0.3848 6.44483,0.01 11.77216,-0.1418 11.83859,-0.3255 0.0665,-0.1838 0.88501,-0.1563 1.83498,0.059 0.95012,0.2157 3.72029,0.2223 6.15608,0.015 2.43586,-0.2076 6.25078,-0.5021 8.4646,-0.6512 16.01826,-1.0788 34.62009,-2.5161 45.69701,-3.5367 2.6045,-0.2401 11.66097,-0.4513 20.12557,-0.4736 8.4646,-0.022 17.5211,-0.133 20.1256,-0.2367 2.6046,-0.1039 5.8433,0.021 7.2068,0.2663 1.5326,0.2759 3.4078,0.2709 4.8982,0 1.4546,-0.2645 3.094,-0.2594 4.1436,0 0.9567,0.2364 3.2859,0.4233 5.1793,0.4143 4.079,-0.019 3.6878,-0.5729 5.727,8.0355 1.8446,7.7871 2.4984,13.9158 2.353,22.2713 -0.066,3.7676 -0.1001,17.2933 -0.074,30.0553 0.042,20.939 0.1368,23.8276 1.0211,29.5965 0.5389,3.5161 1.2044,9.2697 1.4798,12.7857 0.2755,3.5161 0.934,8.95 1.4651,12.0754 0.5309,3.1254 1.4936,8.7724 2.1309,12.5489 0.6372,3.7765 1.7912,10.2759 2.5748,14.4431 1.36,7.2318 2.8503,16.9999 4.4543,29.3598 0.7864,6.0583 1.24,10.0029 2.4714,21.3094 0.4254,3.9068 1.0792,8.7014 1.4502,10.6548 0.371,1.9533 0.9803,8.3462 1.3615,14.2063 0.3811,5.8601 0.9204,14.1708 1.1986,18.4682 0.2781,4.2974 0.5743,15.4032 0.6511,24.6835 0.076,9.2803 0.2476,17.0582 0.3847,17.2843 0.2291,0.3776 0.5161,4.2521 1.0952,14.85749 0.1208,2.21382 0.3511,7.70102 0.5179,12.19375 l 0.3108,8.16865 -4.2176,0 c -2.3216,0 -4.9798,0.23459 -5.8897,0.51796 -0.9099,0.28323 -5.052,0.57966 -9.2193,0.6659 -9.8387,0.20367 -19.0647,0.57876 -33.3849,1.37622 -6.3809,0.35534 -11.9747,0.66513 -12.4305,0.68075 -4.2692,0.1461 -9.0519,0.092 -13.5256,-0.16288 -3.12157,-0.17774 -5.59057,-0.12541 -5.91927,0.13323 -0.8238,0.64822 -2.1501,0.52322 -2.4417,-0.23678 -0.3346,-0.87194 -5.4606,-0.66348 -5.4606,0.222 0,0.32708 0.2131,0.59194 0.4736,0.59194 0.2604,0 0.4735,0.24979 0.4735,0.56232 0,0.44196 -0.1351,0.44196 -0.5771,0 -0.3126,-0.31253 -1.1117,-0.59122 -1.7758,-0.62152 -0.8026,-0.0364 -0.9207,-0.12237 -0.37,-0.26636 0.4558,-0.11915 0.8287,-0.4057 0.8287,-0.6363 1e-4,-0.23176 -5.4558,-0.44125 -12.19371,-0.45878 -6.70658,-0.0175 -15.17715,-0.0336 -18.82345,-0.0446 -3.64621,-0.0102 -10.35873,-0.008 -14.91659,0.0153 -4.55786,0.0238 -12.01618,-0.29791 -16.57404,-0.71031 -14.26197,-1.2906 -15.62695,-1.33743 -15.62695,-0.68073 0,0.45276 -0.16136,0.46317 -0.6659,0.0446 -0.72615,-0.60262 -4.61403,-0.82484 -5.44577,-0.31078 -0.28815,0.17783 -0.76999,0.1622 -1.08024,-0.0293 -0.62779,-0.38797 -0.33267,-0.37503 -18.14272,-1.15426 -7.03214,-0.30767 -14.38393,-0.63393 -16.33728,-0.72514 -11.77197,-0.54954 -29.11776,-0.5966 -29.72966,-0.0888 -0.42611,0.35361 -0.77089,0.37705 -0.9767,0.0739 -0.17548,-0.25843 -1.16316,-0.44514 -2.20495,-0.41437 -1.04176,0.0308 -4.93075,0.0992 -8.6422,0.14797 -6.36636,0.0839 -6.74799,0.14151 -6.74799,1.02111 5e-5,0.64127 -0.22836,0.84172 -0.72509,0.65111 -0.56253,-0.21588 -0.60727,-0.4293 -0.17758,-0.94708 0.468,-0.56376 -0.13915,-0.64488 -4.01034,-0.57715 -2.59403,0.0454 -4.55787,0.27044 -4.55787,0.53273 0,0.28518 -0.22636,0.28731 -0.59193,-0.0152 -0.32551,-0.26903 -1.37905,-0.64951 -2.33808,-0.82871 -1.60617,-0.30011 -1.71924,-0.23472 -1.47983,0.68068 0.14288,0.54657 0.0398,0.9915 -0.222,0.9915 -0.26186,0 -0.45033,-0.37291 -0.41435,-0.8287 0.0608,-0.76708 -0.86633,-0.84419 -12.46012,-0.96186 -11.04661,-0.11221 -12.57652,-0.0431 -12.94846,0.6215 -0.38541,0.68866 -0.49216,0.69301 -1.25786,0 -0.66519,-0.60199 -1.10767,-0.64621 -2.14579,-0.25156 -0.77433,0.2944 -1.5185,0.32356 -1.83497,0.0739 -0.29388,-0.23185 -3.28099,-0.44419 -6.62962,-0.47354 -5.40408,-0.0475 -6.02167,0.0255 -5.49013,0.66593 0.42122,0.50755 0.45603,0.86095 0.10356,1.21347 -0.35252,0.35245 -0.59179,0.21128 -0.81389,-0.48833 -0.19116,-0.60244 -0.72077,-0.99733 -1.34662,-1.00628 -11.20699,-0.16406 -40.04265,0.39116 -40.68041,0.78427 -0.18379,0.1134 -0.19369,0.54919 -0.0293,0.9767 0.22433,0.58459 0.0929,0.70221 -0.50314,0.47354 -0.51928,-0.19925 -0.78432,-0.056 -0.78432,0.39953 0,0.38254 -0.21305,0.69554 -0.47354,0.69554 -0.6623,0 -0.59098,-1.11695 0.11829,-1.84975 0.48256,-0.49832 -0.0208,-0.55517 -2.72288,-0.32562 -4.76598,0.40499 -22.8807,1.61711 -24.97944,1.67223 -2.74665,0.0722 -3.17559,0.0715 -7.22154,-0.14795 -4.03925,-0.21906 -8.38722,0.0946 -8.07979,0.59192 0.10219,0.16541 -0.5999,0.21972 -1.55385,0.1183 -1.84526,-0.19603 -10.73794,-0.0835 -15.46419,0.19235 -1.5627,0.0912 -5.93114,0.29189 -9.70766,0.45877 -3.77652,0.16694 -7.03161,0.46965 -7.23632,0.6659 -0.20471,0.19605 -1.37291,0.21429 -2.58971,0.0299 -2.22855,-0.33821 -10.11833,-0.19979 -16.69244,0.29597 -1.95337,0.14745 -5.33283,0.23451 -7.5027,0.19236 -3.14095,-0.0608 -4.12271,0.0917 -4.839,0.7399 -0.74024,0.66987 -1.029,0.70416 -1.62785,0.20718 -0.54122,-0.44921 -1.85469,-0.52393 -5.10537,-0.28119 -4.35652,0.32543 -5.06787,0.34 -7.08839,0.20723 -0.93866,-0.0617 -3.85739,0.0741 -17.63952,0.81386 -1.82313,0.0978 -9.92069,0.284 -17.99467,0.39953 -17.66358,0.25279 -27.67194,0.63664 -30.5436,1.1987 -2.31785,0.45366 -21.43516,0.3027 -22.21214,-0.17758 -0.43652,-0.26974 -7.88063,-0.0589 -14.25074,0.41434 -1.43243,0.10644 -6.33367,0.32462 -10.89152,0.47354 -4.55788,0.14898 -11.07114,0.37823 -14.47264,0.51792 -3.40158,0.13982 -12.45812,0.34376 -20.12564,0.444 -8.90201,0.11626 -16.25067,0.46536 -20.33285,0.96187 -3.51603,0.42766 -10.01546,0.94755 -14.4431,1.16907 -4.76029,0.23815 -9.11458,0.72282 -10.65474,1.16905 -1.43243,0.41507 -3.33455,0.88378 -4.21749,1.05066 l -1.59819,0.31078 z"
         style="fill:#992222;fill-opacity:1" />
    </clipPath>
    <clipPath
       id="clipPath4522-1"
       clipPathUnits="userSpaceOnUse">
      <rect
         y="1153.7546"
         x="3620.6797"
         height="588.78345"
         width="1116.6582"
         id="rect4524-7"
         style="fill:#226699;fill-opacity:1;stroke:none" />
    </clipPath>
    <clipPath
       id="clipPath4522-2"
       clipPathUnits="userSpaceOnUse">
      <rect
         y="1153.7546"
         x="3620.6797"
         height="588.78345"
         width="1116.6582"
         id="rect4524-0"
         style="fill:#226699;fill-opacity:1;stroke:none" />
    </clipPath>
    <clipPath
       clipPathUnits="userSpaceOnUse"
       id="clipPath3175">
      <path
         style="fill:#555555;fill-opacity:1;stroke:none"
         d="m 52.383655,349.71515 c 4.539401,-42.44063 6.447926,-98.14523 6.092333,-177.81849 L 58.078062,82.738168 91.932274,81.109854 c 18.619816,-0.895573 87.488816,-1.783964 153.042236,-1.9742 65.5534,-0.190237 162.80461,-1.12747 216.11378,-2.08274 l 96.92578,-1.736855 -1.22357,17.592899 c -1.63941,23.571852 -4.39602,195.329712 -3.62485,225.854912 l 0.61269,24.25244 -33.51634,1.47293 c -18.434,0.8101 -71.1817,2.28942 -117.21713,3.28735 -46.03545,0.99794 -84.52013,2.32083 -85.52154,2.93972 -1.00139,0.6189 -39.84707,1.64593 -86.32369,2.28226 -73.50545,1.00644 -104.70889,2.0366 -130.50537,4.30859 -3.45018,0.30387 -16.003262,1.26076 -27.895742,2.12642 l -21.622692,1.57395 1.207819,-11.29238 0,0 z"
         id="path3177"
         inkscape:connector-curvature="0" />
    </clipPath>
  </defs>
  <sodipodi:namedview
     pagecolor="#ffffff"
     bordercolor="#666666"
     borderopacity="1"
     objecttolerance="10"
     gridtolerance="10"
     guidetolerance="10"
     inkscape:pageopacity="0"
     inkscape:pageshadow="2"
     inkscape:window-width="2560"
     inkscape:window-height="1406"
     id="namedview4"
     showgrid="false"
     inkscape:zoom="1.9464272"
     inkscape:cx="848.58114"
     inkscape:cy="131.73423"
     inkscape:window-x="0"
     inkscape:window-y="1512"
     inkscape:window-maximized="1"
     inkscape:current-layer="svg2"
     showguides="true"
     inkscape:guide-bbox="true" />
  <text
     xml:space="preserve"
     style="font-style:normal;font-weight:normal;font-size:40px;line-height:125%;font-family:Sans;letter-spacing:0px;word-spacing:0px;fill:#000000;fill-opacity:1;stroke:none"
     x="745.47504"
     y="671.79889"
     id="text3837"
     sodipodi:linespacing="125%"><tspan
       sodipodi:role="line"
       id="tspan3839"
       x="745.47504"
       y="671.79889" /></text>
  <text
     xml:space="preserve"
     style="font-style:normal;font-weight:normal;font-size:29.19977188px;line-height:125%;font-family:Sans;letter-spacing:0px;word-spacing:0px;fill:#000000;fill-opacity:1;stroke:none"
     x="-83.000755"
     y="502.81067"
     id="text3837-4"
     sodipodi:linespacing="125%"><tspan
       y="502.81067"
       x="-83.000755"
       sodipodi:role="line"
       id="tspan3839-9" /></text>
  <text
     xml:space="preserve"
     style="font-style:normal;font-weight:normal;font-size:29.19977188px;line-height:125%;font-family:Sans;letter-spacing:0px;word-spacing:0px;fill:#000000;fill-opacity:1;stroke:none"
     x="-83.00074"
     y="202.01111"
     id="text3837-8"
     sodipodi:linespacing="125%"><tspan
       y="202.01111"
       x="-83.00074"
       sodipodi:role="line"
       id="tspan3839-2" /></text>
  <g
     style="display:inline"
     id="g8736"
     transform="matrix(1.8508856,0,0,1.8508856,-557.29315,625.39631)">
    <path
       style="opacity:1;fill:#ffffff;fill-opacity:1;stroke:#edaf1f;stroke-width:4;stroke-linecap:round;stroke-linejoin:round;stroke-miterlimit:4;stroke-dasharray:none;stroke-dashoffset:0;stroke-opacity:1"
       d="m 851.18641,-82.159556 c -0.4988,0.03456 0.42456,-18.159164 0.22896,-36.184174 0.47792,-18.63211 -1.2876,-37.70675 -0.81272,-37.55026 0.15324,-0.47594 7.711,0.25357 7.66383,0.75134 0.47631,0.15206 0.8039,18.3706 0.34604,36.65487 0.477,18.635043 0.18744,36.423435 0.0206,36.894771 -0.33953,-0.367036 -6.96204,0.197914 -7.13985,-0.2694"
       id="path4579"
       inkscape:connector-curvature="0"
       sodipodi:nodetypes="ccccc" />
    <path
       inkscape:connector-curvature="0"
       id="path4581"
       d="m 812.66625,-89.937074 c -0.49968,-0.01789 6.4004,-15.836296 12.72453,-32.821366 5.85431,-16.34335 12.0181,-32.90098 12.19645,-33.36809 -0.28254,-0.41252 7.63627,0.13065 7.15293,0.003 0.29153,0.40621 -5.80573,17.3214 -12.61664,33.95602 -6.0875,16.05002 -12.6703,32.605769 -13.10163,32.858662 0.23089,0.443499 -5.92355,-0.213568 -6.39999,-0.06189"
       style="opacity:1;fill:#ffffff;fill-opacity:1;stroke:#edaf1f;stroke-width:4;stroke-linecap:round;stroke-linejoin:round;stroke-miterlimit:4;stroke-dasharray:none;stroke-dashoffset:0;stroke-opacity:1" />
    <path
       style="opacity:1;fill:#ffffff;fill-opacity:1;stroke:#edaf1f;stroke-width:4;stroke-linecap:round;stroke-linejoin:round;stroke-miterlimit:4;stroke-dasharray:none;stroke-dashoffset:0;stroke-opacity:1"
       d="m 897.29613,-89.342061 c -0.0705,0.495 -7.41451,-17.477879 -13.30461,-33.732479 -6.64108,-16.09076 -13.05261,-33.1932 -12.85984,-32.73185 0.48397,-0.1256 -5.79584,0.57176 -6.29417,0.53089 -0.0694,0.49516 6.07839,15.18581 12.5122,32.16086 6.82868,16.55631 12.46644,33.432204 11.97596,33.335062 -0.47375,-0.159879 7.71179,0.05397 7.83572,0.538371"
       id="path4583"
       inkscape:connector-curvature="0" />
    <path
       sodipodi:nodetypes="ccccc"
       inkscape:connector-curvature="0"
       id="path4576"
       d="m 851.32239,-299.93232 c -0.40102,-0.29864 -0.35523,-15.7033 -0.25198,-16.19252 0.48902,-0.10419 6.90248,0.59817 7.23705,0.96974 -0.38443,-0.31971 -0.36028,15.14248 0.13346,15.22131 -0.49632,-0.0606 -7.42588,-0.43428 -6.94292,-0.56368"
       style="opacity:1;fill:#ffffff;fill-opacity:1;stroke:#edaf1f;stroke-width:4;stroke-linecap:round;stroke-linejoin:round;stroke-miterlimit:4;stroke-dasharray:none;stroke-dashoffset:0;stroke-opacity:1" />
    <path
       inkscape:connector-curvature="0"
       id="path4570"
       d="m 729.33879,-287.69068 c -0.35338,-0.35373 14.44958,0.67614 35.96329,0.17688 10.80266,-0.31338 23.01267,-1.28575 35.72706,-0.98769 10.84449,0.12269 23.57971,1.2479 35.47838,0.93605 12.03286,0.45148 23.63016,-0.70932 35.89288,-0.93782 12.78454,0.0705 23.9615,0.98352 35.79067,0.98988 12.62362,-0.0876 24.92596,-0.0881 35.07546,-0.513 21.48256,0.49665 36.3314,0.11034 36.48831,-0.3644 0.0336,0.49887 0.16754,15.81038 0.17704,35.30789 -0.32065,10.25636 -1.00496,21.91961 -0.56899,34.26371 -0.37146,11.76478 -0.30058,25.27779 -0.41481,35.43118 0.33695,20.36693 0.4198,33.95061 0.153,34.37348 0.41424,-0.28002 -13.98173,-0.59437 -35.524,-0.0944 -10.18554,-0.44524 -23.36689,0.51296 -35.98273,0.51525 -11.53019,0.45783 -22.2293,0.32294 -34.68498,-0.14864 -12.2293,0.28431 -24.84161,-0.55885 -36.63718,-0.0593 -12.70104,0.28402 -23.23683,-0.58013 -34.97382,-0.29081 -12.62472,-0.0935 -24.90963,0.56687 -35.69262,0.90319 -22.02267,0.13158 -35.89922,-1.01963 -35.4755,-0.75418 -0.49035,-0.0978 -1.30327,-14.8117 -0.80414,-34.83863 0.4046,-10.34624 0.39368,-22.43943 0.57544,-34.07294 -0.24904,-11.6659 -1.04682,-25.07883 -0.55459,-35.63119 -0.0108,-19.49764 0.4606,-34.44167 0.0768,-34.12126"
       style="opacity:1;fill:#ffffff;fill-opacity:1;stroke:#057ffa;stroke-width:4;stroke-linecap:round;stroke-linejoin:round;stroke-miterlimit:4;stroke-dasharray:none;stroke-dashoffset:0;stroke-opacity:1" />
    <path
       style="opacity:1;fill:#ffffff;fill-opacity:1;stroke:#057ffa;stroke-width:4;stroke-linecap:round;stroke-linejoin:round;stroke-miterlimit:4;stroke-dasharray:none;stroke-dashoffset:0;stroke-opacity:1"
       d="m 721.80293,-304.95446 c 0.47652,0.15142 14.03369,-1.05641 37.41291,-0.76793 10.62111,0.12875 24.04295,-0.49478 38.30431,-0.0771 11.65076,-0.25437 24.92545,0.59532 38.53019,0.61793 12.24775,0.3524 25.01759,-0.59364 38.02114,-0.29512 13.51674,0.2841 25.49965,0.41209 37.09131,0.31041 14.2329,-0.43507 27.75398,-0.91567 38.44937,-0.62778 23.46789,-0.047 37.60235,1.30901 37.74218,0.82896 -0.49965,0.0186 -0.55556,18.66769 -0.0772,18.81329 0.49674,-0.057 -15.23238,0.86942 -37.73276,0.70009 -10.61919,0.12134 -23.9168,-0.46045 -38.39852,-0.52897 -12.48822,-0.29043 -25.04197,-0.34639 -38.03463,0.14077 -12.84461,-0.43746 -25.1671,0.88073 -37.62379,0.40245 -13.51668,-0.2842 -26.62491,0.0227 -38.21303,-0.0601 -13.49255,-0.0776 -26.00888,-0.11344 -37.59369,0.0244 -22.51864,-0.2149 -38.2373,0.48849 -38.07791,0.0146 0.44432,0.2293 -0.21948,-19.90083 -0.54899,-19.52476"
       id="path4575"
       inkscape:connector-curvature="0" />
    <path
       inkscape:connector-curvature="0"
       id="path4577"
       d="m 721.55971,-150.12209 c -0.43794,0.24126 14.88434,0.34803 37.44583,0.63516 10.61435,0.1 24.2645,-0.52946 38.74674,-0.59414 12.35102,-0.42096 24.04587,-0.30211 37.50883,0.0472 12.95914,-0.3504 25.97748,0.13398 38.11383,-0.047 13.08222,0.49947 25.74662,-0.42016 38.15518,-0.0422 13.64491,-0.36513 27.45234,-0.2713 38.12868,-0.0126 22.67779,-0.40565 37.60206,-0.11087 37.57965,0.38863 -0.1382,-0.48053 1.06398,6.51497 0.93152,6.99711 -0.41762,-0.27496 -14.57454,0.39149 -37.99004,0.16285 -10.6045,0.0159 -25.173,-0.25605 -39.01204,0.22173 -12.16928,0.49218 -24.24754,0.82231 -37.47218,0.33678 -12.80366,-0.45774 -25.87275,-0.7238 -38.04832,-0.98415 -13.45861,-0.35379 -26.35265,0.32778 -38.05867,-0.003 -14.39594,0.28698 -26.17796,1.00541 -37.75868,0.85397 -22.94454,0.49935 -38.39231,-0.36743 -37.92233,-0.53806 -0.44134,-0.23498 -0.43229,-5.9379 -0.43465,-6.43789"
       style="opacity:1;fill:#ffffff;fill-opacity:1;stroke:#057ffa;stroke-width:4;stroke-linecap:round;stroke-linejoin:round;stroke-miterlimit:4;stroke-dasharray:none;stroke-dashoffset:0;stroke-opacity:1" />
  </g>
  <g
     transform="translate(3.0764424e-6,3.1397133e-6)"
     id="g6075">
    <path
       sodipodi:nodetypes="ccccc"
       inkscape:connector-curvature="0"
       id="path4396-3"
       d="m 219.34046,480.02737 c 0.73385,-0.37553 27.02356,-0.22282 61.54625,0.23629 18.68203,-0.8228 38.70216,-0.99031 60.58822,-0.4086 20.63978,0.49055 43.67863,-0.38667 61.73335,0.0818 35.96884,0.31623 61.16077,0.74357 61.06218,1.56202 0.70839,0.42157 1.37423,20.42818 0.61158,46.32983 -0.79889,15.11187 -1.98348,32.53831 -1.26605,47.44747 -0.59422,25.64341 0.91028,47.77634 0.13767,47.48866 0.45141,-0.68977 -26.14755,-0.25876 -61.70153,0.48916 -18.89585,0.80805 -40.56645,1.02988 -61.06461,0.84702 -21.94849,-0.5118 -41.5699,-0.31678 -60.96493,0.17445 -36.00658,0.20272 -60.49924,-1.81739 -60.38563,-1.00091 -0.0971,-0.81861 -0.0778,-21.54165 -0.1258,-46.93329 -0.7798,-15.04783 -1.9196,-33.34437 -1.10296,-48.77206 0.3798,-26.94638 1.65491,-46.17567 0.83058,-46.17192"
       style="opacity:1;fill:#ffffff;fill-opacity:1;stroke:#057ffa;stroke-width:6.59477139;stroke-linecap:round;stroke-linejoin:round;stroke-miterlimit:4;stroke-dasharray:none;stroke-dashoffset:0;stroke-opacity:1" />
    <path
       sodipodi:nodetypes="ccccc"
       style="opacity:1;fill:#ffffff;fill-opacity:1;stroke:#edaf1f;stroke-width:6.59477139;stroke-linecap:round;stroke-linejoin:round;stroke-miterlimit:4;stroke-dasharray:none;stroke-dashoffset:0;stroke-opacity:1"
       d="m 218.3429,617.457 c -0.73472,-0.37379 25.3825,-0.80382 61.14939,-0.19844 18.3018,0.70274 40.619,0.007 62.74207,-0.0674 21.70387,-0.7199 41.42026,-0.59317 60.07434,0.22739 35.08621,-0.81536 60.69315,-0.64387 61.27631,-0.0612 0.0902,0.8194 14.40569,16.21059 26.37882,34.27796 11.74239,17.79062 22.51967,34.6673 23.33875,34.57426 0.53213,-0.62959 -22.87157,0.51907 -56.58874,1.0523 -16.68489,0.78395 -37.75146,-0.70726 -58.24526,-1.40631 -18.34002,0.80649 -36.78102,-0.54781 -57.04673,-0.22382 -20.32423,-0.11475 -38.16042,0.63847 -57.22045,0.0237 -21.74688,0.11194 -42.00109,-0.24393 -58.19508,0.10782 -33.63391,-0.41352 -55.62474,0.42349 -56.28268,0.92014 0.69179,-0.4483 13.06746,-16.92384 24.7282,-34.46251 12.86864,-18.13846 23.95096,-35.44436 24.1318,-34.6401"
       id="path4426"
       inkscape:connector-curvature="0" />
    <path
       style="fill:none;fill-rule:evenodd;stroke:#057ffa;stroke-width:6.59477139;stroke-linecap:round;stroke-linejoin:round;stroke-miterlimit:4;stroke-dasharray:none;stroke-opacity:1"
       d="m 223.88605,629.90237 c -0.29736,0.76885 23.92921,0.71247 58.19096,1.36512 17.2945,0.48419 37.85764,0.21997 59.10711,0.21595 19.86631,-0.60575 42.74888,-0.34396 59.88943,-0.41379 32.93572,0.0534 58.23582,0.29167 57.42041,0.17065"
       id="path4432"
       inkscape:connector-curvature="0" />
    <path
       style="fill:none;fill-rule:evenodd;stroke:#057ffa;stroke-width:6.59477139;stroke-linecap:round;stroke-linejoin:round;stroke-miterlimit:4;stroke-dasharray:none;stroke-opacity:1"
       d="m 205.24735,658.46542 c -0.82255,0.0544 23.37678,1.10299 55.74423,0.46613 16.79977,-0.52974 32.59052,-1.04098 52.78602,-0.8578 17.29903,-0.62053 37.01116,0.46267 54.12494,0.0758 20.18015,-0.24367 39.17433,0.23639 55.4256,1.0566 32.07362,0.79169 54.53846,-1.98808 54.02799,-1.3408"
       id="path4436"
       inkscape:connector-curvature="0" />
    <path
       inkscape:connector-curvature="0"
       id="path4438"
       d="m 215.49445,645.47889 c 0.40978,0.71529 27.36715,-1.42394 62.70086,-1.56955 19.73108,0.65585 42.30286,-0.53721 63.98367,0.26527 22.55296,-0.46109 42.12576,0.616 61.92401,1.21507 35.89223,-0.78455 64.00137,-0.23734 63.24269,0.0851"
       style="fill:none;fill-rule:evenodd;stroke:#057ffa;stroke-width:6.59477139;stroke-linecap:round;stroke-linejoin:round;stroke-miterlimit:4;stroke-dasharray:none;stroke-opacity:1" />
    <path
       style="fill:none;fill-rule:evenodd;stroke:#057ffa;stroke-width:6.59477139;stroke-linecap:round;stroke-linejoin:round;stroke-miterlimit:4;stroke-dasharray:none;stroke-opacity:1"
       d="m 196.6005,673.13333 c -0.78097,-0.26386 24.45936,-0.50264 58.94545,-1.11932 16.68593,0.61765 36.53063,0.51345 57.08716,1.3303 19.69029,-0.47347 39.13519,0.0648 58.55554,-0.65331 21.48366,-0.12267 40.6385,1.18674 57.44152,0.48316 33.88916,0.82285 58.50047,-0.65143 57.87006,-0.12035"
       id="path4440"
       inkscape:connector-curvature="0" />
    <path
       inkscape:connector-curvature="0"
       id="path4471"
       d="m 340.69434,672.69166 c 0.41557,-0.71194 1.96528,-44.02193 1.63829,-43.2652"
       style="fill:none;fill-rule:evenodd;stroke:#057ffa;stroke-width:6.59477139;stroke-linecap:round;stroke-linejoin:round;stroke-miterlimit:4;stroke-dasharray:none;stroke-opacity:1" />
    <path
       style="fill:none;fill-rule:evenodd;stroke:#057ffa;stroke-width:6.59477139;stroke-linecap:round;stroke-linejoin:round;stroke-miterlimit:4;stroke-dasharray:none;stroke-opacity:1"
       d="m 327.68278,672.24854 c -0.81113,0.14706 0.93911,-43.24083 0.1253,-43.10976"
       id="path4473"
       inkscape:connector-curvature="0" />
    <path
       inkscape:connector-curvature="0"
       id="path4475"
       d="m 313.16149,673.42371 c 0.30646,-0.76527 -1.94657,-44.00736 -1.2157,-44.38863"
       style="fill:none;fill-rule:evenodd;stroke:#057ffa;stroke-width:6.59477139;stroke-linecap:round;stroke-linejoin:round;stroke-miterlimit:4;stroke-dasharray:none;stroke-opacity:1" />
    <path
       style="fill:none;fill-rule:evenodd;stroke:#057ffa;stroke-width:6.59477139;stroke-linecap:round;stroke-linejoin:round;stroke-miterlimit:4;stroke-dasharray:none;stroke-opacity:1"
       d="m 297.59451,672.21908 c 0.80963,-0.15515 0.72775,-41.07801 0.71519,-41.90226"
       id="path4477"
       inkscape:connector-curvature="0" />
    <path
       inkscape:connector-curvature="0"
       id="path4479"
       d="m 284.33642,672.23121 c -0.69275,-0.4468 -0.24348,-41.75476 0.18122,-42.46129"
       style="fill:none;fill-rule:evenodd;stroke:#057ffa;stroke-width:6.59477139;stroke-linecap:round;stroke-linejoin:round;stroke-miterlimit:4;stroke-dasharray:none;stroke-opacity:1" />
    <path
       style="fill:none;fill-rule:evenodd;stroke:#057ffa;stroke-width:6.59477139;stroke-linecap:round;stroke-linejoin:round;stroke-miterlimit:4;stroke-dasharray:none;stroke-opacity:1"
       d="m 269.61111,672.03694 c 0.49661,0.658 0.20593,-41.07077 0.2037,-41.89511"
       id="path4481"
       inkscape:connector-curvature="0" />
    <path
       inkscape:connector-curvature="0"
       id="path4483"
       d="m 255.08865,673.58736 c -0.0368,0.82352 0.29774,-44.43986 0.44959,-43.62961"
       style="fill:none;fill-rule:evenodd;stroke:#057ffa;stroke-width:6.59477139;stroke-linecap:round;stroke-linejoin:round;stroke-miterlimit:4;stroke-dasharray:none;stroke-opacity:1" />
    <path
       style="fill:none;fill-rule:evenodd;stroke:#057ffa;stroke-width:6.59477139;stroke-linecap:round;stroke-linejoin:round;stroke-miterlimit:4;stroke-dasharray:none;stroke-opacity:1"
       d="m 239.98846,673.50794 c 0.6431,-0.51573 -0.95254,-43.11208 -0.21282,-43.47593"
       id="path4485"
       inkscape:connector-curvature="0" />
    <path
       inkscape:connector-curvature="0"
       id="path4487"
       d="m 199.5308,670.85348 c 0.78813,0.24167 25.29359,-40.16277 26.11264,-40.25602"
       style="fill:none;fill-rule:evenodd;stroke:#057ffa;stroke-width:6.59477139;stroke-linecap:round;stroke-linejoin:round;stroke-miterlimit:4;stroke-dasharray:none;stroke-opacity:1" />
    <path
       style="fill:none;fill-rule:evenodd;stroke:#057ffa;stroke-width:6.59477139;stroke-linecap:round;stroke-linejoin:round;stroke-miterlimit:4;stroke-dasharray:none;stroke-opacity:1"
       d="m 442.69357,671.97731 c -0.7802,-0.26618 0.22247,-43.29941 -0.58336,-43.12565"
       id="path4489"
       inkscape:connector-curvature="0" />
    <path
       inkscape:connector-curvature="0"
       id="path4491"
       d="m 428.82486,672.29393 c 0.67265,0.47653 -0.57577,-42.87759 10e-4,-42.28863"
       style="fill:none;fill-rule:evenodd;stroke:#057ffa;stroke-width:6.59477139;stroke-linecap:round;stroke-linejoin:round;stroke-miterlimit:4;stroke-dasharray:none;stroke-opacity:1" />
    <path
       style="fill:none;fill-rule:evenodd;stroke:#057ffa;stroke-width:6.59477139;stroke-linecap:round;stroke-linejoin:round;stroke-miterlimit:4;stroke-dasharray:none;stroke-opacity:1"
       d="m 412.92431,672.61915 c 0.78951,0.23713 0.60144,-43.26764 1.18884,-43.846"
       id="path4493"
       inkscape:connector-curvature="0" />
    <path
       inkscape:connector-curvature="0"
       id="path4495"
       d="m 398.73021,673.40717 c 0.6654,0.48661 0.57878,-43.54826 -0.23596,-43.67377"
       style="fill:none;fill-rule:evenodd;stroke:#057ffa;stroke-width:6.59477139;stroke-linecap:round;stroke-linejoin:round;stroke-miterlimit:4;stroke-dasharray:none;stroke-opacity:1" />
    <path
       style="fill:none;fill-rule:evenodd;stroke:#057ffa;stroke-width:6.59477139;stroke-linecap:round;stroke-linejoin:round;stroke-miterlimit:4;stroke-dasharray:none;stroke-opacity:1"
       d="m 385.62701,673.05025 c 0.0714,0.82124 -1.1463,-44.17012 -1.60688,-43.48644"
       id="path4497"
       inkscape:connector-curvature="0" />
    <path
       inkscape:connector-curvature="0"
       id="path4499"
       d="m 371.2027,672.98003 c 0.27267,-0.77795 -0.68861,-42.06986 -1.17016,-42.73893"
       style="fill:none;fill-rule:evenodd;stroke:#057ffa;stroke-width:6.59477139;stroke-linecap:round;stroke-linejoin:round;stroke-miterlimit:4;stroke-dasharray:none;stroke-opacity:1" />
    <path
       style="fill:none;fill-rule:evenodd;stroke:#057ffa;stroke-width:6.59477139;stroke-linecap:round;stroke-linejoin:round;stroke-miterlimit:4;stroke-dasharray:none;stroke-opacity:1"
       d="m 355.97639,673.86427 c 0.82049,0.0796 -0.37254,-44.44688 0.45087,-44.40744"
       id="path4501"
       inkscape:connector-curvature="0" />
    <path
       inkscape:connector-curvature="0"
       id="path4503"
       d="m 457.40222,673.54774 c -0.50887,-0.64853 -0.77484,-43.76033 -0.98957,-44.55622"
       style="fill:none;fill-rule:evenodd;stroke:#057ffa;stroke-width:6.59477139;stroke-linecap:round;stroke-linejoin:round;stroke-miterlimit:4;stroke-dasharray:none;stroke-opacity:1" />
    <path
       style="fill:none;fill-rule:evenodd;stroke:#057ffa;stroke-width:6.59477139;stroke-linecap:round;stroke-linejoin:round;stroke-miterlimit:4;stroke-dasharray:none;stroke-opacity:1"
       d="m 484.06755,672.29769 c -0.78895,-0.239 -25.68965,-41.28614 -26.05209,-42.02656"
       id="path4507"
       inkscape:connector-curvature="0" />
    <path
       inkscape:connector-curvature="0"
       id="path4509"
       d="m 225.19709,673.10042 c -0.43026,-0.70315 0.74559,-43.50797 -0.0447,-43.74256"
       style="fill:none;fill-rule:evenodd;stroke:#057ffa;stroke-width:6.59477139;stroke-linecap:round;stroke-linejoin:round;stroke-miterlimit:4;stroke-dasharray:none;stroke-opacity:1" />
    <path
       style="fill:none;fill-rule:evenodd;stroke:#057ffa;stroke-width:6.59477139;stroke-linecap:round;stroke-linejoin:round;stroke-miterlimit:4;stroke-dasharray:none;stroke-opacity:1"
       d="m 212.29218,674.65494 c 0.46417,-0.68124 -0.33722,-22.29135 -0.99856,-21.79923"
       id="path4511"
       inkscape:connector-curvature="0" />
    <path
       inkscape:connector-curvature="0"
       id="path4513"
       d="m 470.86025,674.24466 c 0.26188,-0.78165 2.26261,-22.72652 1.43891,-22.75913"
       style="fill:none;fill-rule:evenodd;stroke:#057ffa;stroke-width:6.59477139;stroke-linecap:round;stroke-linejoin:round;stroke-miterlimit:4;stroke-dasharray:none;stroke-opacity:1" />
  </g>
  <g
     id="g6038"
     transform="matrix(0.86116091,0,0,0.86116091,-246.67288,22.840428)">
    <path
       id="path4470"
       d="m 765.11552,183.17254 c 1.1409,0 2.2845,-0.2615 3.3379,-0.78824 2.7192,-1.3596 11.5916,-7.74339 11.5916,-32.80428 0,-50.23205 -42.6271,-89.58006 -97.045,-89.58006 -54.4179,0 -97.04508,39.34801 -97.04508,89.58006 0,21.56167 8.00766,33.04986 8.92074,34.28872 1.29034,1.75097 3.28006,2.85177 5.44884,3.01534 0.1873,0.0141 0.3745,0.021 0.5609,0.021 l -5e-4,0 0,29.86002 c 0,20.61397 16.7111,37.32502 37.3251,37.32502 l 0,14.93001 89.58,0 0,-14.93001 c 20.614,0 37.325,-16.71105 37.325,-37.32502 0,0 0,-33.59252 5e-4,-33.59252 z m -44.7905,78.38254 -74.65,0 0,-7.465 74.65,0 0,7.465 z m 37.325,-44.79002 c 0,16.46501 -13.395,29.86002 -29.86,29.86002 l -89.58,0 c -16.4651,0 -29.8601,-13.39501 -29.8601,-29.86002 l 0,-34.58169 c 3.9034,-4.91167 11.8837,-17.00448 14.2553,-36.31398 5.8156,2.11547 13.0008,3.71063 23.0698,3.71063 16.1041,0 32.4097,-4.0077 48.178,-7.88327 14.7437,-3.62407 28.67,-7.04674 41.402,-7.04674 18.8261,0 22.395,14.42972 22.395,41.05752 l 0,41.05753 z m 7.465,-41.05753 c 0,-18.44016 0,-48.52253 -29.86,-48.52253 -27.7751,0 -59.72,14.93001 -89.58,14.93001 -14.9301,0 -22.3951,-3.7325 -29.8601,-7.465 0,29.86001 -14.93,44.79002 -14.93,44.79002 0,0 -7.46497,-10.12951 -7.46497,-29.86001 0,-46.04756 39.35167,-82.11506 89.58007,-82.11506 50.2284,0 89.58,36.0675 89.58,82.11506 0,22.39501 -7.465,26.12751 -7.465,26.12751 z"
       inkscape:connector-curvature="0"
       style="fill:#057ffa" />
    <path
       d="m 710.22102,199.19605 c -6.4225,6.42253 -16.3443,10.104 -27.221,10.104 -10.8768,0 -20.7985,-3.68147 -27.221,-10.104 -1.4581,-1.45801 -3.82,-1.45801 -5.278,0 -1.458,1.45801 -1.458,3.81998 0,5.278 7.8076,7.81127 19.6539,12.29101 32.499,12.29101 12.845,0 24.6914,-4.47974 32.499,-12.29101 1.458,-1.45802 1.458,-3.81999 0,-5.278 -1.458,-1.45801 -3.82,-1.45801 -5.278,0 z m 2.639,-27.22102 a 7.4650044,7.4650044 0 0 1 -7.465,7.465 7.4650044,7.4650044 0 0 1 -7.465,-7.465 7.4650044,7.4650044 0 0 1 7.465,-7.46501 7.4650044,7.4650044 0 0 1 7.465,7.46501 z m -44.79,0 a 7.4650044,7.4650044 0 0 1 -7.465,7.465 7.4650044,7.4650044 0 0 1 -7.465,-7.465 7.4650044,7.4650044 0 0 1 7.465,-7.46501 7.4650044,7.4650044 0 0 1 7.465,7.46501 z"
       style="fill:#033494"
       id="path4476"
       inkscape:connector-curvature="0" />
  </g>
  <path
     id="path16312-0"
     d="m 683.28928,1.8805004 c -0.88792,0.464364 -0.54821,13.7544966 -0.93491,33.2867466 0.89641,9.44115 0.64051,18.87351 -0.23632,30.55905 -1.08559,9.6473 0.55649,20.1972 -0.28378,32.17296 -0.84321,10.531383 -0.264,22.171223 0.23334,32.635623 0.14543,10.98487 2.82725,19.69234 1.81804,31.01094 1.08785,10.24637 0.83288,22.0486 -0.15896,32.62791 0.94246,9.97421 0.59448,19.96157 0.20002,31.54531 -1.06758,10.59744 -0.54996,20.45391 -1.56301,30.93891 0.71565,9.8785 -1.38617,22.29597 -0.29911,33.09128 0.48944,9.80776 0.0993,20.77421 0.76312,32.10366 -0.68484,9.93629 -0.0747,19.58275 -0.95257,30.71627 0.50937,11.30009 1.28492,23.11885 1.27717,32.94403 -1.08838,10.67235 -1.18387,20.55222 -0.84399,30.38437 0.87143,11.13999 1.71345,22.43349 0.7197,33.32171 0.95807,11.07624 1.4775,19.55485 0.48151,30.40291 -1.08562,10.66049 -1.20079,21.57848 -0.18905,31.76265 -1.02793,11.04749 -1.45448,22.75095 -1.51121,32.38693 -1.08916,10.87351 2.45939,20.67037 2.1066,31.80404 0.22953,10.1296 -3.20878,21.76113 -2.12673,31.96299 0.83215,11.5329 -1.01559,21.73044 0.0271,32.15588 0.79601,11.72328 -0.33027,20.95693 0.74913,30.86831 1.02204,11.74455 -0.73723,21.63785 0.15424,31.81982 -0.95524,11.77491 -0.36023,23.81033 0.30983,33.42707 -0.7455,19.69698 -0.45265,30.93407 0.21197,30.2997"
     style="display:inline;fill:none;fill-rule:evenodd;stroke:#033494;stroke-width:3.73625946;stroke-linecap:round;stroke-linejoin:round;stroke-miterlimit:4;stroke-dasharray:14.94503815, 14.94503815;stroke-dashoffset:0;stroke-opacity:1"
     inkscape:connector-curvature="0" />
  <g
     id="g6448"
     transform="matrix(0.40946115,0,0,0.40946115,694.66899,645.35775)">
    <path
       style="fill:#033494"
       d="m 364.94152,194.38033 c -5.53084,5.53085 -14.07507,8.70119 -23.44171,8.70119 -9.36664,0 -17.91087,-3.17034 -23.44171,-8.70119 -1.25558,-1.25557 -3.28963,-1.25557 -4.54521,0 -1.25558,1.25559 -1.25558,3.28963 0,4.54522 6.72364,6.72363 16.92524,10.58455 27.98692,10.58455 11.06168,0 21.26328,-3.86092 27.98692,-10.58455 1.25558,-1.25559 1.25558,-3.28963 0,-4.54522 -1.25558,-1.25557 -3.28963,-1.25557 -4.54521,0 z m 2.27261,-23.4417 a 6.4285793,6.4285793 0 0 1 -6.42858,6.42858 6.4285793,6.4285793 0 0 1 -6.42858,-6.42858 6.4285793,6.4285793 0 0 1 6.42858,-6.42858 6.4285793,6.4285793 0 0 1 6.42858,6.42858 z m -38.57147,0 a 6.4285793,6.4285793 0 0 1 -6.42858,6.42858 6.4285793,6.4285793 0 0 1 -6.42858,-6.42858 6.4285793,6.4285793 0 0 1 6.42858,-6.42858 6.4285793,6.4285793 0 0 1 6.42858,6.42858 z"
       id="path4516"
       inkscape:connector-curvature="0" />
    <path
       style="fill:#057ffa"
       id="path4518"
       d="m 434.58629,208.68377 c -3.78911,-10.87216 -9.51496,-27.30263 -9.51496,-57.03088 4e-4,-21.00197 -8.67763,-40.52273 -24.43519,-54.966628 C 385.03475,82.385578 364.03358,74.50994 341.5002,74.50994 c -46.86224,0 -83.57152,33.88501 -83.57152,77.14295 0,29.72825 -5.72584,46.15872 -9.51456,57.03088 -1.96459,5.63717 -3.38419,9.70996 -3.3422,13.75019 0.13262,12.79006 24.22566,12.79006 32.14249,12.79045 1.65462,0 3.22802,-0.66114 4.4224,-1.80058 5.68033,5.06039 13.08591,8.22916 21.29152,8.22916 l 0,12.85716 77.14295,0 0,-12.85716 c 8.20641,0 15.61316,-3.16916 21.29349,-8.23033 -0.0373,-0.036 -0.0903,-0.0482 -0.12709,-0.0851 1.20572,1.2069 2.8419,1.88687 4.54792,1.88687 7.91723,-3.9e-4 32.00989,-3.9e-4 32.1425,-12.79045 0.0418,-4.04023 -1.37721,-8.11302 -3.34181,-13.75019 z m -60.94359,39.3978 -64.28579,0 0,-6.42858 64.28579,0 0,6.42858 z m -70.71437,-12.85716 c -7.71633,0 -14.56828,-3.48698 -19.28534,-8.88637 l 0,-62.83677 c 23.84272,-4.77396 37.1511,-16.784 47.05489,-25.7206 8.38141,-7.56331 13.46376,-11.8421 20.44519,-11.8421 7.21685,0 11.01459,4.49812 17.64799,13.11769 6.67381,8.67215 14.82489,19.26416 30.56635,24.03655 0,13.99385 0,53.09934 -3.9e-4,63.24483 -4.71706,5.39979 -11.5694,8.88677 -19.28574,8.88677 l -77.14295,0 z m 102.85727,-6.42857 3.9e-4,-70.71437 c -32.1429,-6.42858 -32.1429,-38.57148 -54.64292,-38.57148 -22.50003,0 -28.92861,32.1429 -73.92866,38.57148 l 0,70.71437 c 0,0 -25.6476,-4e-4 -25.71431,-6.42858 -0.0957,-9.25757 12.85716,-25.71432 12.85716,-70.71437 0,-39.65442 33.88815,-70.714371 77.14294,-70.714371 43.2548,0 77.14295,31.059951 77.14256,70.714371 0,45.00005 12.95329,61.4568 12.85715,70.71437 -0.0667,6.42818 -25.71431,6.42858 -25.71431,6.42858 z"
       inkscape:connector-curvature="0" />
  </g>
  <g
     transform="matrix(0.35261194,0,0,0.35261194,688.66605,594.19678)"
     id="g6463">
    <path
       style="fill:#057ffa"
       inkscape:connector-curvature="0"
       d="m 765.11552,183.17254 c 1.1409,0 2.2845,-0.2615 3.3379,-0.78824 2.7192,-1.3596 11.5916,-7.74339 11.5916,-32.80428 0,-50.23205 -42.6271,-89.58006 -97.045,-89.58006 -54.4179,0 -97.04508,39.34801 -97.04508,89.58006 0,21.56167 8.00766,33.04986 8.92074,34.28872 1.29034,1.75097 3.28006,2.85177 5.44884,3.01534 0.1873,0.0141 0.3745,0.021 0.5609,0.021 l -5e-4,0 0,29.86002 c 0,20.61397 16.7111,37.32502 37.3251,37.32502 l 0,14.93001 89.58,0 0,-14.93001 c 20.614,0 37.325,-16.71105 37.325,-37.32502 0,0 0,-33.59252 5e-4,-33.59252 z m -44.7905,78.38254 -74.65,0 0,-7.465 74.65,0 0,7.465 z m 37.325,-44.79002 c 0,16.46501 -13.395,29.86002 -29.86,29.86002 l -89.58,0 c -16.4651,0 -29.8601,-13.39501 -29.8601,-29.86002 l 0,-34.58169 c 3.9034,-4.91167 11.8837,-17.00448 14.2553,-36.31398 5.8156,2.11547 13.0008,3.71063 23.0698,3.71063 16.1041,0 32.4097,-4.0077 48.178,-7.88327 14.7437,-3.62407 28.67,-7.04674 41.402,-7.04674 18.8261,0 22.395,14.42972 22.395,41.05752 l 0,41.05753 z m 7.465,-41.05753 c 0,-18.44016 0,-48.52253 -29.86,-48.52253 -27.7751,0 -59.72,14.93001 -89.58,14.93001 -14.9301,0 -22.3951,-3.7325 -29.8601,-7.465 0,29.86001 -14.93,44.79002 -14.93,44.79002 0,0 -7.46497,-10.12951 -7.46497,-29.86001 0,-46.04756 39.35167,-82.11506 89.58007,-82.11506 50.2284,0 89.58,36.0675 89.58,82.11506 0,22.39501 -7.465,26.12751 -7.465,26.12751 z"
       id="path6465" />
    <path
       inkscape:connector-curvature="0"
       id="path6467"
       style="fill:#033494"
       d="m 710.22102,199.19605 c -6.4225,6.42253 -16.3443,10.104 -27.221,10.104 -10.8768,0 -20.7985,-3.68147 -27.221,-10.104 -1.4581,-1.45801 -3.82,-1.45801 -5.278,0 -1.458,1.45801 -1.458,3.81998 0,5.278 7.8076,7.81127 19.6539,12.29101 32.499,12.29101 12.845,0 24.6914,-4.47974 32.499,-12.29101 1.458,-1.45802 1.458,-3.81999 0,-5.278 -1.458,-1.45801 -3.82,-1.45801 -5.278,0 z m 2.639,-27.22102 a 7.4650044,7.4650044 0 0 1 -7.465,7.465 7.4650044,7.4650044 0 0 1 -7.465,-7.465 7.4650044,7.4650044 0 0 1 7.465,-7.46501 7.4650044,7.4650044 0 0 1 7.465,7.46501 z m -44.79,0 a 7.4650044,7.4650044 0 0 1 -7.465,7.465 7.4650044,7.4650044 0 0 1 -7.465,-7.465 7.4650044,7.4650044 0 0 1 7.465,-7.46501 7.4650044,7.4650044 0 0 1 7.465,7.46501 z" />
  </g>
  <g
     transform="matrix(0.40946115,0,0,0.40946115,884.66897,645.35775)"
     id="g6469">
    <path
       inkscape:connector-curvature="0"
       id="path6471"
       d="m 364.94152,194.38033 c -5.53084,5.53085 -14.07507,8.70119 -23.44171,8.70119 -9.36664,0 -17.91087,-3.17034 -23.44171,-8.70119 -1.25558,-1.25557 -3.28963,-1.25557 -4.54521,0 -1.25558,1.25559 -1.25558,3.28963 0,4.54522 6.72364,6.72363 16.92524,10.58455 27.98692,10.58455 11.06168,0 21.26328,-3.86092 27.98692,-10.58455 1.25558,-1.25559 1.25558,-3.28963 0,-4.54522 -1.25558,-1.25557 -3.28963,-1.25557 -4.54521,0 z m 2.27261,-23.4417 a 6.4285793,6.4285793 0 0 1 -6.42858,6.42858 6.4285793,6.4285793 0 0 1 -6.42858,-6.42858 6.4285793,6.4285793 0 0 1 6.42858,-6.42858 6.4285793,6.4285793 0 0 1 6.42858,6.42858 z m -38.57147,0 a 6.4285793,6.4285793 0 0 1 -6.42858,6.42858 6.4285793,6.4285793 0 0 1 -6.42858,-6.42858 6.4285793,6.4285793 0 0 1 6.42858,-6.42858 6.4285793,6.4285793 0 0 1 6.42858,6.42858 z"
       style="fill:#033494" />
    <path
       inkscape:connector-curvature="0"
       d="m 434.58629,208.68377 c -3.78911,-10.87216 -9.51496,-27.30263 -9.51496,-57.03088 4e-4,-21.00197 -8.67763,-40.52273 -24.43519,-54.966628 C 385.03475,82.385578 364.03358,74.50994 341.5002,74.50994 c -46.86224,0 -83.57152,33.88501 -83.57152,77.14295 0,29.72825 -5.72584,46.15872 -9.51456,57.03088 -1.96459,5.63717 -3.38419,9.70996 -3.3422,13.75019 0.13262,12.79006 24.22566,12.79006 32.14249,12.79045 1.65462,0 3.22802,-0.66114 4.4224,-1.80058 5.68033,5.06039 13.08591,8.22916 21.29152,8.22916 l 0,12.85716 77.14295,0 0,-12.85716 c 8.20641,0 15.61316,-3.16916 21.29349,-8.23033 -0.0373,-0.036 -0.0903,-0.0482 -0.12709,-0.0851 1.20572,1.2069 2.8419,1.88687 4.54792,1.88687 7.91723,-3.9e-4 32.00989,-3.9e-4 32.1425,-12.79045 0.0418,-4.04023 -1.37721,-8.11302 -3.34181,-13.75019 z m -60.94359,39.3978 -64.28579,0 0,-6.42858 64.28579,0 0,6.42858 z m -70.71437,-12.85716 c -7.71633,0 -14.56828,-3.48698 -19.28534,-8.88637 l 0,-62.83677 c 23.84272,-4.77396 37.1511,-16.784 47.05489,-25.7206 8.38141,-7.56331 13.46376,-11.8421 20.44519,-11.8421 7.21685,0 11.01459,4.49812 17.64799,13.11769 6.67381,8.67215 14.82489,19.26416 30.56635,24.03655 0,13.99385 0,53.09934 -3.9e-4,63.24483 -4.71706,5.39979 -11.5694,8.88677 -19.28574,8.88677 l -77.14295,0 z m 102.85727,-6.42857 3.9e-4,-70.71437 c -32.1429,-6.42858 -32.1429,-38.57148 -54.64292,-38.57148 -22.50003,0 -28.92861,32.1429 -73.92866,38.57148 l 0,70.71437 c 0,0 -25.6476,-4e-4 -25.71431,-6.42858 -0.0957,-9.25757 12.85716,-25.71432 12.85716,-70.71437 0,-39.65442 33.88815,-70.714371 77.14294,-70.714371 43.2548,0 77.14295,31.059951 77.14256,70.714371 0,45.00005 12.95329,61.4568 12.85715,70.71437 -0.0667,6.42818 -25.71431,6.42858 -25.71431,6.42858 z"
       id="path6473"
       style="fill:#057ffa" />
  </g>
  <g
     id="g6475"
     transform="matrix(0.35261194,0,0,0.35261194,878.66618,594.19678)">
    <path
       id="path6477"
       d="m 765.11552,183.17254 c 1.1409,0 2.2845,-0.2615 3.3379,-0.78824 2.7192,-1.3596 11.5916,-7.74339 11.5916,-32.80428 0,-50.23205 -42.6271,-89.58006 -97.045,-89.58006 -54.4179,0 -97.04508,39.34801 -97.04508,89.58006 0,21.56167 8.00766,33.04986 8.92074,34.28872 1.29034,1.75097 3.28006,2.85177 5.44884,3.01534 0.1873,0.0141 0.3745,0.021 0.5609,0.021 l -5e-4,0 0,29.86002 c 0,20.61397 16.7111,37.32502 37.3251,37.32502 l 0,14.93001 89.58,0 0,-14.93001 c 20.614,0 37.325,-16.71105 37.325,-37.32502 0,0 0,-33.59252 5e-4,-33.59252 z m -44.7905,78.38254 -74.65,0 0,-7.465 74.65,0 0,7.465 z m 37.325,-44.79002 c 0,16.46501 -13.395,29.86002 -29.86,29.86002 l -89.58,0 c -16.4651,0 -29.8601,-13.39501 -29.8601,-29.86002 l 0,-34.58169 c 3.9034,-4.91167 11.8837,-17.00448 14.2553,-36.31398 5.8156,2.11547 13.0008,3.71063 23.0698,3.71063 16.1041,0 32.4097,-4.0077 48.178,-7.88327 14.7437,-3.62407 28.67,-7.04674 41.402,-7.04674 18.8261,0 22.395,14.42972 22.395,41.05752 l 0,41.05753 z m 7.465,-41.05753 c 0,-18.44016 0,-48.52253 -29.86,-48.52253 -27.7751,0 -59.72,14.93001 -89.58,14.93001 -14.9301,0 -22.3951,-3.7325 -29.8601,-7.465 0,29.86001 -14.93,44.79002 -14.93,44.79002 0,0 -7.46497,-10.12951 -7.46497,-29.86001 0,-46.04756 39.35167,-82.11506 89.58007,-82.11506 50.2284,0 89.58,36.0675 89.58,82.11506 0,22.39501 -7.465,26.12751 -7.465,26.12751 z"
       inkscape:connector-curvature="0"
       style="fill:#057ffa" />
    <path
       d="m 710.22102,199.19605 c -6.4225,6.42253 -16.3443,10.104 -27.221,10.104 -10.8768,0 -20.7985,-3.68147 -27.221,-10.104 -1.4581,-1.45801 -3.82,-1.45801 -5.278,0 -1.458,1.45801 -1.458,3.81998 0,5.278 7.8076,7.81127 19.6539,12.29101 32.499,12.29101 12.845,0 24.6914,-4.47974 32.499,-12.29101 1.458,-1.45802 1.458,-3.81999 0,-5.278 -1.458,-1.45801 -3.82,-1.45801 -5.278,0 z m 2.639,-27.22102 a 7.4650044,7.4650044 0 0 1 -7.465,7.465 7.4650044,7.4650044 0 0 1 -7.465,-7.465 7.4650044,7.4650044 0 0 1 7.465,-7.46501 7.4650044,7.4650044 0 0 1 7.465,7.46501 z m -44.79,0 a 7.4650044,7.4650044 0 0 1 -7.465,7.465 7.4650044,7.4650044 0 0 1 -7.465,-7.465 7.4650044,7.4650044 0 0 1 7.465,-7.46501 7.4650044,7.4650044 0 0 1 7.465,7.46501 z"
       style="fill:#033494"
       id="path6479"
       inkscape:connector-curvature="0" />
  </g>
  <g
     id="g6487"
     transform="matrix(0.40946115,0,0,0.40946115,1074.6689,645.35775)">
    <path
       style="fill:#033494"
       d="m 364.94152,194.38033 c -5.53084,5.53085 -14.07507,8.70119 -23.44171,8.70119 -9.36664,0 -17.91087,-3.17034 -23.44171,-8.70119 -1.25558,-1.25557 -3.28963,-1.25557 -4.54521,0 -1.25558,1.25559 -1.25558,3.28963 0,4.54522 6.72364,6.72363 16.92524,10.58455 27.98692,10.58455 11.06168,0 21.26328,-3.86092 27.98692,-10.58455 1.25558,-1.25559 1.25558,-3.28963 0,-4.54522 -1.25558,-1.25557 -3.28963,-1.25557 -4.54521,0 z m 2.27261,-23.4417 a 6.4285793,6.4285793 0 0 1 -6.42858,6.42858 6.4285793,6.4285793 0 0 1 -6.42858,-6.42858 6.4285793,6.4285793 0 0 1 6.42858,-6.42858 6.4285793,6.4285793 0 0 1 6.42858,6.42858 z m -38.57147,0 a 6.4285793,6.4285793 0 0 1 -6.42858,6.42858 6.4285793,6.4285793 0 0 1 -6.42858,-6.42858 6.4285793,6.4285793 0 0 1 6.42858,-6.42858 6.4285793,6.4285793 0 0 1 6.42858,6.42858 z"
       id="path6489"
       inkscape:connector-curvature="0" />
    <path
       style="fill:#057ffa"
       id="path6491"
       d="m 434.58629,208.68377 c -3.78911,-10.87216 -9.51496,-27.30263 -9.51496,-57.03088 4e-4,-21.00197 -8.67763,-40.52273 -24.43519,-54.966628 C 385.03475,82.385578 364.03358,74.50994 341.5002,74.50994 c -46.86224,0 -83.57152,33.88501 -83.57152,77.14295 0,29.72825 -5.72584,46.15872 -9.51456,57.03088 -1.96459,5.63717 -3.38419,9.70996 -3.3422,13.75019 0.13262,12.79006 24.22566,12.79006 32.14249,12.79045 1.65462,0 3.22802,-0.66114 4.4224,-1.80058 5.68033,5.06039 13.08591,8.22916 21.29152,8.22916 l 0,12.85716 77.14295,0 0,-12.85716 c 8.20641,0 15.61316,-3.16916 21.29349,-8.23033 -0.0373,-0.036 -0.0903,-0.0482 -0.12709,-0.0851 1.20572,1.2069 2.8419,1.88687 4.54792,1.88687 7.91723,-3.9e-4 32.00989,-3.9e-4 32.1425,-12.79045 0.0418,-4.04023 -1.37721,-8.11302 -3.34181,-13.75019 z m -60.94359,39.3978 -64.28579,0 0,-6.42858 64.28579,0 0,6.42858 z m -70.71437,-12.85716 c -7.71633,0 -14.56828,-3.48698 -19.28534,-8.88637 l 0,-62.83677 c 23.84272,-4.77396 37.1511,-16.784 47.05489,-25.7206 8.38141,-7.56331 13.46376,-11.8421 20.44519,-11.8421 7.21685,0 11.01459,4.49812 17.64799,13.11769 6.67381,8.67215 14.82489,19.26416 30.56635,24.03655 0,13.99385 0,53.09934 -3.9e-4,63.24483 -4.71706,5.39979 -11.5694,8.88677 -19.28574,8.88677 l -77.14295,0 z m 102.85727,-6.42857 3.9e-4,-70.71437 c -32.1429,-6.42858 -32.1429,-38.57148 -54.64292,-38.57148 -22.50003,0 -28.92861,32.1429 -73.92866,38.57148 l 0,70.71437 c 0,0 -25.6476,-4e-4 -25.71431,-6.42858 -0.0957,-9.25757 12.85716,-25.71432 12.85716,-70.71437 0,-39.65442 33.88815,-70.714371 77.14294,-70.714371 43.2548,0 77.14295,31.059951 77.14256,70.714371 0,45.00005 12.95329,61.4568 12.85715,70.71437 -0.0667,6.42818 -25.71431,6.42858 -25.71431,6.42858 z"
       inkscape:connector-curvature="0" />
  </g>
  <g
     transform="matrix(0.40946115,0,0,0.40946115,694.66899,524.33129)"
     id="g6568">
    <path
       inkscape:connector-curvature="0"
       id="path6570"
       d="m 364.94152,194.38033 c -5.53084,5.53085 -14.07507,8.70119 -23.44171,8.70119 -9.36664,0 -17.91087,-3.17034 -23.44171,-8.70119 -1.25558,-1.25557 -3.28963,-1.25557 -4.54521,0 -1.25558,1.25559 -1.25558,3.28963 0,4.54522 6.72364,6.72363 16.92524,10.58455 27.98692,10.58455 11.06168,0 21.26328,-3.86092 27.98692,-10.58455 1.25558,-1.25559 1.25558,-3.28963 0,-4.54522 -1.25558,-1.25557 -3.28963,-1.25557 -4.54521,0 z m 2.27261,-23.4417 a 6.4285793,6.4285793 0 0 1 -6.42858,6.42858 6.4285793,6.4285793 0 0 1 -6.42858,-6.42858 6.4285793,6.4285793 0 0 1 6.42858,-6.42858 6.4285793,6.4285793 0 0 1 6.42858,6.42858 z m -38.57147,0 a 6.4285793,6.4285793 0 0 1 -6.42858,6.42858 6.4285793,6.4285793 0 0 1 -6.42858,-6.42858 6.4285793,6.4285793 0 0 1 6.42858,-6.42858 6.4285793,6.4285793 0 0 1 6.42858,6.42858 z"
       style="fill:#033494" />
    <path
       inkscape:connector-curvature="0"
       d="m 434.58629,208.68377 c -3.78911,-10.87216 -9.51496,-27.30263 -9.51496,-57.03088 4e-4,-21.00197 -8.67763,-40.52273 -24.43519,-54.966628 C 385.03475,82.385578 364.03358,74.50994 341.5002,74.50994 c -46.86224,0 -83.57152,33.88501 -83.57152,77.14295 0,29.72825 -5.72584,46.15872 -9.51456,57.03088 -1.96459,5.63717 -3.38419,9.70996 -3.3422,13.75019 0.13262,12.79006 24.22566,12.79006 32.14249,12.79045 1.65462,0 3.22802,-0.66114 4.4224,-1.80058 5.68033,5.06039 13.08591,8.22916 21.29152,8.22916 l 0,12.85716 77.14295,0 0,-12.85716 c 8.20641,0 15.61316,-3.16916 21.29349,-8.23033 -0.0373,-0.036 -0.0903,-0.0482 -0.12709,-0.0851 1.20572,1.2069 2.8419,1.88687 4.54792,1.88687 7.91723,-3.9e-4 32.00989,-3.9e-4 32.1425,-12.79045 0.0418,-4.04023 -1.37721,-8.11302 -3.34181,-13.75019 z m -60.94359,39.3978 -64.28579,0 0,-6.42858 64.28579,0 0,6.42858 z m -70.71437,-12.85716 c -7.71633,0 -14.56828,-3.48698 -19.28534,-8.88637 l 0,-62.83677 c 23.84272,-4.77396 37.1511,-16.784 47.05489,-25.7206 8.38141,-7.56331 13.46376,-11.8421 20.44519,-11.8421 7.21685,0 11.01459,4.49812 17.64799,13.11769 6.67381,8.67215 14.82489,19.26416 30.56635,24.03655 0,13.99385 0,53.09934 -3.9e-4,63.24483 -4.71706,5.39979 -11.5694,8.88677 -19.28574,8.88677 l -77.14295,0 z m 102.85727,-6.42857 3.9e-4,-70.71437 c -32.1429,-6.42858 -32.1429,-38.57148 -54.64292,-38.57148 -22.50003,0 -28.92861,32.1429 -73.92866,38.57148 l 0,70.71437 c 0,0 -25.6476,-4e-4 -25.71431,-6.42858 -0.0957,-9.25757 12.85716,-25.71432 12.85716,-70.71437 0,-39.65442 33.88815,-70.714371 77.14294,-70.714371 43.2548,0 77.14295,31.059951 77.14256,70.714371 0,45.00005 12.95329,61.4568 12.85715,70.71437 -0.0667,6.42818 -25.71431,6.42858 -25.71431,6.42858 z"
       id="path6572"
       style="fill:#057ffa" />
  </g>
  <g
     id="g6574"
     transform="matrix(0.35261194,0,0,0.35261194,688.66599,473.17032)">
    <path
       id="path6576"
       d="m 765.11552,183.17254 c 1.1409,0 2.2845,-0.2615 3.3379,-0.78824 2.7192,-1.3596 11.5916,-7.74339 11.5916,-32.80428 0,-50.23205 -42.6271,-89.58006 -97.045,-89.58006 -54.4179,0 -97.04508,39.34801 -97.04508,89.58006 0,21.56167 8.00766,33.04986 8.92074,34.28872 1.29034,1.75097 3.28006,2.85177 5.44884,3.01534 0.1873,0.0141 0.3745,0.021 0.5609,0.021 l -5e-4,0 0,29.86002 c 0,20.61397 16.7111,37.32502 37.3251,37.32502 l 0,14.93001 89.58,0 0,-14.93001 c 20.614,0 37.325,-16.71105 37.325,-37.32502 0,0 0,-33.59252 5e-4,-33.59252 z m -44.7905,78.38254 -74.65,0 0,-7.465 74.65,0 0,7.465 z m 37.325,-44.79002 c 0,16.46501 -13.395,29.86002 -29.86,29.86002 l -89.58,0 c -16.4651,0 -29.8601,-13.39501 -29.8601,-29.86002 l 0,-34.58169 c 3.9034,-4.91167 11.8837,-17.00448 14.2553,-36.31398 5.8156,2.11547 13.0008,3.71063 23.0698,3.71063 16.1041,0 32.4097,-4.0077 48.178,-7.88327 14.7437,-3.62407 28.67,-7.04674 41.402,-7.04674 18.8261,0 22.395,14.42972 22.395,41.05752 l 0,41.05753 z m 7.465,-41.05753 c 0,-18.44016 0,-48.52253 -29.86,-48.52253 -27.7751,0 -59.72,14.93001 -89.58,14.93001 -14.9301,0 -22.3951,-3.7325 -29.8601,-7.465 0,29.86001 -14.93,44.79002 -14.93,44.79002 0,0 -7.46497,-10.12951 -7.46497,-29.86001 0,-46.04756 39.35167,-82.11506 89.58007,-82.11506 50.2284,0 89.58,36.0675 89.58,82.11506 0,22.39501 -7.465,26.12751 -7.465,26.12751 z"
       inkscape:connector-curvature="0"
       style="fill:#057ffa" />
    <path
       d="m 710.22102,199.19605 c -6.4225,6.42253 -16.3443,10.104 -27.221,10.104 -10.8768,0 -20.7985,-3.68147 -27.221,-10.104 -1.4581,-1.45801 -3.82,-1.45801 -5.278,0 -1.458,1.45801 -1.458,3.81998 0,5.278 7.8076,7.81127 19.6539,12.29101 32.499,12.29101 12.845,0 24.6914,-4.47974 32.499,-12.29101 1.458,-1.45802 1.458,-3.81999 0,-5.278 -1.458,-1.45801 -3.82,-1.45801 -5.278,0 z m 2.639,-27.22102 a 7.4650044,7.4650044 0 0 1 -7.465,7.465 7.4650044,7.4650044 0 0 1 -7.465,-7.465 7.4650044,7.4650044 0 0 1 7.465,-7.46501 7.4650044,7.4650044 0 0 1 7.465,7.46501 z m -44.79,0 a 7.4650044,7.4650044 0 0 1 -7.465,7.465 7.4650044,7.4650044 0 0 1 -7.465,-7.465 7.4650044,7.4650044 0 0 1 7.465,-7.46501 7.4650044,7.4650044 0 0 1 7.465,7.46501 z"
       style="fill:#033494"
       id="path6578"
       inkscape:connector-curvature="0" />
  </g>
  <g
     id="g6580"
     transform="matrix(0.40946115,0,0,0.40946115,884.66905,524.33129)">
    <path
       style="fill:#033494"
       d="m 364.94152,194.38033 c -5.53084,5.53085 -14.07507,8.70119 -23.44171,8.70119 -9.36664,0 -17.91087,-3.17034 -23.44171,-8.70119 -1.25558,-1.25557 -3.28963,-1.25557 -4.54521,0 -1.25558,1.25559 -1.25558,3.28963 0,4.54522 6.72364,6.72363 16.92524,10.58455 27.98692,10.58455 11.06168,0 21.26328,-3.86092 27.98692,-10.58455 1.25558,-1.25559 1.25558,-3.28963 0,-4.54522 -1.25558,-1.25557 -3.28963,-1.25557 -4.54521,0 z m 2.27261,-23.4417 a 6.4285793,6.4285793 0 0 1 -6.42858,6.42858 6.4285793,6.4285793 0 0 1 -6.42858,-6.42858 6.4285793,6.4285793 0 0 1 6.42858,-6.42858 6.4285793,6.4285793 0 0 1 6.42858,6.42858 z m -38.57147,0 a 6.4285793,6.4285793 0 0 1 -6.42858,6.42858 6.4285793,6.4285793 0 0 1 -6.42858,-6.42858 6.4285793,6.4285793 0 0 1 6.42858,-6.42858 6.4285793,6.4285793 0 0 1 6.42858,6.42858 z"
       id="path6582"
       inkscape:connector-curvature="0" />
    <path
       style="fill:#057ffa"
       id="path6584"
       d="m 434.58629,208.68377 c -3.78911,-10.87216 -9.51496,-27.30263 -9.51496,-57.03088 4e-4,-21.00197 -8.67763,-40.52273 -24.43519,-54.966628 C 385.03475,82.385578 364.03358,74.50994 341.5002,74.50994 c -46.86224,0 -83.57152,33.88501 -83.57152,77.14295 0,29.72825 -5.72584,46.15872 -9.51456,57.03088 -1.96459,5.63717 -3.38419,9.70996 -3.3422,13.75019 0.13262,12.79006 24.22566,12.79006 32.14249,12.79045 1.65462,0 3.22802,-0.66114 4.4224,-1.80058 5.68033,5.06039 13.08591,8.22916 21.29152,8.22916 l 0,12.85716 77.14295,0 0,-12.85716 c 8.20641,0 15.61316,-3.16916 21.29349,-8.23033 -0.0373,-0.036 -0.0903,-0.0482 -0.12709,-0.0851 1.20572,1.2069 2.8419,1.88687 4.54792,1.88687 7.91723,-3.9e-4 32.00989,-3.9e-4 32.1425,-12.79045 0.0418,-4.04023 -1.37721,-8.11302 -3.34181,-13.75019 z m -60.94359,39.3978 -64.28579,0 0,-6.42858 64.28579,0 0,6.42858 z m -70.71437,-12.85716 c -7.71633,0 -14.56828,-3.48698 -19.28534,-8.88637 l 0,-62.83677 c 23.84272,-4.77396 37.1511,-16.784 47.05489,-25.7206 8.38141,-7.56331 13.46376,-11.8421 20.44519,-11.8421 7.21685,0 11.01459,4.49812 17.64799,13.11769 6.67381,8.67215 14.82489,19.26416 30.56635,24.03655 0,13.99385 0,53.09934 -3.9e-4,63.24483 -4.71706,5.39979 -11.5694,8.88677 -19.28574,8.88677 l -77.14295,0 z m 102.85727,-6.42857 3.9e-4,-70.71437 c -32.1429,-6.42858 -32.1429,-38.57148 -54.64292,-38.57148 -22.50003,0 -28.92861,32.1429 -73.92866,38.57148 l 0,70.71437 c 0,0 -25.6476,-4e-4 -25.71431,-6.42858 -0.0957,-9.25757 12.85716,-25.71432 12.85716,-70.71437 0,-39.65442 33.88815,-70.714371 77.14294,-70.714371 43.2548,0 77.14295,31.059951 77.14256,70.714371 0,45.00005 12.95329,61.4568 12.85715,70.71437 -0.0667,6.42818 -25.71431,6.42858 -25.71431,6.42858 z"
       inkscape:connector-curvature="0" />
  </g>
  <g
     transform="matrix(0.35261194,0,0,0.35261194,878.66605,473.17032)"
     id="g6586">
    <path
       style="fill:#057ffa"
       inkscape:connector-curvature="0"
       d="m 765.11552,183.17254 c 1.1409,0 2.2845,-0.2615 3.3379,-0.78824 2.7192,-1.3596 11.5916,-7.74339 11.5916,-32.80428 0,-50.23205 -42.6271,-89.58006 -97.045,-89.58006 -54.4179,0 -97.04508,39.34801 -97.04508,89.58006 0,21.56167 8.00766,33.04986 8.92074,34.28872 1.29034,1.75097 3.28006,2.85177 5.44884,3.01534 0.1873,0.0141 0.3745,0.021 0.5609,0.021 l -5e-4,0 0,29.86002 c 0,20.61397 16.7111,37.32502 37.3251,37.32502 l 0,14.93001 89.58,0 0,-14.93001 c 20.614,0 37.325,-16.71105 37.325,-37.32502 0,0 0,-33.59252 5e-4,-33.59252 z m -44.7905,78.38254 -74.65,0 0,-7.465 74.65,0 0,7.465 z m 37.325,-44.79002 c 0,16.46501 -13.395,29.86002 -29.86,29.86002 l -89.58,0 c -16.4651,0 -29.8601,-13.39501 -29.8601,-29.86002 l 0,-34.58169 c 3.9034,-4.91167 11.8837,-17.00448 14.2553,-36.31398 5.8156,2.11547 13.0008,3.71063 23.0698,3.71063 16.1041,0 32.4097,-4.0077 48.178,-7.88327 14.7437,-3.62407 28.67,-7.04674 41.402,-7.04674 18.8261,0 22.395,14.42972 22.395,41.05752 l 0,41.05753 z m 7.465,-41.05753 c 0,-18.44016 0,-48.52253 -29.86,-48.52253 -27.7751,0 -59.72,14.93001 -89.58,14.93001 -14.9301,0 -22.3951,-3.7325 -29.8601,-7.465 0,29.86001 -14.93,44.79002 -14.93,44.79002 0,0 -7.46497,-10.12951 -7.46497,-29.86001 0,-46.04756 39.35167,-82.11506 89.58007,-82.11506 50.2284,0 89.58,36.0675 89.58,82.11506 0,22.39501 -7.465,26.12751 -7.465,26.12751 z"
       id="path6588" />
    <path
       inkscape:connector-curvature="0"
       id="path6590"
       style="fill:#033494"
       d="m 710.22102,199.19605 c -6.4225,6.42253 -16.3443,10.104 -27.221,10.104 -10.8768,0 -20.7985,-3.68147 -27.221,-10.104 -1.4581,-1.45801 -3.82,-1.45801 -5.278,0 -1.458,1.45801 -1.458,3.81998 0,5.278 7.8076,7.81127 19.6539,12.29101 32.499,12.29101 12.845,0 24.6914,-4.47974 32.499,-12.29101 1.458,-1.45802 1.458,-3.81999 0,-5.278 -1.458,-1.45801 -3.82,-1.45801 -5.278,0 z m 2.639,-27.22102 a 7.4650044,7.4650044 0 0 1 -7.465,7.465 7.4650044,7.4650044 0 0 1 -7.465,-7.465 7.4650044,7.4650044 0 0 1 7.465,-7.46501 7.4650044,7.4650044 0 0 1 7.465,7.46501 z m -44.79,0 a 7.4650044,7.4650044 0 0 1 -7.465,7.465 7.4650044,7.4650044 0 0 1 -7.465,-7.465 7.4650044,7.4650044 0 0 1 7.465,-7.46501 7.4650044,7.4650044 0 0 1 7.465,7.46501 z" />
  </g>
  <g
     transform="matrix(0.40946115,0,0,0.40946115,1074.6692,524.33129)"
     id="g6592">
    <path
       inkscape:connector-curvature="0"
       id="path6594"
       d="m 364.94152,194.38033 c -5.53084,5.53085 -14.07507,8.70119 -23.44171,8.70119 -9.36664,0 -17.91087,-3.17034 -23.44171,-8.70119 -1.25558,-1.25557 -3.28963,-1.25557 -4.54521,0 -1.25558,1.25559 -1.25558,3.28963 0,4.54522 6.72364,6.72363 16.92524,10.58455 27.98692,10.58455 11.06168,0 21.26328,-3.86092 27.98692,-10.58455 1.25558,-1.25559 1.25558,-3.28963 0,-4.54522 -1.25558,-1.25557 -3.28963,-1.25557 -4.54521,0 z m 2.27261,-23.4417 a 6.4285793,6.4285793 0 0 1 -6.42858,6.42858 6.4285793,6.4285793 0 0 1 -6.42858,-6.42858 6.4285793,6.4285793 0 0 1 6.42858,-6.42858 6.4285793,6.4285793 0 0 1 6.42858,6.42858 z m -38.57147,0 a 6.4285793,6.4285793 0 0 1 -6.42858,6.42858 6.4285793,6.4285793 0 0 1 -6.42858,-6.42858 6.4285793,6.4285793 0 0 1 6.42858,-6.42858 6.4285793,6.4285793 0 0 1 6.42858,6.42858 z"
       style="fill:#033494" />
    <path
       inkscape:connector-curvature="0"
       d="m 434.58629,208.68377 c -3.78911,-10.87216 -9.51496,-27.30263 -9.51496,-57.03088 4e-4,-21.00197 -8.67763,-40.52273 -24.43519,-54.966628 C 385.03475,82.385578 364.03358,74.50994 341.5002,74.50994 c -46.86224,0 -83.57152,33.88501 -83.57152,77.14295 0,29.72825 -5.72584,46.15872 -9.51456,57.03088 -1.96459,5.63717 -3.38419,9.70996 -3.3422,13.75019 0.13262,12.79006 24.22566,12.79006 32.14249,12.79045 1.65462,0 3.22802,-0.66114 4.4224,-1.80058 5.68033,5.06039 13.08591,8.22916 21.29152,8.22916 l 0,12.85716 77.14295,0 0,-12.85716 c 8.20641,0 15.61316,-3.16916 21.29349,-8.23033 -0.0373,-0.036 -0.0903,-0.0482 -0.12709,-0.0851 1.20572,1.2069 2.8419,1.88687 4.54792,1.88687 7.91723,-3.9e-4 32.00989,-3.9e-4 32.1425,-12.79045 0.0418,-4.04023 -1.37721,-8.11302 -3.34181,-13.75019 z m -60.94359,39.3978 -64.28579,0 0,-6.42858 64.28579,0 0,6.42858 z m -70.71437,-12.85716 c -7.71633,0 -14.56828,-3.48698 -19.28534,-8.88637 l 0,-62.83677 c 23.84272,-4.77396 37.1511,-16.784 47.05489,-25.7206 8.38141,-7.56331 13.46376,-11.8421 20.44519,-11.8421 7.21685,0 11.01459,4.49812 17.64799,13.11769 6.67381,8.67215 14.82489,19.26416 30.56635,24.03655 0,13.99385 0,53.09934 -3.9e-4,63.24483 -4.71706,5.39979 -11.5694,8.88677 -19.28574,8.88677 l -77.14295,0 z m 102.85727,-6.42857 3.9e-4,-70.71437 c -32.1429,-6.42858 -32.1429,-38.57148 -54.64292,-38.57148 -22.50003,0 -28.92861,32.1429 -73.92866,38.57148 l 0,70.71437 c 0,0 -25.6476,-4e-4 -25.71431,-6.42858 -0.0957,-9.25757 12.85716,-25.71432 12.85716,-70.71437 0,-39.65442 33.88815,-70.714371 77.14294,-70.714371 43.2548,0 77.14295,31.059951 77.14256,70.714371 0,45.00005 12.95329,61.4568 12.85715,70.71437 -0.0667,6.42818 -25.71431,6.42858 -25.71431,6.42858 z"
       id="path6596"
       style="fill:#057ffa" />
  </g>
  <path
     inkscape:connector-curvature="0"
     id="path4650"
     style="display:inline;fill:none;fill-rule:evenodd;stroke:#000000;stroke-width:8;stroke-linecap:round;stroke-linejoin:round;stroke-miterlimit:4;stroke-dasharray:none;stroke-opacity:1"
     d="m 505.50479,512.10813 c 0.90452,-0.42645 10.99731,-10.16473 27.9859,-27.59152 6.69367,-8.57615 17.01982,-17.60251 25.84087,-27.60088 7.58246,-9.5365 16.91022,-18.95739 25.88869,-29.722 9.34817,-8.55705 17.07243,-17.59697 25.08767,-27.5744 7.69751,-9.11793 16.92103,-19.3446 26.52088,-28.21206 7.91648,-9.24666 17.72778,-19.08418 25.62309,-27.32505 8.17278,-9.92605 20.04626,-20.33678 27.36913,-28.57046 10.00119,-11.36117 17.46588,-20.13006 24.91461,-27.19616 17.00427,-17.37338 26.66743,-29.23674 26.33425,-28.29387 m -242.17541,231.26986 -10.0738,32.80799 34.8751,1.80081 m 200.2876,-276.66579 34.04806,-4.30981 -4.19486,34.66868" />
</svg>
