<?xml version="1.0" encoding="UTF-8" standalone="no"?>
<!-- Created with Inkscape (http://www.inkscape.org/) -->

<svg
   xmlns:dc="http://purl.org/dc/elements/1.1/"
   xmlns:cc="http://creativecommons.org/ns#"
   xmlns:rdf="http://www.w3.org/1999/02/22-rdf-syntax-ns#"
   xmlns:svg="http://www.w3.org/2000/svg"
   xmlns="http://www.w3.org/2000/svg"
   xmlns:sodipodi="http://sodipodi.sourceforge.net/DTD/sodipodi-0.dtd"
   xmlns:inkscape="http://www.inkscape.org/namespaces/inkscape"
   id="svg2"
   version="1.1"
   inkscape:version="0.91 r13725"
   width="1366"
   height="768"
   sodipodi:docname="schema-technical-categories-5.svg"
   inkscape:export-filename="/home/hsablonniere/dev/dzslides/src/media/schema-conscient-inconscient.png"
   inkscape:export-xdpi="90"
   inkscape:export-ydpi="90">
  <metadata
     id="metadata8">
    <rdf:RDF>
      <cc:Work
         rdf:about="">
        <dc:format>image/svg+xml</dc:format>
        <dc:type
           rdf:resource="http://purl.org/dc/dcmitype/StillImage" />
        <dc:title />
      </cc:Work>
    </rdf:RDF>
  </metadata>
  <defs
     id="defs6">
    <clipPath
       clipPathUnits="userSpaceOnUse"
       id="clipPath4522">
      <rect
         style="fill:#226699;fill-opacity:1;stroke:none"
         id="rect4524"
         width="1116.6582"
         height="588.78345"
         x="3620.6797"
         y="1153.7546" />
    </clipPath>
    <radialGradient
       gradientUnits="userSpaceOnUse"
       r="78.326784"
       fy="19.524991"
       fx="106.73546"
       gradientTransform="scale(1.2320179,0.81167652)"
       cy="19.524991"
       cx="106.73546"
       id="r">
      <stop
         stop-color="#f06b59"
         id="stop3165" />
      <stop
         offset="1"
         stop-color="#df2227"
         id="stop3167" />
    </radialGradient>
    <radialGradient
       gradientUnits="userSpaceOnUse"
       fy="108.80645"
       fx="122.26707"
       gradientTransform="scale(0.92838267,1.077142)"
       r="122.76932"
       cy="108.80645"
       cx="122.26707"
       id="g">
      <stop
         offset="0.65"
         stop-color="#4cb749"
         id="stop3170" />
      <stop
         offset="1"
         stop-color="#388b41"
         id="stop3172" />
    </radialGradient>
    <radialGradient
       gradientUnits="userSpaceOnUse"
       fy="102.2451"
       fx="187.90098"
       gradientTransform="scale(0.86406979,1.1573139)"
       r="111.5125"
       cy="102.2451"
       cx="187.90098"
       id="y">
      <stop
         offset="0.6"
         stop-color="#FCD209"
         id="stop3175" />
      <stop
         offset="0.7"
         stop-color="#f7c616"
         id="stop3177" />
      <stop
         offset="1"
         stop-color="#bc821e"
         id="stop3179" />
    </radialGradient>
    <radialGradient
       gradientUnits="userSpaceOnUse"
       fy="78.099998"
       fx="127.5"
       r="99"
       cy="78.099998"
       cx="127.5"
       spreadMethod="pad"
       id="cf">
      <stop
         offset="0.1"
         stop-color="#7FB3DF"
         id="stop3182" />
      <stop
         offset="0.9"
         stop-color="#0F5B94"
         id="stop3184" />
    </radialGradient>
    <radialGradient
       gradientUnits="userSpaceOnUse"
       fy="78.099998"
       fx="127.5"
       id="cb"
       r="99"
       cy="78.099998"
       cx="127.5">
      <stop
         offset="0"
         stop-color="#F6F0EE"
         id="stop3187" />
      <stop
         offset="1"
         stop-color="#ddd"
         id="stop3189" />
    </radialGradient>
    <clipPath
       id="clipPath3858"
       clipPathUnits="userSpaceOnUse">
      <path
         inkscape:connector-curvature="0"
         id="path3860"
         d="m 396.03854,-957.67135 0.32555,-1.84982 c 0.17787,-1.01669 0.93607,-3.7676 1.68701,-6.11165 0.7509,-2.34405 1.58344,-6.17974 1.86458,-8.5238 0.48888,-4.07658 1.1063,-7.91359 1.59822,-9.94441 1.24167,-5.12642 2.16342,-17.96397 2.53046,-35.27907 0.16847,-7.9437 0.34219,-15.7216 0.3848,-17.2843 0.29541,-10.7974 0.2766,-15.7022 -0.1627,-31.4907 -0.27182,-9.7669 -0.59568,-30.7567 -0.71033,-46.6441 -0.21749,-30.1434 -0.34278,-33.9341 -1.50943,-45.2235 -1.52579,-14.7652 -2.10523,-22.4822 -2.5453,-33.9915 -0.25173,-6.5837 -0.58297,-12.1766 -0.7399,-12.4306 -0.31495,-0.5097 -0.34545,-16.0836 -0.0591,-28.6346 0.1178,-5.168 0.52478,-10.0196 1.13944,-13.5404 0.81164,-4.6489 0.89225,-6.1637 0.50319,-9.9444 -0.64924,-6.3078 0.15372,-20.0747 1.19863,-20.466 0.29629,-0.111 1.71953,-0.033 3.15201,0.1776 6.90237,1.0128 12.88171,1.366 27.93909,1.6278 8.98551,0.1562 18.25513,0.432 20.59918,0.6215 2.34408,0.1897 7.13871,0.1759 10.65475,-0.029 3.51606,-0.2055 9.16307,-0.2416 12.54892,-0.089 11.20168,0.5058 35.36389,0.4125 45.22346,-0.1776 5.33925,-0.3195 13.64996,-0.7907 18.46821,-1.0506 4.81831,-0.26 11.74395,-0.9145 15.39019,-1.4503 3.64629,-0.5357 8.12132,-1.1803 9.94443,-1.4354 6.28729,-0.8798 68.53983,-1.356 93.28817,-0.7103 17.23555,0.4497 21.53664,0.4736 47.59117,0.3107 10.32801,-0.065 18.5457,0.1124 21.3095,0.444 2.59099,0.3109 14.94065,0.6163 29.12296,0.7251 13.5434,0.1039 31.23022,0.3571 39.30416,0.5623 18.56812,0.4722 23.7916,0.471 40.72478,-0.015 9.37287,-0.2688 15.31792,-0.2237 18.74941,0.1333 5.89255,0.6129 35.94236,0.7254 42.81135,0.1627 2.60448,-0.2133 10.01083,-0.3895 16.45567,-0.3848 6.44483,0.01 11.77216,-0.1418 11.83859,-0.3255 0.0665,-0.1838 0.88501,-0.1563 1.83498,0.059 0.95012,0.2157 3.72029,0.2223 6.15608,0.015 2.43586,-0.2076 6.25078,-0.5021 8.4646,-0.6512 16.01826,-1.0788 34.62009,-2.5161 45.69701,-3.5367 2.6045,-0.2401 11.66097,-0.4513 20.12557,-0.4736 8.4646,-0.022 17.5211,-0.133 20.1256,-0.2367 2.6046,-0.1039 5.8433,0.021 7.2068,0.2663 1.5326,0.2759 3.4078,0.2709 4.8982,0 1.4546,-0.2645 3.094,-0.2594 4.1436,0 0.9567,0.2364 3.2859,0.4233 5.1793,0.4143 4.079,-0.019 3.6878,-0.5729 5.727,8.0355 1.8446,7.7871 2.4984,13.9158 2.353,22.2713 -0.066,3.7676 -0.1001,17.2933 -0.074,30.0553 0.042,20.939 0.1368,23.8276 1.0211,29.5965 0.5389,3.5161 1.2044,9.2697 1.4798,12.7857 0.2755,3.5161 0.934,8.95 1.4651,12.0754 0.5309,3.1254 1.4936,8.7724 2.1309,12.5489 0.6372,3.7765 1.7912,10.2759 2.5748,14.4431 1.36,7.2318 2.8503,16.9999 4.4543,29.3598 0.7864,6.0583 1.24,10.0029 2.4714,21.3094 0.4254,3.9068 1.0792,8.7014 1.4502,10.6548 0.371,1.9533 0.9803,8.3462 1.3615,14.2063 0.3811,5.8601 0.9204,14.1708 1.1986,18.4682 0.2781,4.2974 0.5743,15.4032 0.6511,24.6835 0.076,9.2803 0.2476,17.0582 0.3847,17.2843 0.2291,0.3776 0.5161,4.2521 1.0952,14.85749 0.1208,2.21382 0.3511,7.70102 0.5179,12.19375 l 0.3108,8.16865 -4.2176,0 c -2.3216,0 -4.9798,0.23459 -5.8897,0.51796 -0.9099,0.28323 -5.052,0.57966 -9.2193,0.6659 -9.8387,0.20367 -19.0647,0.57876 -33.3849,1.37622 -6.3809,0.35534 -11.9747,0.66513 -12.4305,0.68075 -4.2692,0.1461 -9.0519,0.092 -13.5256,-0.16288 -3.12157,-0.17774 -5.59057,-0.12541 -5.91927,0.13323 -0.8238,0.64822 -2.1501,0.52322 -2.4417,-0.23678 -0.3346,-0.87194 -5.4606,-0.66348 -5.4606,0.222 0,0.32708 0.2131,0.59194 0.4736,0.59194 0.2604,0 0.4735,0.24979 0.4735,0.56232 0,0.44196 -0.1351,0.44196 -0.5771,0 -0.3126,-0.31253 -1.1117,-0.59122 -1.7758,-0.62152 -0.8026,-0.0364 -0.9207,-0.12237 -0.37,-0.26636 0.4558,-0.11915 0.8287,-0.4057 0.8287,-0.6363 1e-4,-0.23176 -5.4558,-0.44125 -12.19371,-0.45878 -6.70658,-0.0175 -15.17715,-0.0336 -18.82345,-0.0446 -3.64621,-0.0102 -10.35873,-0.008 -14.91659,0.0153 -4.55786,0.0238 -12.01618,-0.29791 -16.57404,-0.71031 -14.26197,-1.2906 -15.62695,-1.33743 -15.62695,-0.68073 0,0.45276 -0.16136,0.46317 -0.6659,0.0446 -0.72615,-0.60262 -4.61403,-0.82484 -5.44577,-0.31078 -0.28815,0.17783 -0.76999,0.1622 -1.08024,-0.0293 -0.62779,-0.38797 -0.33267,-0.37503 -18.14272,-1.15426 -7.03214,-0.30767 -14.38393,-0.63393 -16.33728,-0.72514 -11.77197,-0.54954 -29.11776,-0.5966 -29.72966,-0.0888 -0.42611,0.35361 -0.77089,0.37705 -0.9767,0.0739 -0.17548,-0.25843 -1.16316,-0.44514 -2.20495,-0.41437 -1.04176,0.0308 -4.93075,0.0992 -8.6422,0.14797 -6.36636,0.0839 -6.74799,0.14151 -6.74799,1.02111 5e-5,0.64127 -0.22836,0.84172 -0.72509,0.65111 -0.56253,-0.21588 -0.60727,-0.4293 -0.17758,-0.94708 0.468,-0.56376 -0.13915,-0.64488 -4.01034,-0.57715 -2.59403,0.0454 -4.55787,0.27044 -4.55787,0.53273 0,0.28518 -0.22636,0.28731 -0.59193,-0.0152 -0.32551,-0.26903 -1.37905,-0.64951 -2.33808,-0.82871 -1.60617,-0.30011 -1.71924,-0.23472 -1.47983,0.68068 0.14288,0.54657 0.0398,0.9915 -0.222,0.9915 -0.26186,0 -0.45033,-0.37291 -0.41435,-0.8287 0.0608,-0.76708 -0.86633,-0.84419 -12.46012,-0.96186 -11.04661,-0.11221 -12.57652,-0.0431 -12.94846,0.6215 -0.38541,0.68866 -0.49216,0.69301 -1.25786,0 -0.66519,-0.60199 -1.10767,-0.64621 -2.14579,-0.25156 -0.77433,0.2944 -1.5185,0.32356 -1.83497,0.0739 -0.29388,-0.23185 -3.28099,-0.44419 -6.62962,-0.47354 -5.40408,-0.0475 -6.02167,0.0255 -5.49013,0.66593 0.42122,0.50755 0.45603,0.86095 0.10356,1.21347 -0.35252,0.35245 -0.59179,0.21128 -0.81389,-0.48833 -0.19116,-0.60244 -0.72077,-0.99733 -1.34662,-1.00628 -11.20699,-0.16406 -40.04265,0.39116 -40.68041,0.78427 -0.18379,0.1134 -0.19369,0.54919 -0.0293,0.9767 0.22433,0.58459 0.0929,0.70221 -0.50314,0.47354 -0.51928,-0.19925 -0.78432,-0.056 -0.78432,0.39953 0,0.38254 -0.21305,0.69554 -0.47354,0.69554 -0.6623,0 -0.59098,-1.11695 0.11829,-1.84975 0.48256,-0.49832 -0.0208,-0.55517 -2.72288,-0.32562 -4.76598,0.40499 -22.8807,1.61711 -24.97944,1.67223 -2.74665,0.0722 -3.17559,0.0715 -7.22154,-0.14795 -4.03925,-0.21906 -8.38722,0.0946 -8.07979,0.59192 0.10219,0.16541 -0.5999,0.21972 -1.55385,0.1183 -1.84526,-0.19603 -10.73794,-0.0835 -15.46419,0.19235 -1.5627,0.0912 -5.93114,0.29189 -9.70766,0.45877 -3.77652,0.16694 -7.03161,0.46965 -7.23632,0.6659 -0.20471,0.19605 -1.37291,0.21429 -2.58971,0.0299 -2.22855,-0.33821 -10.11833,-0.19979 -16.69244,0.29597 -1.95337,0.14745 -5.33283,0.23451 -7.5027,0.19236 -3.14095,-0.0608 -4.12271,0.0917 -4.839,0.7399 -0.74024,0.66987 -1.029,0.70416 -1.62785,0.20718 -0.54122,-0.44921 -1.85469,-0.52393 -5.10537,-0.28119 -4.35652,0.32543 -5.06787,0.34 -7.08839,0.20723 -0.93866,-0.0617 -3.85739,0.0741 -17.63952,0.81386 -1.82313,0.0978 -9.92069,0.284 -17.99467,0.39953 -17.66358,0.25279 -27.67194,0.63664 -30.5436,1.1987 -2.31785,0.45366 -21.43516,0.3027 -22.21214,-0.17758 -0.43652,-0.26974 -7.88063,-0.0589 -14.25074,0.41434 -1.43243,0.10644 -6.33367,0.32462 -10.89152,0.47354 -4.55788,0.14898 -11.07114,0.37823 -14.47264,0.51792 -3.40158,0.13982 -12.45812,0.34376 -20.12564,0.444 -8.90201,0.11626 -16.25067,0.46536 -20.33285,0.96187 -3.51603,0.42766 -10.01546,0.94755 -14.4431,1.16907 -4.76029,0.23815 -9.11458,0.72282 -10.65474,1.16905 -1.43243,0.41507 -3.33455,0.88378 -4.21749,1.05066 l -1.59819,0.31078 z"
         style="fill:#992222;fill-opacity:1" />
    </clipPath>
    <clipPath
       id="clipPath4522-1"
       clipPathUnits="userSpaceOnUse">
      <rect
         y="1153.7546"
         x="3620.6797"
         height="588.78345"
         width="1116.6582"
         id="rect4524-7"
         style="fill:#226699;fill-opacity:1;stroke:none" />
    </clipPath>
    <clipPath
       id="clipPath4522-2"
       clipPathUnits="userSpaceOnUse">
      <rect
         y="1153.7546"
         x="3620.6797"
         height="588.78345"
         width="1116.6582"
         id="rect4524-0"
         style="fill:#226699;fill-opacity:1;stroke:none" />
    </clipPath>
  </defs>
  <sodipodi:namedview
     pagecolor="#ffffff"
     bordercolor="#666666"
     borderopacity="1"
     objecttolerance="10"
     gridtolerance="10"
     guidetolerance="10"
     inkscape:pageopacity="0"
     inkscape:pageshadow="2"
     inkscape:window-width="2560"
     inkscape:window-height="1406"
     id="namedview4"
     showgrid="false"
     inkscape:zoom="1.0413624"
     inkscape:cx="660.78371"
     inkscape:cy="437.23582"
     inkscape:window-x="0"
     inkscape:window-y="1512"
     inkscape:window-maximized="1"
     inkscape:current-layer="svg2"
     showguides="true"
     inkscape:guide-bbox="true" />
  <path
     sodipodi:nodetypes="cccsccccsccscsccsscccccccccsccssccsscccccccccccccscccccccssccccccccc"
     inkscape:connector-curvature="0"
     id="path3009"
     d="m 729.25204,271.6969 c -23.88328,-0.054 -31.09009,0.2089 -32.15625,1.0937 -1.07481,0.8907 -2.12418,0.9117 -4.75,0.125 -2.3968,-0.7169 -6.75602,-0.7717 -15.25,-0.1875 -19.48188,1.3401 -53.06651,2.2392 -75.3125,2 -14.13611,-0.1518 -21.88869,0.1028 -24.125,0.8125 -2.55804,0.8122 -3.58656,0.8046 -4.59375,-0.031 -0.71356,-0.5923 -3.60024,-1.0625 -6.4375,-1.0625 -46.72842,0.1321 -159.83492,-0.9022 -183.8125,-1.6875 -18.55586,-0.6076 -35.81716,-0.7388 -42.09375,-0.3125 -5.85396,0.3965 -12.04341,0.6542 -13.75,0.5625 -1.70657,-0.093 -9.28603,0.2426 -16.84375,0.7813 -7.5577,0.5386 -15.52461,1.1283 -17.71875,1.2812 -2.19419,0.1538 -4,0.305 -4,0.3438 0,0.039 -4.19275,0.2636 -9.3125,0.5 -5.11973,0.2352 -10.50594,0.6129 -11.96875,0.8437 -2.9774,0.4705 -24.90057,1.8071 -50.96875,3.0938 -45.7184,2.2568 -78.20065,4.2952 -100.18749,6.2812 -5.11974,0.4625 -18.8915,1.0483 -30.59375,1.3125 -11.70227,0.2628 -26.53196,0.8694 -32.96875,1.3438 -9.57826,0.706 -13.49827,0.5897 -21.59375,-0.5938 -9.63352,-1.4082 -9.96956,-1.3824 -12.25,0.3125 -3.04701,2.2644 -3.48275,6.2102 -1,8.875 1.01641,1.0912 2.31572,2.0034 2.90625,2.0313 0.59053,0.025 3.09328,0.1914 5.53125,0.375 6.96992,0.5238 22.31743,0.5611 24.5625,0.062 2.35722,-0.5237 39.72432,-2.9835 43.6875,-2.875 2.78211,0.076 21.98946,-1.1705 50.53125,-3.3125 29.14678,-2.1874 44.63394,-3.1685 64.46875,-4.0625 10.58164,-0.4772 25.12822,-1.2877 32.34374,-1.7813 23.22276,-1.5892 50.04059,-3.4667 62.78125,-4.4375 23.71095,-1.8067 38.25258,-2.1905 62.9375,-1.5937 13.65265,0.33 62.44402,0.8184 108.4375,1.0937 45.9934,0.2739 83.94701,0.724 84.34375,0.9688 2.90065,1.7927 120.25056,-0.608 142.3125,-2.9063 7.4798,-0.7792 60.59122,0.097 91.3125,1.5 18.95711,0.8662 90.18477,1.1901 103.71877,0.4688 15.9356,-0.8496 87.4287,-0.3709 140.96874,0.9375 29.6359,0.6599 60.6622,2.0179 89.0938,2.6562 35.1126,0.7861 54.3767,1.3819 57.6251,1.7813 1.7065,0.2099 6.5116,0.6413 10.6562,0.9375 8.0017,0.5711 30.5427,2.7462 35,3.375 7.3347,1.0344 23.4252,1.7966 67.8125,3.2187 15.3594,0.4919 32.0238,1.0734 37.0313,1.3125 l 9.125,0.4375 1.75,-2.875 c 2.1849,-3.5847 2.17,-3.6165 -0.25,-6.375 l -2,-2.2812 -24.375,-0.375 c -24.1683,-0.3807 -32.7735,-0.6764 -70.4688,-2.3438 -19.5035,-0.8629 -26.1445,-1.3798 -46.0938,-3.7187 -5.8506,-0.6861 -11.431,-1.25 -12.4062,-1.25 -0.9753,0 -6.9737,-0.26 -13.3125,-0.5625 -6.3388,-0.3023 -23.8849,-0.7643 -39.0001,-1.0313 -34.2067,-0.5546 -68.1496,-1.9103 -102.4063,-2.6562 -37.00164,-0.097 -83.43914,-1.4832 -106.18744,-1.375 -24.7685,0.1226 -28.1164,0.3526 -27.1563,1.9062 0.2697,0.4363 0.048,0.8125 -0.4687,0.8125 -0.5164,0 -0.9375,-0.4504 -0.9375,-0.9687 0,-0.5893 -2.5795,-0.9084 -6.875,-0.875 -3.7788,0.028 -7.6501,0.028 -8.625,0 -0.9753,-0.028 -14.1659,0.1988 -29.2813,0.5 -15.1153,0.3 -27.85619,0.5625 -28.34372,0.5625 -0.48777,0.01 -5.48663,-0.2365 -11.09375,-0.5313 -15.35015,-0.8075 -30.99478,-1.3757 -35.46875,-1.2812 -2.19435,0.047 -4.58084,0.047 -5.3125,0 -0.73129,-0.047 -4.73057,-0.29 -8.875,-0.5625 -4.14481,-0.2723 -21.37778,-0.5549 -38.3125,-0.5938 z"
     style="fill:#000000;fill-opacity:1" />
  <path
     style="fill:#000000;fill-opacity:1"
     d="m 902.49543,353.75602 c -0.45242,13.21693 -0.30935,17.28259 0.55915,18.1186 0.87429,0.84243 0.87776,1.42965 0.0463,2.66624 -0.75802,1.12913 -0.88565,3.52904 -0.44217,8.39693 1.01737,11.16499 1.35814,30.021 0.7471,42.27953 -0.38781,7.78969 -0.26207,12.1554 0.41145,13.59112 0.77086,1.64244 0.74618,2.21018 -0.10764,2.53648 -0.6052,0.23102 -1.12432,1.70003 -1.17164,3.27193 -0.64705,25.92532 -3.5696,88.30235 -4.75613,101.36875 -0.91808,10.11194 -1.33739,19.63875 -1.01512,23.23436 0.29955,3.35319 0.45441,6.85375 0.33354,7.77383 -0.12158,0.91968 0.0881,5.21194 0.50141,9.54849 0.41338,4.33653 0.87124,8.91389 0.98777,10.17187 0.11776,1.25829 0.23875,2.30069 0.2776,2.31147 0.0385,0.0106 0.19383,2.39597 0.3452,5.29798 0.15035,2.90168 0.43877,5.9905 0.64554,6.86492 0.42158,1.78 1.39469,14.29659 2.2487,29.09581 1.49796,25.95489 2.99795,44.51606 4.62048,57.24796 0.37794,2.96473 0.73497,10.75705 0.80751,17.3135 0.068,6.55624 0.42834,14.94045 0.79621,18.63812 0.54744,5.50235 0.36643,7.64182 -0.95494,11.79879 -1.57114,4.94676 -1.55091,5.14009 0.10875,6.87349 2.21731,2.31598 6.16232,3.65149 8.8729,3.01488 1.10997,-0.26056 2.04533,-0.72748 2.08309,-1.0469 0.0351,-0.32025 0.24329,-1.66069 0.46788,-2.96046 0.64095,-3.7163 0.93431,-12.20883 0.47181,-13.59106 -0.48524,-1.45117 -2.32582,-22.83551 -2.15103,-25.00114 0.1225,-1.52028 -0.80568,-12.50725 -2.47518,-28.91404 -1.70485,-16.75458 -2.42926,-25.60689 -2.99389,-36.84374 -0.30163,-5.9948 -0.87069,-14.27872 -1.24472,-18.41315 -1.20445,-13.30662 -2.63778,-28.68497 -3.39771,-36.01279 -1.4141,-13.6374 -1.55606,-21.80028 -0.54651,-35.31084 0.55827,-7.47239 1.8613,-34.36863 2.90421,-59.77382 1.0415,-25.40553 2.12534,-46.30795 2.37713,-46.45987 1.84409,-1.10997 1.39678,-66.79039 -0.53737,-79.65051 -0.65575,-4.36006 1.10778,-33.54218 3.02552,-50.17346 1.18386,-10.26256 2.69627,-49.63463 2.19957,-57.33281 -0.58523,-9.06427 1.0867,-48.54049 3.29023,-77.84022 1.15532,-16.23601 3.03306,-33.04882 4.14664,-48.62364 1.37303,-19.23528 2.29118,-29.74288 2.74538,-31.43183 0.23873,-0.88722 0.75103,-3.42975 1.11677,-5.64382 0.70551,-4.27479 3.26015,-16.15997 3.96439,-18.455069 1.1584,-3.776777 2.19024,-12.479971 4.35505,-36.677315 0.74891,-8.373105 1.60932,-17.444354 1.93231,-20.152336 l 0.59046,-4.93416 -2.85061,-1.76674 c -3.55417,-2.204452 -3.58623,-2.205013 -6.38965,-1.629224 l -2.31826,0.4755 -0.78223,13.400392 c -0.78444,13.284277 -1.22412,17.969769 -3.52298,38.391559 -1.18971,10.566178 -1.81816,14.102125 -4.49365,24.505995 -0.7849,3.051151 -1.44276,5.986451 -1.459,6.526743 -0.0159,0.540335 -0.37677,3.791505 -0.7855,7.219495 -0.40854,3.42801 -1.16393,13.02088 -1.68349,21.32107 -1.12605,18.79756 -3.05013,37.22686 -4.36867,55.9991 -0.71434,20.47292 -2.87736,45.81609 -3.14838,58.44923 -0.29032,13.75633 -0.11574,15.67495 1.45635,15.5738 0.44155,-0.0286 0.81473,0.19829 0.80608,0.48502 -0.009,0.28619 -0.46683,0.39453 -0.98599,0.25084 -0.59025,-0.16347 -0.95289,1.17722 -0.99112,3.56629 -0.0349,2.10132 -0.0995,4.2461 -0.14383,4.77846 -0.0442,0.53258 -0.0371,7.90339 0.0125,16.36121 0.0484,8.45743 0.0988,15.58898 0.0907,15.8591 0.002,0.27305 -0.32839,2.97414 -0.71729,5.99889 -1.06477,8.28047 -1.8949,16.79043 -1.87487,19.29532 0.0103,1.22878 -0.0293,2.55091 -0.0886,2.94328 -0.0588,0.39208 -0.36944,2.54044 -0.71146,4.76098 -0.3419,2.22084 -0.91236,11.68994 -1.2338,21.06143 z"
     id="path3007"
     inkscape:connector-curvature="0"
     sodipodi:nodetypes="cccsccccsccscsccsscccccccccsccssccsscccccccccccccscccccccssccccccccc" />
  <path
     sodipodi:nodetypes="cccsccccsccscsccsscccccccccsccssccsscccccccccccccscccccccssccccccccc"
     inkscape:connector-curvature="0"
     id="path4018"
     d="m 433.15473,353.75602 c -0.45242,13.21693 -0.30935,17.28259 0.55915,18.1186 0.87429,0.84243 0.87776,1.42965 0.0463,2.66624 -0.75802,1.12913 -0.88565,3.52904 -0.44217,8.39693 1.01737,11.16499 1.35814,30.021 0.7471,42.27953 -0.38781,7.78969 -0.26207,12.1554 0.41145,13.59112 0.77086,1.64244 0.74618,2.21018 -0.10764,2.53648 -0.6052,0.23102 -1.12432,1.70003 -1.17164,3.27193 -0.64705,25.92532 -3.5696,88.30235 -4.75613,101.36875 -0.91808,10.11194 -1.33739,19.63875 -1.01512,23.23436 0.29955,3.35319 0.45441,6.85375 0.33354,7.77383 -0.12158,0.91968 0.0881,5.21194 0.50141,9.54849 0.41338,4.33653 0.87124,8.91389 0.98777,10.17187 0.11776,1.25829 0.23875,2.30069 0.2776,2.31147 0.0385,0.0106 0.19383,2.39597 0.3452,5.29798 0.15035,2.90168 0.43877,5.9905 0.64554,6.86492 0.42158,1.78 1.39469,14.29659 2.2487,29.09581 1.49796,25.95489 2.99795,44.51606 4.62048,57.24796 0.37794,2.96473 0.73497,10.75705 0.80751,17.3135 0.068,6.55624 0.42834,14.94045 0.79621,18.63812 0.54744,5.50235 0.36643,7.64182 -0.95494,11.79879 -1.57114,4.94676 -1.55091,5.14009 0.10875,6.87349 2.21731,2.31598 6.16232,3.65149 8.8729,3.01488 1.10997,-0.26056 2.04533,-0.72748 2.08309,-1.0469 0.0351,-0.32025 0.24329,-1.66069 0.46788,-2.96046 0.64095,-3.7163 0.93431,-12.20883 0.47181,-13.59106 -0.48524,-1.45117 -2.32582,-22.83551 -2.15103,-25.00114 0.1225,-1.52028 -0.80568,-12.50725 -2.47518,-28.91404 -1.70485,-16.75458 -2.42926,-25.60689 -2.99389,-36.84374 -0.30163,-5.9948 -0.87069,-14.27872 -1.24472,-18.41315 -1.20445,-13.30662 -2.63778,-28.68497 -3.39771,-36.01279 -1.4141,-13.6374 -1.55606,-21.80028 -0.54651,-35.31084 0.55827,-7.47239 1.8613,-34.36863 2.90421,-59.77382 1.0415,-25.40553 2.12534,-46.30795 2.37713,-46.45987 1.84409,-1.10997 1.39678,-66.79039 -0.53737,-79.65051 -0.65575,-4.36006 1.10778,-33.54218 3.02552,-50.17346 1.18386,-10.26256 2.69627,-49.63463 2.19957,-57.33281 -0.58523,-9.06427 1.0867,-48.54049 3.29023,-77.84022 1.15532,-16.23601 3.03306,-33.04882 4.14664,-48.62364 1.37303,-19.23528 2.29118,-29.74288 2.74538,-31.43183 0.23873,-0.88722 0.75103,-3.42975 1.11677,-5.64382 0.70551,-4.27479 3.26015,-16.15997 3.96439,-18.455069 1.1584,-3.776777 2.19024,-12.479971 4.35505,-36.677315 0.74891,-8.373105 1.60932,-17.444354 1.93231,-20.152336 l 0.59046,-4.93416 -2.85061,-1.76674 c -3.55417,-2.204452 -3.58623,-2.205013 -6.38965,-1.629224 l -2.31826,0.4755 -0.78223,13.400392 c -0.78444,13.284277 -1.22412,17.969769 -3.52298,38.391559 -1.18971,10.566178 -1.81816,14.102125 -4.49365,24.505995 -0.7849,3.051151 -1.44276,5.986451 -1.459,6.526743 -0.0159,0.540335 -0.37677,3.791505 -0.7855,7.219495 -0.40854,3.42801 -1.16393,13.02088 -1.68349,21.32107 -1.12605,18.79756 -3.05013,37.22686 -4.36867,55.9991 -0.71434,20.47292 -2.87736,45.81609 -3.14838,58.44923 -0.29032,13.75633 -0.11574,15.67495 1.45635,15.5738 0.44155,-0.0286 0.81473,0.19829 0.80608,0.48502 -0.009,0.28619 -0.46683,0.39453 -0.98599,0.25084 -0.59025,-0.16347 -0.95289,1.17722 -0.99112,3.56629 -0.0349,2.10132 -0.0995,4.2461 -0.14383,4.77846 -0.0442,0.53258 -0.0371,7.90339 0.0125,16.36121 0.0484,8.45743 0.0988,15.58898 0.0907,15.8591 0.002,0.27305 -0.32839,2.97414 -0.71729,5.99889 -1.06477,8.28047 -1.8949,16.79043 -1.87487,19.29532 0.0103,1.22878 -0.0293,2.55091 -0.0886,2.94328 -0.0588,0.39208 -0.36944,2.54044 -0.71146,4.76098 -0.3419,2.22084 -0.91236,11.68994 -1.2338,21.06143 z"
     style="fill:#000000;fill-opacity:1" />
  <path
     style="fill:#000000;fill-opacity:1"
     d="m 739.44243,523.03391 c -23.54242,-0.054 -30.64637,0.2089 -31.69731,1.0937 -1.05947,0.8907 -2.09387,0.9117 -4.68221,0.125 -2.36259,-0.7169 -6.6596,-0.7717 -15.03235,-0.1875 -19.20383,1.3401 -52.30914,2.2392 -74.23763,2 -13.93436,-0.1518 -21.57629,0.1028 -23.78069,0.8125 -2.52153,0.8122 -3.53537,0.8046 -4.52818,-0.031 -0.70338,-0.5923 -3.54886,-1.0625 -6.34563,-1.0625 -46.0615,0.1321 -157.55374,-0.9022 -181.18911,-1.6875 -18.29102,-0.6076 -35.30597,-0.7388 -41.49298,-0.3125 -5.77041,0.3965 -11.87152,0.6542 -13.55376,0.5625 -1.68221,-0.093 -9.1535,0.2426 -16.60335,0.7813 -7.44984,0.5386 -15.30304,1.1283 -17.46587,1.2812 -2.16287,0.1538 -3.94291,0.305 -3.94291,0.3438 0,0.039 -4.13291,0.2636 -9.17959,0.5 -5.04666,0.2352 -10.356,0.6129 -11.79793,0.8437 -2.93491,0.4705 -24.54519,1.8071 -50.24132,3.0938 -45.0659,2.2568 -77.08456,4.2952 -98.7576,6.2812 -5.04667,0.4625 -18.62188,1.0483 -30.15711,1.3125 -11.535262,0.2628 -26.153301,0.8694 -32.498225,1.3438 -9.441558,0.706 -13.305621,0.5897 -21.285562,-0.5938 -9.496029,-1.4082 -9.827273,-1.3824 -12.075166,0.3125 -3.003523,2.2644 -3.433044,6.2102 -0.985728,8.875 1.001904,1.0912 2.28267,2.0034 2.864772,2.0313 0.582102,0.025 3.049132,0.1914 5.452307,0.375 6.870445,0.5238 21.998913,0.5611 24.211941,0.062 2.323578,-0.5237 39.157371,-2.9835 43.063991,-2.875 2.7424,0.076 21.67562,-1.1705 49.81006,-3.3125 28.7308,-2.1874 43.99692,-3.1685 63.54865,-4.0625 10.43062,-0.4772 24.76958,-1.2877 31.88212,-1.7813 22.89133,-1.5892 49.32641,-3.4667 61.88523,-4.4375 23.37255,-1.8067 37.70664,-2.1905 62.03925,-1.5937 13.4578,0.33 61.55281,0.8184 106.88987,1.0937 45.33698,0.2739 82.74891,0.724 83.13999,0.9688 2.85925,1.7927 118.53433,-0.608 140.2814,-2.9063 7.37304,-0.7792 59.72645,0.097 90.00927,1.5 18.68656,0.8662 88.89765,1.1901 102.23849,0.4688 15.70816,-0.8496 86.18092,-0.3709 138.95674,0.9375 29.213,0.6599 59.7965,2.0179 87.8223,2.6562 34.6115,0.7861 53.6006,1.3819 56.8027,1.7813 1.6821,0.2099 6.4186,0.6413 10.5041,0.9375 7.8875,0.5711 30.1068,2.7462 34.5004,3.375 7.2301,1.0344 23.0909,1.7966 66.8447,3.2187 15.1402,0.4919 31.5668,1.0734 36.5028,1.3125 l 8.9948,0.4375 1.725,-2.875 c 2.1537,-3.5847 2.139,-3.6165 -0.2464,-6.375 l -1.9715,-2.2812 -24.0271,-0.375 c -23.8234,-0.3807 -32.3058,-0.6764 -69.4631,-2.3438 -19.2251,-0.8629 -25.7713,-1.3798 -45.4359,-3.7187 -5.7671,-0.6861 -11.2679,-1.25 -12.2292,-1.25 -0.9613,0 -6.8741,-0.26 -13.1225,-0.5625 -6.2483,-0.3023 -23.544,-0.7643 -38.4434,-1.0313 -33.7185,-0.5546 -67.177,-1.9103 -100.9448,-2.6562 -36.4735,-0.097 -82.24824,-1.4832 -104.67188,-1.375 -24.415,0.1226 -27.71512,0.3526 -26.76872,1.9062 0.26585,0.4363 0.0473,0.8125 -0.46201,0.8125 -0.50903,0 -0.92412,-0.4504 -0.92412,-0.9687 0,-0.5893 -2.54268,-0.9084 -6.77688,-0.875 -3.72487,0.028 -7.54092,0.028 -8.5019,0 -0.96138,-0.028 -13.96372,0.1988 -28.8634,0.5 -14.89957,0.3 -27.45862,0.5625 -27.93919,0.5625 -0.48081,0.01 -5.40833,-0.2365 -10.93542,-0.5313 -15.13107,-0.8075 -30.55242,-1.3757 -34.96254,-1.2812 -2.16303,0.047 -4.51546,0.047 -5.23668,0 -0.72085,-0.047 -4.66305,-0.29 -8.74833,-0.5625 -4.08566,-0.2723 -21.07267,-0.5549 -37.7657,-0.5938 z"
     id="path4563"
     inkscape:connector-curvature="0"
     sodipodi:nodetypes="cccsccccsccscsccsscccccccccsccssccsscccccccccccccscccccccssccccccccc" />
  <text
     xml:space="preserve"
     style="font-style:normal;font-variant:normal;font-weight:normal;font-stretch:normal;font-size:96.09263611px;line-height:89.99999762%;font-family:'Just Another Hand';-inkscape-font-specification:'Just Another Hand';letter-spacing:0px;word-spacing:0px;fill:#057ffa;fill-opacity:1;stroke:none"
     x="681.94519"
     y="102.90929"
     id="text3039"
     sodipodi:linespacing="89.999998%"><tspan
       sodipodi:role="line"
       x="681.94519"
       y="102.90929"
       style="font-size:120px;line-height:89.99999762%;text-align:center;text-anchor:middle;fill:#057ffa;fill-opacity:1"
       id="tspan3821">un seul</tspan><tspan
       sodipodi:role="line"
       x="681.94519"
       y="210.90929"
       style="font-size:120px;line-height:89.99999762%;text-align:center;text-anchor:middle;fill:#057ffa;fill-opacity:1"
       id="tspan3271">appareil</tspan></text>
  <text
     sodipodi:linespacing="89.999998%"
     id="text3047"
     y="436.48984"
     x="378.50684"
     style="font-style:normal;font-variant:normal;font-weight:normal;font-stretch:normal;font-size:121.41274261px;line-height:89.99999762%;font-family:'Just Another Hand';-inkscape-font-specification:'Just Another Hand';letter-spacing:0px;word-spacing:0px;fill:#057ffa;fill-opacity:1;stroke:none"
     xml:space="preserve"><tspan
       style="font-size:120px;line-height:89.99999762%;text-align:end;text-anchor:end;fill:#057ffa;fill-opacity:1"
       y="436.48984"
       x="378.50684"
       sodipodi:role="line"
       id="tspan3051">sans serveur</tspan></text>
  <text
     xml:space="preserve"
     style="font-style:normal;font-variant:normal;font-weight:normal;font-stretch:normal;font-size:121.41274261px;line-height:89.99999762%;font-family:'Just Another Hand';-inkscape-font-specification:'Just Another Hand';letter-spacing:0px;word-spacing:0px;fill:#057ffa;fill-opacity:1;stroke:none"
     x="375.81152"
     y="676.87878"
     id="text3053"
     sodipodi:linespacing="89.999998%"><tspan
       id="tspan3057"
       sodipodi:role="line"
       x="375.81152"
       y="676.87878"
       style="font-size:120px;line-height:89.99999762%;text-align:end;text-anchor:end;fill:#057ffa;fill-opacity:1">avec serveur</tspan></text>
  <text
     sodipodi:linespacing="89.999998%"
     id="text3035"
     y="102.90929"
     x="1151.989"
     style="font-style:normal;font-variant:normal;font-weight:normal;font-stretch:normal;font-size:96.09263611px;line-height:89.99999762%;font-family:'Just Another Hand';-inkscape-font-specification:'Just Another Hand';letter-spacing:0px;word-spacing:0px;fill:#057ffa;fill-opacity:1;stroke:none"
     xml:space="preserve"><tspan
       style="font-size:120px;line-height:89.99999762%;text-align:center;text-anchor:middle;fill:#057ffa;fill-opacity:1"
       y="102.90929"
       x="1151.989"
       sodipodi:role="line"
       id="tspan3817">plusieurs</tspan><tspan
       style="font-size:120px;line-height:89.99999762%;text-align:center;text-anchor:middle;fill:#057ffa;fill-opacity:1"
       y="210.90929"
       x="1151.989"
       sodipodi:role="line"
       id="tspan3275">appareils</tspan></text>
  <path
     inkscape:connector-curvature="0"
     id="path3807"
     d="m 706.31219,603.58524 c -3.4535,0.97653 -5.61803,4.1836 -8.69863,5.8556 -1.12455,0.866 -1.61811,2.34221 -2.92156,3.02094 -6.36234,4.83337 -12.51897,9.99542 -18.30584,15.51945 -2.81447,3.11913 -5.79783,6.06678 -8.30044,9.45207 -6.32559,8.01282 -13.45859,15.43724 -19.156,23.93404 -4.30668,6.66406 -7.44014,13.9919 -10.30078,21.37134 -3.02304,-8.91643 -5.7685,-17.94814 -9.31462,-26.67355 -2.06432,-5.33981 -4.41868,-10.63976 -5.45445,-16.287 -0.65093,-2.42127 -3.23695,-4.34084 -5.75682,-3.68355 -1.79517,0.45313 -3.00567,2.33583 -2.67585,4.16815 0.24815,2.56471 1.61784,4.80667 2.33654,7.24829 4.40702,11.75963 8.86122,23.4995 12.51916,35.51331 1.54607,4.65392 3.681,9.10916 6.14987,13.32913 1.16287,2.01875 4.00119,2.78522 5.98983,1.54198 1.31872,-0.70312 1.84756,-2.24835 1.84324,-3.67733 -0.019,-2.60185 0.92945,-5.04123 1.67816,-7.49834 1.61963,-4.56238 3.47176,-9.0776 5.53784,-13.46612 2.79919,-5.78522 6.45448,-11.07694 10.65907,-15.92827 4.01641,-4.86686 8.07041,-9.72914 11.92653,-14.73196 2.0236,-2.32178 3.7285,-4.9423 6.02836,-7.01206 6.54436,-6.68006 13.88855,-12.55551 21.33988,-18.22165 2.59176,-2.19483 4.84658,-4.83634 7.80878,-6.57102 1.53459,-1.18398 1.83674,-3.59544 0.67839,-5.14153 -0.75801,-1.22531 -2.12882,-2.13638 -3.61066,-2.06192 z"
     style="fill:#057ffa;fill-opacity:1" />
  <path
     style="fill:#057ffa;fill-opacity:1"
     d="m 1175.6529,603.58524 c -3.4536,0.97653 -5.6181,4.1836 -8.6987,5.8556 -1.1246,0.866 -1.6181,2.34221 -2.9216,3.02094 -6.3623,4.83337 -12.5189,9.99542 -18.3058,15.51945 -2.8145,3.11913 -5.7979,6.06678 -8.3004,9.45207 -6.3256,8.01282 -13.4586,15.43724 -19.156,23.93404 -4.3067,6.66406 -7.4402,13.9919 -10.3008,21.37134 -3.0231,-8.91643 -5.7685,-17.94814 -9.3147,-26.67355 -2.0643,-5.33981 -4.4186,-10.63976 -5.4544,-16.287 -0.6509,-2.42127 -3.2369,-4.34084 -5.7568,-3.68355 -1.7952,0.45313 -3.0057,2.33583 -2.6758,4.16815 0.2481,2.56471 1.6178,4.80667 2.3365,7.24829 4.407,11.75963 8.8612,23.4995 12.5191,35.51331 1.5461,4.65392 3.681,9.10916 6.1499,13.32913 1.1629,2.01875 4.0012,2.78522 5.9898,1.54198 1.3187,-0.70312 1.8476,-2.24835 1.8433,-3.67733 -0.019,-2.60185 0.9294,-5.04123 1.6781,-7.49834 1.6196,-4.56238 3.4718,-9.0776 5.5378,-13.46612 2.7993,-5.78522 6.4546,-11.07694 10.6591,-15.92827 4.0165,-4.86686 8.0704,-9.72914 11.9266,-14.73196 2.0236,-2.32178 3.7285,-4.9423 6.0284,-7.01206 6.5443,-6.68006 13.8885,-12.55551 21.3398,-18.22165 2.5918,-2.19483 4.8466,-4.83634 7.8088,-6.57102 1.5346,-1.18398 1.8367,-3.59544 0.6784,-5.14153 -0.758,-1.22531 -2.1288,-2.13638 -3.6106,-2.06192 z"
     id="path3809"
     inkscape:connector-curvature="0" />
  <path
     inkscape:connector-curvature="0"
     id="path3811"
     d="m 1175.6529,364.16309 c -3.4536,0.97653 -5.6181,4.1836 -8.6987,5.8556 -1.1246,0.866 -1.6181,2.34221 -2.9216,3.02094 -6.3623,4.83337 -12.5189,9.99542 -18.3058,15.51945 -2.8145,3.11913 -5.7979,6.06678 -8.3004,9.45207 -6.3256,8.01282 -13.4586,15.43724 -19.156,23.93404 -4.3067,6.66406 -7.4402,13.9919 -10.3008,21.37134 -3.0231,-8.91643 -5.7685,-17.94814 -9.3147,-26.67355 -2.0643,-5.33981 -4.4186,-10.63976 -5.4544,-16.287 -0.6509,-2.42127 -3.2369,-4.34084 -5.7568,-3.68355 -1.7952,0.45313 -3.0057,2.33583 -2.6758,4.16815 0.2481,2.56471 1.6178,4.80667 2.3365,7.24829 4.407,11.75963 8.8612,23.4995 12.5191,35.51331 1.5461,4.65392 3.681,9.10916 6.1499,13.32913 1.1629,2.01875 4.0012,2.78522 5.9898,1.54198 1.3187,-0.70312 1.8476,-2.24835 1.8433,-3.67733 -0.019,-2.60185 0.9294,-5.04123 1.6781,-7.49834 1.6196,-4.56238 3.4718,-9.0776 5.5378,-13.46612 2.7993,-5.78522 6.4546,-11.07694 10.6591,-15.92827 4.0165,-4.86686 8.0704,-9.72914 11.9266,-14.73196 2.0236,-2.32178 3.7285,-4.9423 6.0284,-7.01206 6.5443,-6.68006 13.8885,-12.55551 21.3398,-18.22165 2.5918,-2.19483 4.8466,-4.83634 7.8088,-6.57102 1.5346,-1.18398 1.8367,-3.59544 0.6784,-5.14153 -0.758,-1.22531 -2.1288,-2.13638 -3.6106,-2.06192 z"
     style="fill:#057ffa;fill-opacity:1" />
  <text
     xml:space="preserve"
     style="font-style:normal;font-variant:normal;font-weight:normal;font-stretch:normal;font-size:178.42321777px;line-height:125%;font-family:'Just Another Hand';-inkscape-font-specification:'Just Another Hand';letter-spacing:0px;word-spacing:0px;fill:#edaf1f;fill-opacity:1;stroke:none"
     x="581.3678"
     y="475.12778"
     id="text3813"
     sodipodi:linespacing="125%"><tspan
       sodipodi:role="line"
       id="tspan3815"
       x="581.3678"
       y="475.12778">???</tspan></text>
</svg>
