<?xml version="1.0" encoding="UTF-8" standalone="no"?>
<!-- Created with Inkscape (http://www.inkscape.org/) -->

<svg
   xmlns:dc="http://purl.org/dc/elements/1.1/"
   xmlns:cc="http://creativecommons.org/ns#"
   xmlns:rdf="http://www.w3.org/1999/02/22-rdf-syntax-ns#"
   xmlns:svg="http://www.w3.org/2000/svg"
   xmlns="http://www.w3.org/2000/svg"
   xmlns:sodipodi="http://sodipodi.sourceforge.net/DTD/sodipodi-0.dtd"
   xmlns:inkscape="http://www.inkscape.org/namespaces/inkscape"
   id="svg2"
   version="1.1"
   inkscape:version="0.48.5 r10040"
   width="1366"
   height="768"
   sodipodi:docname="schema-usage-categories-0.svg"
   inkscape:export-filename="/home/hsablonniere/dev/dzslides/src/media/schema-conscient-inconscient.png"
   inkscape:export-xdpi="90"
   inkscape:export-ydpi="90">
  <metadata
     id="metadata8">
    <rdf:RDF>
      <cc:Work
         rdf:about="">
        <dc:format>image/svg+xml</dc:format>
        <dc:type
           rdf:resource="http://purl.org/dc/dcmitype/StillImage" />
        <dc:title />
      </cc:Work>
    </rdf:RDF>
  </metadata>
  <defs
     id="defs6">
    <clipPath
       clipPathUnits="userSpaceOnUse"
       id="clipPath4522">
      <rect
         style="fill:#226699;fill-opacity:1;stroke:none"
         id="rect4524"
         width="1116.6582"
         height="588.78345"
         x="3620.6797"
         y="1153.7546" />
    </clipPath>
    <radialGradient
       gradientUnits="userSpaceOnUse"
       r="78.326784"
       fy="19.524991"
       fx="106.73546"
       gradientTransform="scale(1.2320179,0.81167652)"
       cy="19.524991"
       cx="106.73546"
       id="r">
      <stop
         stop-color="#f06b59"
         id="stop3165" />
      <stop
         offset="1"
         stop-color="#df2227"
         id="stop3167" />
    </radialGradient>
    <radialGradient
       gradientUnits="userSpaceOnUse"
       fy="108.80645"
       fx="122.26707"
       gradientTransform="scale(0.92838267,1.077142)"
       r="122.76932"
       cy="108.80645"
       cx="122.26707"
       id="g">
      <stop
         offset="0.65"
         stop-color="#4cb749"
         id="stop3170" />
      <stop
         offset="1"
         stop-color="#388b41"
         id="stop3172" />
    </radialGradient>
    <radialGradient
       gradientUnits="userSpaceOnUse"
       fy="102.2451"
       fx="187.90098"
       gradientTransform="scale(0.86406979,1.1573139)"
       r="111.5125"
       cy="102.2451"
       cx="187.90098"
       id="y">
      <stop
         offset="0.6"
         stop-color="#FCD209"
         id="stop3175" />
      <stop
         offset="0.7"
         stop-color="#f7c616"
         id="stop3177" />
      <stop
         offset="1"
         stop-color="#bc821e"
         id="stop3179" />
    </radialGradient>
    <radialGradient
       gradientUnits="userSpaceOnUse"
       fy="78.099998"
       fx="127.5"
       r="99"
       cy="78.099998"
       cx="127.5"
       spreadMethod="pad"
       id="cf">
      <stop
         offset="0.1"
         stop-color="#7FB3DF"
         id="stop3182" />
      <stop
         offset="0.9"
         stop-color="#0F5B94"
         id="stop3184" />
    </radialGradient>
    <radialGradient
       gradientUnits="userSpaceOnUse"
       fy="78.099998"
       fx="127.5"
       id="cb"
       r="99"
       cy="78.099998"
       cx="127.5">
      <stop
         offset="0"
         stop-color="#F6F0EE"
         id="stop3187" />
      <stop
         offset="1"
         stop-color="#ddd"
         id="stop3189" />
    </radialGradient>
    <clipPath
       id="clipPath3858"
       clipPathUnits="userSpaceOnUse">
      <path
         inkscape:connector-curvature="0"
         id="path3860"
         d="m 396.03854,-957.67135 0.32555,-1.84982 c 0.17787,-1.01669 0.93607,-3.7676 1.68701,-6.11165 0.7509,-2.34405 1.58344,-6.17974 1.86458,-8.5238 0.48888,-4.07658 1.1063,-7.91359 1.59822,-9.94441 1.24167,-5.12642 2.16342,-17.96397 2.53046,-35.27907 0.16847,-7.9437 0.34219,-15.7216 0.3848,-17.2843 0.29541,-10.7974 0.2766,-15.7022 -0.1627,-31.4907 -0.27182,-9.7669 -0.59568,-30.7567 -0.71033,-46.6441 -0.21749,-30.1434 -0.34278,-33.9341 -1.50943,-45.2235 -1.52579,-14.7652 -2.10523,-22.4822 -2.5453,-33.9915 -0.25173,-6.5837 -0.58297,-12.1766 -0.7399,-12.4306 -0.31495,-0.5097 -0.34545,-16.0836 -0.0591,-28.6346 0.1178,-5.168 0.52478,-10.0196 1.13944,-13.5404 0.81164,-4.6489 0.89225,-6.1637 0.50319,-9.9444 -0.64924,-6.3078 0.15372,-20.0747 1.19863,-20.466 0.29629,-0.111 1.71953,-0.033 3.15201,0.1776 6.90237,1.0128 12.88171,1.366 27.93909,1.6278 8.98551,0.1562 18.25513,0.432 20.59918,0.6215 2.34408,0.1897 7.13871,0.1759 10.65475,-0.029 3.51606,-0.2055 9.16307,-0.2416 12.54892,-0.089 11.20168,0.5058 35.36389,0.4125 45.22346,-0.1776 5.33925,-0.3195 13.64996,-0.7907 18.46821,-1.0506 4.81831,-0.26 11.74395,-0.9145 15.39019,-1.4503 3.64629,-0.5357 8.12132,-1.1803 9.94443,-1.4354 6.28729,-0.8798 68.53983,-1.356 93.28817,-0.7103 17.23555,0.4497 21.53664,0.4736 47.59117,0.3107 10.32801,-0.065 18.5457,0.1124 21.3095,0.444 2.59099,0.3109 14.94065,0.6163 29.12296,0.7251 13.5434,0.1039 31.23022,0.3571 39.30416,0.5623 18.56812,0.4722 23.7916,0.471 40.72478,-0.015 9.37287,-0.2688 15.31792,-0.2237 18.74941,0.1333 5.89255,0.6129 35.94236,0.7254 42.81135,0.1627 2.60448,-0.2133 10.01083,-0.3895 16.45567,-0.3848 6.44483,0.01 11.77216,-0.1418 11.83859,-0.3255 0.0665,-0.1838 0.88501,-0.1563 1.83498,0.059 0.95012,0.2157 3.72029,0.2223 6.15608,0.015 2.43586,-0.2076 6.25078,-0.5021 8.4646,-0.6512 16.01826,-1.0788 34.62009,-2.5161 45.69701,-3.5367 2.6045,-0.2401 11.66097,-0.4513 20.12557,-0.4736 8.4646,-0.022 17.5211,-0.133 20.1256,-0.2367 2.6046,-0.1039 5.8433,0.021 7.2068,0.2663 1.5326,0.2759 3.4078,0.2709 4.8982,0 1.4546,-0.2645 3.094,-0.2594 4.1436,0 0.9567,0.2364 3.2859,0.4233 5.1793,0.4143 4.079,-0.019 3.6878,-0.5729 5.727,8.0355 1.8446,7.7871 2.4984,13.9158 2.353,22.2713 -0.066,3.7676 -0.1001,17.2933 -0.074,30.0553 0.042,20.939 0.1368,23.8276 1.0211,29.5965 0.5389,3.5161 1.2044,9.2697 1.4798,12.7857 0.2755,3.5161 0.934,8.95 1.4651,12.0754 0.5309,3.1254 1.4936,8.7724 2.1309,12.5489 0.6372,3.7765 1.7912,10.2759 2.5748,14.4431 1.36,7.2318 2.8503,16.9999 4.4543,29.3598 0.7864,6.0583 1.24,10.0029 2.4714,21.3094 0.4254,3.9068 1.0792,8.7014 1.4502,10.6548 0.371,1.9533 0.9803,8.3462 1.3615,14.2063 0.3811,5.8601 0.9204,14.1708 1.1986,18.4682 0.2781,4.2974 0.5743,15.4032 0.6511,24.6835 0.076,9.2803 0.2476,17.0582 0.3847,17.2843 0.2291,0.3776 0.5161,4.2521 1.0952,14.85749 0.1208,2.21382 0.3511,7.70102 0.5179,12.19375 l 0.3108,8.16865 -4.2176,0 c -2.3216,0 -4.9798,0.23459 -5.8897,0.51796 -0.9099,0.28323 -5.052,0.57966 -9.2193,0.6659 -9.8387,0.20367 -19.0647,0.57876 -33.3849,1.37622 -6.3809,0.35534 -11.9747,0.66513 -12.4305,0.68075 -4.2692,0.1461 -9.0519,0.092 -13.5256,-0.16288 -3.12157,-0.17774 -5.59057,-0.12541 -5.91927,0.13323 -0.8238,0.64822 -2.1501,0.52322 -2.4417,-0.23678 -0.3346,-0.87194 -5.4606,-0.66348 -5.4606,0.222 0,0.32708 0.2131,0.59194 0.4736,0.59194 0.2604,0 0.4735,0.24979 0.4735,0.56232 0,0.44196 -0.1351,0.44196 -0.5771,0 -0.3126,-0.31253 -1.1117,-0.59122 -1.7758,-0.62152 -0.8026,-0.0364 -0.9207,-0.12237 -0.37,-0.26636 0.4558,-0.11915 0.8287,-0.4057 0.8287,-0.6363 1e-4,-0.23176 -5.4558,-0.44125 -12.19371,-0.45878 -6.70658,-0.0175 -15.17715,-0.0336 -18.82345,-0.0446 -3.64621,-0.0102 -10.35873,-0.008 -14.91659,0.0153 -4.55786,0.0238 -12.01618,-0.29791 -16.57404,-0.71031 -14.26197,-1.2906 -15.62695,-1.33743 -15.62695,-0.68073 0,0.45276 -0.16136,0.46317 -0.6659,0.0446 -0.72615,-0.60262 -4.61403,-0.82484 -5.44577,-0.31078 -0.28815,0.17783 -0.76999,0.1622 -1.08024,-0.0293 -0.62779,-0.38797 -0.33267,-0.37503 -18.14272,-1.15426 -7.03214,-0.30767 -14.38393,-0.63393 -16.33728,-0.72514 -11.77197,-0.54954 -29.11776,-0.5966 -29.72966,-0.0888 -0.42611,0.35361 -0.77089,0.37705 -0.9767,0.0739 -0.17548,-0.25843 -1.16316,-0.44514 -2.20495,-0.41437 -1.04176,0.0308 -4.93075,0.0992 -8.6422,0.14797 -6.36636,0.0839 -6.74799,0.14151 -6.74799,1.02111 5e-5,0.64127 -0.22836,0.84172 -0.72509,0.65111 -0.56253,-0.21588 -0.60727,-0.4293 -0.17758,-0.94708 0.468,-0.56376 -0.13915,-0.64488 -4.01034,-0.57715 -2.59403,0.0454 -4.55787,0.27044 -4.55787,0.53273 0,0.28518 -0.22636,0.28731 -0.59193,-0.0152 -0.32551,-0.26903 -1.37905,-0.64951 -2.33808,-0.82871 -1.60617,-0.30011 -1.71924,-0.23472 -1.47983,0.68068 0.14288,0.54657 0.0398,0.9915 -0.222,0.9915 -0.26186,0 -0.45033,-0.37291 -0.41435,-0.8287 0.0608,-0.76708 -0.86633,-0.84419 -12.46012,-0.96186 -11.04661,-0.11221 -12.57652,-0.0431 -12.94846,0.6215 -0.38541,0.68866 -0.49216,0.69301 -1.25786,0 -0.66519,-0.60199 -1.10767,-0.64621 -2.14579,-0.25156 -0.77433,0.2944 -1.5185,0.32356 -1.83497,0.0739 -0.29388,-0.23185 -3.28099,-0.44419 -6.62962,-0.47354 -5.40408,-0.0475 -6.02167,0.0255 -5.49013,0.66593 0.42122,0.50755 0.45603,0.86095 0.10356,1.21347 -0.35252,0.35245 -0.59179,0.21128 -0.81389,-0.48833 -0.19116,-0.60244 -0.72077,-0.99733 -1.34662,-1.00628 -11.20699,-0.16406 -40.04265,0.39116 -40.68041,0.78427 -0.18379,0.1134 -0.19369,0.54919 -0.0293,0.9767 0.22433,0.58459 0.0929,0.70221 -0.50314,0.47354 -0.51928,-0.19925 -0.78432,-0.056 -0.78432,0.39953 0,0.38254 -0.21305,0.69554 -0.47354,0.69554 -0.6623,0 -0.59098,-1.11695 0.11829,-1.84975 0.48256,-0.49832 -0.0208,-0.55517 -2.72288,-0.32562 -4.76598,0.40499 -22.8807,1.61711 -24.97944,1.67223 -2.74665,0.0722 -3.17559,0.0715 -7.22154,-0.14795 -4.03925,-0.21906 -8.38722,0.0946 -8.07979,0.59192 0.10219,0.16541 -0.5999,0.21972 -1.55385,0.1183 -1.84526,-0.19603 -10.73794,-0.0835 -15.46419,0.19235 -1.5627,0.0912 -5.93114,0.29189 -9.70766,0.45877 -3.77652,0.16694 -7.03161,0.46965 -7.23632,0.6659 -0.20471,0.19605 -1.37291,0.21429 -2.58971,0.0299 -2.22855,-0.33821 -10.11833,-0.19979 -16.69244,0.29597 -1.95337,0.14745 -5.33283,0.23451 -7.5027,0.19236 -3.14095,-0.0608 -4.12271,0.0917 -4.839,0.7399 -0.74024,0.66987 -1.029,0.70416 -1.62785,0.20718 -0.54122,-0.44921 -1.85469,-0.52393 -5.10537,-0.28119 -4.35652,0.32543 -5.06787,0.34 -7.08839,0.20723 -0.93866,-0.0617 -3.85739,0.0741 -17.63952,0.81386 -1.82313,0.0978 -9.92069,0.284 -17.99467,0.39953 -17.66358,0.25279 -27.67194,0.63664 -30.5436,1.1987 -2.31785,0.45366 -21.43516,0.3027 -22.21214,-0.17758 -0.43652,-0.26974 -7.88063,-0.0589 -14.25074,0.41434 -1.43243,0.10644 -6.33367,0.32462 -10.89152,0.47354 -4.55788,0.14898 -11.07114,0.37823 -14.47264,0.51792 -3.40158,0.13982 -12.45812,0.34376 -20.12564,0.444 -8.90201,0.11626 -16.25067,0.46536 -20.33285,0.96187 -3.51603,0.42766 -10.01546,0.94755 -14.4431,1.16907 -4.76029,0.23815 -9.11458,0.72282 -10.65474,1.16905 -1.43243,0.41507 -3.33455,0.88378 -4.21749,1.05066 l -1.59819,0.31078 z"
         style="fill:#992222;fill-opacity:1" />
    </clipPath>
    <clipPath
       id="clipPath4522-1"
       clipPathUnits="userSpaceOnUse">
      <rect
         y="1153.7546"
         x="3620.6797"
         height="588.78345"
         width="1116.6582"
         id="rect4524-7"
         style="fill:#226699;fill-opacity:1;stroke:none" />
    </clipPath>
    <clipPath
       id="clipPath4522-2"
       clipPathUnits="userSpaceOnUse">
      <rect
         y="1153.7546"
         x="3620.6797"
         height="588.78345"
         width="1116.6582"
         id="rect4524-0"
         style="fill:#226699;fill-opacity:1;stroke:none" />
    </clipPath>
  </defs>
  <sodipodi:namedview
     pagecolor="#ffffff"
     bordercolor="#666666"
     borderopacity="1"
     objecttolerance="10"
     gridtolerance="10"
     guidetolerance="10"
     inkscape:pageopacity="0"
     inkscape:pageshadow="2"
     inkscape:window-width="1600"
     inkscape:window-height="876"
     id="namedview4"
     showgrid="false"
     inkscape:zoom="0.50335574"
     inkscape:cx="822.94439"
     inkscape:cy="438.44347"
     inkscape:window-x="0"
     inkscape:window-y="24"
     inkscape:window-maximized="1"
     inkscape:current-layer="svg2"
     showguides="true"
     inkscape:guide-bbox="true" />
  <path
     style="fill:#777777;fill-opacity:1"
     d="m 729.25204,411.32143 c -23.88328,-0.054 -31.09009,0.2089 -32.15625,1.0937 -1.07481,0.8907 -2.12418,0.9117 -4.75,0.125 -2.3968,-0.7169 -6.75602,-0.7717 -15.25,-0.1875 -19.48188,1.3401 -53.06651,2.2392 -75.3125,2 -14.13611,-0.1518 -21.88869,0.1028 -24.125,0.8125 -2.55804,0.8122 -3.58656,0.8046 -4.59375,-0.031 -0.71356,-0.5923 -3.60024,-1.0625 -6.4375,-1.0625 -46.72842,0.1321 -159.83492,-0.9022 -183.8125,-1.6875 -18.55586,-0.6076 -35.81716,-0.7388 -42.09375,-0.3125 -5.85396,0.3965 -12.04341,0.6542 -13.75,0.5625 -1.70657,-0.093 -9.28603,0.2426 -16.84375,0.7813 -7.5577,0.5386 -15.52461,1.1283 -17.71875,1.2812 -2.19419,0.1538 -4,0.305 -4,0.3438 0,0.039 -4.19275,0.2636 -9.3125,0.5 -5.11973,0.2352 -10.50594,0.6129 -11.96875,0.8437 -2.9774,0.4705 -24.90057,1.8071 -50.96875,3.0938 -45.7184,2.2568 -78.20065,4.2952 -100.18749,6.2812 -5.11974,0.4625 -18.8915,1.0483 -30.59375,1.3125 -11.70227,0.2628 -26.53196,0.8694 -32.96875,1.3438 -9.57826,0.706 -13.49827,0.5897 -21.59375,-0.5938 -9.63352,-1.4082 -9.96956,-1.3824 -12.25,0.3125 -3.04701,2.2644 -3.48275,6.2102 -1,8.875 1.01641,1.0912 2.31572,2.0034 2.90625,2.0313 0.59053,0.025 3.09328,0.1914 5.53125,0.375 6.96992,0.5238 22.31743,0.5611 24.5625,0.062 2.35722,-0.5237 39.72432,-2.9835 43.6875,-2.875 2.78211,0.076 21.98946,-1.1705 50.53125,-3.3125 29.14678,-2.1874 44.63394,-3.1685 64.46875,-4.0625 10.58164,-0.4772 25.12822,-1.2877 32.34374,-1.7813 23.22276,-1.5892 50.04059,-3.4667 62.78125,-4.4375 23.71095,-1.8067 38.25258,-2.1905 62.9375,-1.5937 13.65265,0.33 62.44402,0.8184 108.4375,1.0937 45.9934,0.2739 83.94701,0.724 84.34375,0.9688 2.90065,1.7927 120.25056,-0.608 142.3125,-2.9063 7.4798,-0.7792 60.59122,0.097 91.3125,1.5 18.95711,0.8662 90.18477,1.1901 103.71877,0.4688 15.9356,-0.8496 87.4287,-0.3709 140.96874,0.9375 29.6359,0.6599 60.6622,2.0179 89.0938,2.6562 35.1126,0.7861 54.3767,1.3819 57.6251,1.7813 1.7065,0.2099 6.5116,0.6413 10.6562,0.9375 8.0017,0.5711 30.5427,2.7462 35,3.375 7.3347,1.0344 23.4252,1.7966 67.8125,3.2187 15.3594,0.4919 32.0238,1.0734 37.0313,1.3125 l 9.125,0.4375 1.75,-2.875 c 2.1849,-3.5847 2.17,-3.6165 -0.25,-6.375 l -2,-2.2812 -24.375,-0.375 c -24.1683,-0.3807 -32.7735,-0.6764 -70.4688,-2.3438 -19.5035,-0.8629 -26.1445,-1.3798 -46.0938,-3.7187 -5.8506,-0.6861 -11.431,-1.25 -12.4062,-1.25 -0.9753,0 -6.9737,-0.26 -13.3125,-0.5625 -6.3388,-0.3023 -23.8849,-0.7643 -39.0001,-1.0313 -34.2067,-0.5546 -68.1496,-1.9103 -102.4063,-2.6562 -37.00164,-0.097 -83.43914,-1.4832 -106.18744,-1.375 -24.7685,0.1226 -28.1164,0.3526 -27.1563,1.9062 0.2697,0.4363 0.048,0.8125 -0.4687,0.8125 -0.5164,0 -0.9375,-0.4504 -0.9375,-0.9687 0,-0.5893 -2.5795,-0.9084 -6.875,-0.875 -3.7788,0.028 -7.6501,0.028 -8.625,0 -0.9753,-0.028 -14.1659,0.1988 -29.2813,0.5 -15.1153,0.3 -27.85619,0.5625 -28.34372,0.5625 -0.48777,0.01 -5.48663,-0.2365 -11.09375,-0.5313 -15.35015,-0.8075 -30.99478,-1.3757 -35.46875,-1.2812 -2.19435,0.047 -4.58084,0.047 -5.3125,0 -0.73129,-0.047 -4.73057,-0.29 -8.875,-0.5625 -4.14481,-0.2723 -21.37778,-0.5549 -38.3125,-0.5938 z"
     id="path4563"
     inkscape:connector-curvature="0"
     sodipodi:nodetypes="cccsccccsccscsccsscccccccccsccssccsscccccccccccccscccccccssccccccccc" />
  <path
     sodipodi:nodetypes="cccsccccsccscsccsscccccccccsccssccsscccccccccccccscccccccssccccccccc"
     inkscape:connector-curvature="0"
     id="path4185"
     d="m 570.51161,179.81044 c -1.06773,6.38357 -1.11417,8.35359 -0.28559,8.77761 0.83404,0.42726 0.81021,0.71141 -0.0783,1.29086 -0.80984,0.52912 -1.04911,1.68721 -0.8329,4.05209 0.49608,5.4241 -0.0424,14.55351 -1.22348,20.46987 -0.75032,3.75956 -0.82815,5.87434 -0.2222,6.58408 0.69351,0.81193 0.64232,1.08602 -0.22573,1.22461 -0.61528,0.0981 -1.20228,0.79703 -1.32279,1.55638 -1.85423,12.52695 -7.67973,42.63632 -9.47373,48.93051 -1.38821,4.871 -2.25093,9.4702 -2.09649,11.21687 0.14296,1.62889 0.13459,3.3258 -0.0285,3.76817 -0.16433,0.44216 -0.1548,2.5233 0.0562,4.63046 0.21094,2.10715 0.45498,4.33181 0.5128,4.943 0.0587,0.61136 0.13133,1.11836 0.16965,1.12445 0.0385,0.006 0.0823,1.16344 0.0983,2.57072 0.0148,1.4071 0.15911,2.90785 0.32493,3.33552 0.33822,0.8706 0.72716,6.94754 0.89076,14.12603 0.2871,12.58965 0.92068,21.60259 1.94829,27.79834 0.23933,1.44273 0.23296,5.22038 -0.003,8.39374 -0.23749,3.17316 -0.26825,7.23721 -0.0731,9.03428 0.29046,2.67415 0.009,3.70505 -1.50361,5.6862 -1.79996,2.35758 -1.78876,2.45156 -0.21166,3.32755 2.107,1.1704 5.98552,1.90547 8.72284,1.65866 1.12088,-0.101 2.07699,-0.30577 2.12963,-0.45944 0.0498,-0.15413 0.32041,-0.79788 0.60529,-1.42159 0.81336,-1.78332 1.50206,-5.88502 1.10448,-6.56412 -0.41711,-0.71296 -1.25941,-11.09931 -0.98392,-12.143 0.19322,-0.73268 -0.22207,-6.06865 -1.12534,-14.04321 -0.92241,-8.14361 -1.2336,-12.44232 -1.2741,-17.89096 -0.0219,-2.90683 -0.20451,-6.92707 -0.38555,-8.93557 -0.58321,-6.46434 -1.29847,-13.93606 -1.71614,-17.49809 -0.77729,-6.62909 -0.53872,-10.58114 1.09915,-17.09419 0.90579,-3.60222 3.46048,-16.58406 5.68586,-28.85046 2.224,-12.2666 4.28055,-22.35383 4.53917,-22.42164 1.89374,-0.49535 4.50693,-32.27879 3.17408,-38.5436 -0.45188,-2.124 2.6693,-16.20126 5.35978,-24.20349 1.66067,-4.93787 5.00582,-23.95025 4.86827,-27.6855 -0.16227,-4.39811 3.34705,-23.45727 6.91329,-37.5815 1.91047,-7.828213 4.56947,-15.919157 6.40746,-23.428457 2.26773,-9.274218 3.67437,-14.336621 4.20681,-15.143415 0.27978,-0.423813 0.90994,-1.642221 1.37851,-2.705042 0.9039,-2.052038 4.0095,-7.743935 4.81985,-8.838315 1.33314,-1.800905 2.76933,-5.987853 6.05912,-17.644638 1.13818,-4.033649 2.42029,-8.402513 2.86912,-9.70523 l 0.81965,-2.373611 -2.76513,-0.918989 c -3.4476,-1.146611 -3.47964,-1.147606 -6.30682,-0.932316 l -2.33796,0.17772 -1.40564,6.464882 c -1.4025,6.408659 -2.06004,8.665377 -5.30786,18.492688 -1.68061,5.084617 -2.47319,6.780976 -5.63049,11.753552 -0.92612,1.458306 -1.72006,2.863434 -1.76148,3.124437 -0.0414,0.261031 -0.55298,1.825666 -1.12097,3.474756 -0.56779,1.649107 -1.76932,6.272681 -2.67501,10.276228 -2.00061,9.068038 -4.78122,17.939926 -6.97289,26.99138 -1.66737,9.88779 -5.00879,22.09892 -5.86812,28.20417 -0.9309,6.64817 -0.84594,7.58025 0.72923,7.56679 0.44235,-0.004 0.80453,0.11431 0.78255,0.25282 -0.0219,0.13825 -0.48465,0.18032 -0.99655,0.0991 -0.58201,-0.0924 -1.00673,0.54799 -1.15618,1.70285 -0.13285,1.01574 -0.29727,2.05184 -0.36633,2.30837 -0.0691,0.25664 -0.40533,3.82248 -0.74985,7.91513 -0.3457,4.09243 -0.62759,7.5435 -0.6483,7.67399 -0.0108,0.13213 -0.46661,1.43135 -0.99592,2.88582 -1.44949,3.98171 -2.67514,8.07973 -2.77183,9.29194 -0.0468,0.59466 -0.14815,1.23336 -0.22564,1.42183 -0.0775,0.18835 -0.48734,1.22062 -0.9325,2.28711 -0.44498,1.06663 -1.45602,5.6345 -2.21371,10.16077 z"
     style="fill:#777777;fill-opacity:1" />
</svg>
